<svg width="187" height="56" viewBox="0 0 187 56" fill="none" xmlns="http://www.w3.org/2000/svg">
<path d="M41.8366 34.493H27.6484V4.22046H41.8366C53.1871 4.22046 58.3117 10.6381 58.3117 19.3778C58.3117 28.1176 51.7894 34.493 41.8366 34.493ZM31.4602 30.9464H41.6248C49.1636 30.9464 54.4153 26.7243 54.4153 19.4623C54.4153 12.2002 50.053 7.72481 41.6248 7.72481H31.4602V30.9464ZM85.1209 34.493H81.3092V21.8267L65.9775 4.22046H70.8904L83.2998 18.4912L95.6244 4.22046H100.326L85.1209 21.8689V34.493ZM139.135 34.493H134.646L130.114 25.9221H111.818L107.371 34.493H103.051L119.145 4.22046H122.787L139.135 34.493ZM128.674 22.8822L120.966 8.40035L113.3 22.8822H128.674ZM166.365 34.493H152.177V4.22046H166.365C177.715 4.22046 182.84 10.6381 182.84 19.3778C182.84 28.1176 176.318 34.493 166.365 34.493ZM155.988 30.9464H166.153C173.692 30.9464 178.943 26.7243 178.943 19.4623C178.943 12.2002 174.581 7.72481 166.153 7.72481H155.988V30.9464Z" fill="white"/>
<path d="M28.5779 50.7394H27.5273V42.8349H31.3758C33.2447 42.8349 34.2621 43.5736 34.2621 45.3816C34.2621 47.2006 33.2447 48.0384 31.3758 48.0384H28.5779V50.7394ZM28.5779 47.1565H31.2984C32.5812 47.1565 33.3111 46.6494 33.3111 45.4146C33.3111 44.1799 32.5701 43.75 31.2984 43.75H28.5779V47.1565ZM44.2223 50.7394H43.0058L40.4623 47.8621H37.399V50.7394H36.4037V42.8349H40.595C42.7293 42.8349 43.3818 43.9484 43.3818 45.3485C43.3818 46.5061 42.6519 47.4431 41.4023 47.6416L44.2223 50.7394ZM40.5176 43.75H37.399V47.0352H40.5287C41.6014 47.0352 42.3976 46.4289 42.3976 45.3705C42.3976 44.2681 41.723 43.75 40.5176 43.75ZM54.8156 50.7394H53.6434L52.4601 48.5015H47.6827L46.5215 50.7394H45.3936L49.5959 42.8349H50.5469L54.8156 50.7394ZM52.0841 47.7077L50.0714 43.9263L48.0698 47.7077H52.0841ZM63.0814 48.8102L63.7118 49.5267C63.1256 50.2984 61.865 50.9158 60.2614 50.9158C57.7179 50.9158 55.7052 49.4275 55.7052 46.7927C55.7052 44.4224 57.3309 42.7026 60.4605 42.7026C62.0972 42.7026 63.3136 43.331 63.756 43.9704L63.1256 44.7311C62.6391 44.0476 61.677 43.6287 60.361 43.6287C58.0165 43.6287 56.7226 44.9296 56.7226 46.7927C56.7226 48.7771 58.2156 49.9787 60.2614 49.9787C61.5111 49.9787 62.5174 49.5819 63.0814 48.8102ZM69.4759 50.7394H68.4807V43.75H65.3732V42.8349H72.5945V43.75H69.4759V50.7394ZM75.5837 50.7394H74.5884V42.8349H75.5837V50.7394ZM85.2829 48.8102L85.9132 49.5267C85.3271 50.2984 84.0664 50.9158 82.4629 50.9158C79.9194 50.9158 77.9067 49.4275 77.9067 46.7927C77.9067 44.4224 79.5323 42.7026 82.662 42.7026C84.2987 42.7026 85.5151 43.331 85.9575 43.9704L85.3271 44.7311C84.8405 44.0476 83.8784 43.6287 82.5624 43.6287C80.218 43.6287 78.9241 44.9296 78.9241 46.7927C78.9241 48.7771 80.417 49.9787 82.4629 49.9787C83.7125 49.9787 84.7189 49.5819 85.2829 48.8102ZM94.5967 50.7394H88.1716V42.8349H94.4861V43.7389H89.1668V46.2745H93.9442V47.0573H89.1668V49.8024H94.5967V50.7394ZM111.519 43.6066L110.966 44.4224C110.269 43.8271 109.34 43.5846 108.434 43.5846C107.56 43.5846 106.288 43.8381 106.288 44.9516C106.288 45.5139 106.576 45.8225 106.996 46.01C107.449 46.2084 108.046 46.2525 108.577 46.3186C109.329 46.4068 109.993 46.484 110.557 46.7155C111.342 47.0352 111.784 47.7187 111.784 48.5676C111.784 50.4197 109.949 50.9158 108.478 50.9158C107.195 50.9158 105.746 50.552 104.994 49.4165L105.713 48.755C106.354 49.6811 107.438 50.0339 108.522 50.0339C109.462 50.0339 110.833 49.8134 110.833 48.6117C110.833 47.5313 109.783 47.3439 108.876 47.2557C108.201 47.1896 107.494 47.1234 106.852 46.9029C105.945 46.5832 105.282 46.0541 105.282 45.0288C105.282 43.309 107.018 42.7137 108.434 42.7026C109.528 42.7026 110.645 42.9011 111.519 43.6066ZM122.826 46.8919C122.826 49.3503 120.912 50.9268 118.247 50.9268C115.704 50.9268 113.724 49.3503 113.724 46.8919C113.724 44.4335 115.527 42.7026 118.247 42.7026C120.912 42.7026 122.826 44.4335 122.826 46.8919ZM121.786 46.8919C121.786 44.9406 120.304 43.6397 118.247 43.6397C116.19 43.6397 114.731 44.9406 114.731 46.8919C114.731 48.8432 116.279 50.0118 118.247 50.0118C120.293 50.0118 121.786 48.8432 121.786 46.8919ZM131.295 50.7394H125.102V42.8349H126.097V49.8134H131.295V50.7394ZM139.562 47.7077V42.8349H140.557V47.6967C140.557 50.1331 138.688 50.9268 136.775 50.9268C134.851 50.9268 132.993 50.1331 132.993 47.6967V42.8349H133.977V47.7077C133.977 49.3283 135.172 50.0118 136.775 50.0118C138.368 50.0118 139.562 49.3283 139.562 47.7077ZM146.522 50.7394H145.527V43.75H142.419V42.8349H149.64V43.75H146.522V50.7394ZM152.63 50.7394H151.635V42.8349H152.63V50.7394ZM164.054 46.8919C164.054 49.3503 162.141 50.9268 159.476 50.9268C156.932 50.9268 154.953 49.3503 154.953 46.8919C154.953 44.4335 156.755 42.7026 159.476 42.7026C162.141 42.7026 164.054 44.4335 164.054 46.8919ZM163.014 46.8919C163.014 44.9406 161.533 43.6397 159.476 43.6397C157.419 43.6397 155.959 44.9406 155.959 46.8919C155.959 48.8432 157.507 50.0118 159.476 50.0118C161.522 50.0118 163.014 48.8432 163.014 46.8919ZM173.872 50.7394H172.899L167.303 44.4335V50.7394H166.33V42.8349H167.358L172.899 49.2622V42.8349H173.872V50.7394ZM182.433 43.6066L181.88 44.4224C181.184 43.8271 180.254 43.5846 179.347 43.5846C178.474 43.5846 177.202 43.8381 177.202 44.9516C177.202 45.5139 177.489 45.8225 177.91 46.01C178.363 46.2084 178.96 46.2525 179.491 46.3186C180.243 46.4068 180.906 46.484 181.471 46.7155C182.257 47.0352 182.699 47.7187 182.699 48.5676C182.699 50.4197 180.861 50.9158 179.392 50.9158C178.109 50.9158 176.66 50.552 175.908 49.4165L176.627 48.755C177.268 49.6811 178.352 50.0339 179.436 50.0339C180.377 50.0339 181.746 49.8134 181.746 48.6117C181.746 47.5313 180.697 47.3439 179.788 47.2557C179.115 47.1896 178.407 47.1234 177.766 46.9029C176.859 46.5832 176.196 46.0541 176.196 45.0288C176.196 43.309 177.932 42.7137 179.347 42.7026C180.443 42.7026 181.558 42.9011 182.433 43.6066Z" fill="white"/>
<rect x="19.293" y="4" width="3.52938" height="46.9123" rx="1.76469" fill="#B0DA23"/>
<ellipse cx="4.70487" cy="4.69221" rx="4.70487" ry="4.69221" transform="matrix(0.966127 -0.258069 0.259571 0.965724 4 28.9463)" fill="#00A7D8"/>
<ellipse cx="4.70487" cy="4.69221" rx="4.70487" ry="4.69221" transform="matrix(0.966127 -0.258069 0.259571 0.965724 4 42.9373)" fill="#1D6DD8"/>
</svg>
