<?xml version="1.0" encoding="UTF-8"?>
<svg version="1.1" xmlns="http://www.w3.org/2000/svg" width="349" height="161">
<path d="M0 0 C4.35068018 -0.42653727 6.29388712 -0.57772872 9.75 2.25 C10.4925 3.1575 11.235 4.065 12 5 C12.86625 6.0209375 12.86625 6.0209375 13.75 7.0625 C16.92447132 11.98293054 16.42580883 17.58708332 15.4375 23.1875 C13.76210785 26.46544117 11.99439521 27.38776681 8.74609375 28.98828125 C6.19346429 30.46732159 4.74870482 32.66839358 3 35 C2.34 35 1.68 35 1 35 C2.01575614 38.55514648 3.28176947 40.43437392 6.125 42.6875 C7.07375 43.450625 8.0225 44.21375 9 45 C9 45.66 9 46.32 9 47 C9.80244141 47.33257812 9.80244141 47.33257812 10.62109375 47.671875 C13.8117928 49.45321766 16.38311226 51.79745613 19.0625 54.25 C19.85624023 54.94802734 19.85624023 54.94802734 20.66601562 55.66015625 C24.07742707 58.7676653 26.27595066 61.62723817 28 66 C28 70.22083702 27.42284367 72.37255455 25.0625 75.875 C20.82073195 78.81826763 17.10562777 79.26247838 12 79 C7.45507148 77.41455982 4.85482787 73.70294998 1.81640625 70.11328125 C-3.27103602 64.19434304 -9.07675352 59.06168335 -15 54 C-18.16115776 55.36983503 -18.9927092 55.9890638 -21 59 C-23.625 60.1875 -23.625 60.1875 -26 61 C-24.56115891 64.07325281 -22.85033881 66.74371329 -20.875 69.5 C-16.79696281 75.25522576 -12.89562018 81.12042479 -9 87 C-8.26265625 88.01449219 -7.5253125 89.02898437 -6.765625 90.07421875 C-4.49410744 93.83830426 -4.62960304 95.69626743 -5.3203125 99.8828125 C-6.64470667 104.00822422 -9.56468575 106.01322145 -13 108.375 C-15.87247791 109.27264935 -17.15207417 109.05969333 -20 108 C-24.95940286 104.74029859 -28.18816099 100.6136473 -31.3203125 95.64453125 C-33.37606106 92.40792247 -35.55677824 89.26937726 -37.75 86.125 C-39.85553765 83.09747226 -41.95429197 80.06856204 -44 77 C-48.75481646 77.57634139 -51.97048212 79.55068521 -56 82 C-53.68348975 89.494592 -50.73143516 96.6794512 -47.71875 103.9140625 C-47.43418945 104.59992432 -47.14962891 105.28578613 -46.85644531 105.99243164 C-46.29490846 107.30871372 -45.71150359 108.61592568 -45.10449219 109.91186523 C-43.46606931 113.44858889 -42.62607254 115.94008065 -43.25 119.8125 C-43.41242188 120.93591797 -43.41242188 120.93591797 -43.578125 122.08203125 C-44 124 -44 124 -45 126 C-45.66 126 -46.32 126 -47 126 C-47 126.66 -47 127.32 -47 128 C-48.20703125 129.61328125 -48.20703125 129.61328125 -50 131 C-52.26171875 131.29296875 -52.26171875 131.29296875 -54.6875 131.1875 C-55.89986328 131.14689453 -55.89986328 131.14689453 -57.13671875 131.10546875 C-57.75160156 131.07066406 -58.36648437 131.03585938 -59 131 C-59.33 130.01 -59.66 129.02 -60 128 C-60.5878125 127.47535156 -61.175625 126.95070313 -61.78125 126.41015625 C-65.03085256 122.88021826 -66.60654247 118.80961443 -68.5 114.4375 C-69.09155884 113.09582764 -69.09155884 113.09582764 -69.69506836 111.72705078 C-77 95.00623362 -77 95.00623362 -77 91 C-77.92232422 91.30744141 -77.92232422 91.30744141 -78.86328125 91.62109375 C-82.2421875 92.74739583 -85.62109375 93.87369792 -89 95 C-89.28271836 102.50970631 -87.9270429 109.35879777 -86.421875 116.69140625 C-83.41604889 132.08552996 -83.41604889 132.08552996 -86.5625 137.875 C-90.20341146 141.04912794 -93.62436024 143.83031145 -98.625 144.1875 C-102.96368903 142.01815549 -105.06218476 138.23987121 -106.875 133.91015625 C-109.1384665 127.01365676 -110.17366878 119.80408983 -111.3515625 112.66015625 C-111.89602936 109.06876819 -111.89602936 109.06876819 -113 106 C-113 103.69 -113 101.38 -113 99 C-117.62 99.33 -122.24 99.66 -127 100 C-126.98839844 101.39089844 -126.97679687 102.78179687 -126.96484375 104.21484375 C-126.92793973 110.14373759 -126.95750334 116.07122129 -127 122 C-127.0004834 122.85190918 -127.0009668 123.70381836 -127.00146484 124.58154297 C-127.0667868 139.76423194 -127.0667868 139.76423194 -132.625 145.75 C-133.07875 146.1625 -133.5325 146.575 -134 147 C-134.33 147.33 -134.66 147.66 -135 148 C-136.99609375 148.16796875 -136.99609375 148.16796875 -139.4375 148.1875 C-140.24058594 148.20167969 -141.04367188 148.21585938 -141.87109375 148.23046875 C-144 148 -144 148 -146 146 C-149.30525356 140.97676154 -150.55092606 137.56319664 -150.8125 131.4375 C-150.84400146 130.72730713 -150.87550293 130.01711426 -150.90795898 129.28540039 C-151.23449522 119.51956749 -150.58704694 109.74497922 -150 100 C-156.435 99.505 -156.435 99.505 -163 99 C-163.58675394 101.29083721 -164.16999575 103.58244987 -164.75 105.875 C-164.92974365 106.58374268 -165.1094873 107.29248535 -165.29467773 108.02270508 C-166.28262286 111.96717384 -167.21124689 115.91566162 -168.05078125 119.89453125 C-168.30553223 121.09456787 -168.30553223 121.09456787 -168.56542969 122.31884766 C-168.89045217 123.86765322 -169.20783594 125.4180866 -169.51660156 126.97021484 C-170.68860455 132.53785645 -172.2918598 136.2918598 -176.3125 140.3125 C-179.63554027 142.39906017 -181.14203712 142.70860543 -185 142 C-190.00678255 138.89579482 -192.10693972 135.48218098 -194.53125 130.18359375 C-195.13798145 127.35723639 -194.29271092 126.53879386 -193 124 C-192.55744391 122.39528993 -192.16617604 120.775893 -191.81640625 119.1484375 C-191.61080078 118.21386719 -191.40519531 117.27929688 -191.19335938 116.31640625 C-190.98517578 115.34574219 -190.77699219 114.37507813 -190.5625 113.375 C-189.00103817 106.13415178 -187.20945494 99.07283243 -185 92 C-188.3 91.34 -191.6 90.68 -195 90 C-195.33 90.66 -195.66 91.32 -196 92 C-196 91.34 -196 90.68 -196 90 C-199.08401897 90.6602122 -199.08401897 90.6602122 -200.10546875 92.90625 C-200.46253906 93.7621875 -200.81960937 94.618125 -201.1875 95.5 C-203.41848947 100.66721573 -205.73222596 105.78123762 -208.125 110.875 C-208.63003052 111.96264648 -208.63003052 111.96264648 -209.14526367 113.07226562 C-213.99411714 123.41968297 -213.99411714 123.41968297 -218.25 125.875 C-222.51881856 127.15564557 -224.75006402 127.33794281 -229 126 C-232.5663319 122.58872601 -234.63392436 119.94202111 -235 115 C-234.23097347 112.49632715 -233.41481305 110.25850118 -232.375 107.875 C-232.09793213 107.21338867 -231.82086426 106.55177734 -231.53540039 105.87011719 C-229.14022147 100.1941816 -226.59920962 94.58501055 -224 89 C-223.06075064 86.93829606 -222.12321737 84.87580936 -221.1875 82.8125 C-220.45833333 81.20833333 -219.72916667 79.60416667 -219 78 C-219.86625 77.7525 -220.7325 77.505 -221.625 77.25 C-225.18721925 75.93065954 -227.88371346 74.14735711 -231 72 C-231.31638428 72.45737549 -231.63276855 72.91475098 -231.95874023 73.38598633 C-247.42779871 95.68728225 -247.42779871 95.68728225 -255 103 C-254.67 103.66 -254.34 104.32 -254 105 C-255.65 104.67 -257.3 104.34 -259 104 C-259 104.66 -259 105.32 -259 106 C-260.32 106 -261.64 106 -263 106 C-263 105.34 -263 104.68 -263 104 C-263.928125 103.79375 -264.85625 103.5875 -265.8125 103.375 C-269 102 -269 102 -270.9375 99.3125 C-272.30006734 95.06449592 -272.33948094 93.30043882 -271 89 C-269.26391592 86.27893557 -267.36507234 83.74305895 -265.3984375 81.18359375 C-262.2115299 76.9534151 -259.32382421 72.55008932 -256.41430664 68.12695312 C-254.36046099 65.01379026 -252.2841702 61.94946248 -250 59 C-251.5595265 55.17207132 -253.83631836 52.63640136 -257 50 C-260.68040276 50.26504958 -262.62485637 52.17927266 -265.25 54.625 C-266.04019531 55.34945312 -266.83039063 56.07390625 -267.64453125 56.8203125 C-268.42183594 57.53960937 -269.19914062 58.25890625 -270 59 C-272.63854375 61.3670043 -275.31086042 63.69073887 -278 66 C-278.81726563 66.71929687 -279.63453125 67.43859375 -280.4765625 68.1796875 C-289.04962036 75.45772151 -289.04962036 75.45772151 -295 75 C-298.83298934 73.009794 -301.95567875 70.8614957 -304 67 C-304.68117183 62.62103821 -303.7917735 59.47026415 -301.44140625 55.703125 C-299.23639979 53.09775151 -296.53616355 51.57810009 -293.64453125 49.80859375 C-289.81142056 47.18713105 -286.53016473 44.05489168 -283.16210938 40.87011719 C-280.54758592 38.40045718 -277.93406567 36.08381386 -275 34 C-275.18828772 31.55519921 -275.18828772 31.55519921 -276 29 C-277.84971696 27.94978897 -277.84971696 27.94978897 -280 27 C-283.62181656 23.26843142 -285.91339146 19.08118849 -287 14 C-286.14124762 9.89707197 -283.81176187 7.05985851 -281 4 C-276.76911697 1.44902641 -272.82207515 1.3255839 -268 2 C-264.875 3.625 -264.875 3.625 -262 6 C-261.36578125 6.5053125 -260.7315625 7.010625 -260.078125 7.53125 C-256.48061786 10.46681583 -256.48061786 10.46681583 -255 12 C-255 12.66 -255 13.32 -255 14 C-253.68 14.66 -252.36 15.32 -251 16 C-251 16.66 -251 17.32 -251 18 C-250.21625 18.0825 -249.4325 18.165 -248.625 18.25 C-246 19 -246 19 -245 20.75 C-244.505 21.86375 -244.505 21.86375 -244 23 C-242.86319233 24.17024319 -241.71945922 25.33487829 -240.53515625 26.45703125 C-238.6690447 28.33263955 -237.01464904 30.34961458 -235.3125 32.375 C-231.71691477 36.47546817 -227.86800879 39.44658669 -223.296875 42.39453125 C-220.91091264 44.06227025 -219.05430058 45.94569942 -217 48 C-186.14877915 69.54963554 -146.51759863 76.62613553 -109.68066406 70.81713867 C-100.16016441 69.065726 -91.02332457 66.50051613 -82 63 C-80.28490234 62.35611328 -80.28490234 62.35611328 -78.53515625 61.69921875 C-62.06646173 55.12285592 -46.43157872 44.6225074 -34 32 C-32.7934375 31.071875 -32.7934375 31.071875 -31.5625 30.125 C-28.82073926 27.85134475 -26.73252921 25.38164456 -24.46484375 22.65234375 C-23 21 -23 21 -20.5625 19.0625 C-18.24329257 17.19582085 -16.54143608 15.38289462 -14.625 13.125 C-6.06696429 3.14994748 -6.06696429 3.14994748 0 2 C0 1.34 0 0.68 0 0 Z " fill="#393939" transform="translate(311,8)"/>
<path d="M0 0 C3.125 1.625 3.125 1.625 6 4 C6.63421875 4.5053125 7.2684375 5.010625 7.921875 5.53125 C11.51938214 8.46681583 11.51938214 8.46681583 13 10 C13 10.66 13 11.32 13 12 C14.32 12.66 15.64 13.32 17 14 C17 14.66 17 15.32 17 16 C17.78375 16.0825 18.5675 16.165 19.375 16.25 C22 17 22 17 23 18.75 C23.495 19.86375 23.495 19.86375 24 21 C25.13680767 22.17024319 26.28054078 23.33487829 27.46484375 24.45703125 C29.3309553 26.33263955 30.98535096 28.34961458 32.6875 30.375 C36.28308523 34.47546817 40.13199121 37.44658669 44.703125 40.39453125 C47.08908736 42.06227025 48.94569942 43.94569942 51 46 C81.84794585 67.54734795 121.48750035 74.63271582 158.3215332 68.81616211 C168.77867803 66.89462566 178.91400987 63.99752676 188.71484375 59.8515625 C191 59 191 59 194 59 C193.67 59.99 193.34 60.98 193 62 C191.25341797 62.84375 191.25341797 62.84375 188.9921875 63.5 C188.16976562 63.7475 187.34734375 63.995 186.5 64.25 C185.200625 64.62125 185.200625 64.62125 183.875 65 C182.18385898 65.49648177 180.49373254 65.99643378 178.8046875 66.5 C177.97807617 66.74621094 177.15146484 66.99242188 176.29980469 67.24609375 C173.77018439 68.02843669 173.77018439 68.02843669 170.5703125 69.5625 C160.02005396 73.8103065 148.7245154 73.40379946 137.52490234 73.42553711 C134.66544283 73.43733316 131.80821862 73.48654035 128.94921875 73.53710938 C89.2188851 73.88452263 54.31923711 55.71947419 26.37255859 28.51513672 C22.79841098 24.98038504 19.27098409 21.40009205 15.75 17.8125 C13.94074024 15.97552043 12.12993875 14.14012142 10.31622314 12.30754089 C9.20268827 11.1818314 8.09183707 10.05345903 6.98406982 8.92207336 C4.26316894 6.10609396 4.26316894 6.10609396 1 4 C1 3.34 1 2.68 1 2 C-5.70822207 1.88922896 -5.70822207 1.88922896 -11.84375 4.15625 C-14.24193914 6.7775265 -15.00505394 9.03144672 -15.5625 12.5 C-14.48398716 19.21074655 -10.19453847 22.98376621 -5.29296875 27.2890625 C-4 29 -4 29 -3.984375 30.91015625 C-5.44758409 33.92099034 -7.54812545 35.61631315 -10.0625 37.8125 C-10.56056152 38.25190918 -11.05862305 38.69131836 -11.57177734 39.14404297 C-13.04086065 40.43734661 -14.52026997 41.71889145 -16 43 C-16.72316406 43.63550781 -17.44632813 44.27101562 -18.19140625 44.92578125 C-18.82949219 45.48652344 -19.46757812 46.04726563 -20.125 46.625 C-20.74632812 47.17414062 -21.36765625 47.72328125 -22.0078125 48.2890625 C-23.47344937 49.54778593 -24.97387672 50.76627918 -26.4921875 51.9609375 C-31.56461504 55.91844995 -31.56461504 55.91844995 -33.75 61.75 C-32.84304954 65.979006 -32.84304954 65.979006 -30 69 C-24.98143451 70.20699676 -23.1128304 70.61130818 -18.515625 68.0859375 C-17.40859095 67.20504342 -16.31995633 66.30057668 -15.25 65.375 C-14.69957031 64.93542969 -14.14914063 64.49585937 -13.58203125 64.04296875 C-11.08734499 62.00294953 -9.02533983 60.03186147 -7.01171875 57.5 C-4.5082356 54.38887531 -1.70006384 52.0705069 1.4375 49.625 C1.99759766 49.16222656 2.55769531 48.69945312 3.13476562 48.22265625 C5.65345253 46.25355447 7.35767134 45.01444517 10.60546875 44.94140625 C13.63845849 46.28225489 15.53361859 47.96728026 17.875 50.3125 C18.67679688 51.09238281 19.47859375 51.87226562 20.3046875 52.67578125 C22 55 22 55 22.00390625 56.98828125 C20.681928 59.63738164 19.00051793 61.63384745 17.0625 63.875 C12.44948463 69.35895267 8.2845919 75.07444081 4.1640625 80.93359375 C2.9119063 82.7078584 1.6250419 84.46051901 0.25390625 86.14453125 C-1.1848395 88.27351639 -1.47567331 89.70807972 -1.6875 92.25 C-1.790625 93.4875 -1.89375 94.725 -2 96 C-1.01 96.33 -0.02 96.66 1 97 C1.33 97.66 1.66 98.32 2 99 C3.39303605 99.13657216 4.79006121 99.23271149 6.1875 99.3125 C6.96480469 99.37050781 7.74210937 99.42851563 8.54296875 99.48828125 C14.52394367 98.29969323 18.36077634 91.0650602 21.8125 86.375 C22.33295898 85.67439453 22.85341797 84.97378906 23.38964844 84.25195312 C27.6325269 78.5302182 31.83657912 72.77980781 36 67 C39.42465377 67.63188373 41.71213394 68.96491164 44.5625 70.9375 C45.32691406 71.46214844 46.09132813 71.98679687 46.87890625 72.52734375 C47.57886719 73.01332031 48.27882813 73.49929687 49 74 C50.485 74.99 50.485 74.99 52 76 C50.40750841 80.02313665 48.74981013 84.01571552 47.0625 88 C46.55847656 89.19625 46.05445312 90.3925 45.53515625 91.625 C44.19085315 94.58041445 42.67023118 97.22533411 41 100 C38.28967028 106.25245029 36.51282771 112.2050329 36 119 C37.485 119.495 37.485 119.495 39 120 C39.33 120.66 39.66 121.32 40 122 C45.67306365 122.38984132 45.67306365 122.38984132 51 121 C52.08885464 118.32186171 52.08885464 118.32186171 53 115 C53.59859813 113.71651933 54.22559491 112.446037 54.875 111.1875 C56.28286285 108.4491294 57.59076588 105.7012433 58.8125 102.875 C61.61930731 96.46105077 64.83803838 90.24398601 68 84 C73.92863717 85.16651426 79.38798394 86.75519358 85 89 C85.13834712 92.45867797 85.23067387 95.33656617 84.0859375 98.62890625 C82.42332132 103.79019318 81.86684651 109.08937013 81.14453125 114.45117188 C81.02464844 115.27810547 80.90476562 116.10503906 80.78125 116.95703125 C80.6275293 118.08588745 80.6275293 118.08588745 80.47070312 119.23754883 C80.31537109 119.81915771 80.16003906 120.4007666 80 121 C79.01 121.495 79.01 121.495 78 122 C77.89175157 123.6026782 77.81429355 125.20745748 77.75 126.8125 C77.70359375 127.70582031 77.6571875 128.59914062 77.609375 129.51953125 C77.77159651 132.11609715 77.77159651 132.11609715 79.765625 133.79296875 C82.05841626 135.03155704 83.41719168 135.45964362 86 135.5 C86.66 135.5309375 87.32 135.561875 88 135.59375 C91.334418 134.60384466 92.20650603 132.96348287 94 130 C95.1270633 126.3844109 95.84756158 122.71618724 96.5625 119 C96.98379126 116.93607868 97.40566332 114.87227582 97.828125 112.80859375 C98.12686523 111.31561768 98.12686523 111.31561768 98.43164062 109.79248047 C99.50845419 104.50184752 100.76705204 99.25625184 102 94 C107.94 94.66 113.88 95.32 120 96 C120.33 109.86 120.66 123.72 121 138 C124.6139793 139.80698965 125.73763047 140.27576965 129.5 140.25 C130.2528125 140.25515625 131.005625 140.2603125 131.78125 140.265625 C134.4069578 140.07795668 134.4069578 140.07795668 138 138 C138 124.14 138 110.28 138 96 C144.27 95.67 150.54 95.34 157 95 C157.45572917 98.19010417 157.91145833 101.38020833 158.3671875 104.5703125 C158.97589301 107.86934608 159.92344678 110.82944522 161 114 C161.39019386 115.93056702 161.74603268 117.86848644 162.0625 119.8125 C162.38148233 123.2126844 162.38148233 123.2126844 164 126 C164.12375 127.093125 164.2475 128.18625 164.375 129.3125 C165.04807668 133.83829769 165.04807668 133.83829769 168 137 C170.99208765 137.62711606 173.94896304 137.87207392 177 138 C174.72327944 140.40607968 173.35596682 141.58050415 170 142 C165.76505809 140.5883527 164.10986223 137.74397121 162 134 C158.88979062 126.63733619 157.9406242 118.49727754 156.6484375 110.66015625 C156.10397064 107.06876819 156.10397064 107.06876819 155 104 C155 101.69 155 99.38 155 97 C150.38 97.33 145.76 97.66 141 98 C141.01160156 99.39089844 141.02320313 100.78179687 141.03515625 102.21484375 C141.07206027 108.14373759 141.04249666 114.07122129 141 120 C140.9995166 120.85190918 140.9990332 121.70381836 140.99853516 122.58154297 C140.9332132 137.76423194 140.9332132 137.76423194 135.375 143.75 C134.92125 144.1625 134.4675 144.575 134 145 C133.67 145.33 133.34 145.66 133 146 C131.00390625 146.16796875 131.00390625 146.16796875 128.5625 146.1875 C127.75941406 146.20167969 126.95632812 146.21585938 126.12890625 146.23046875 C124 146 124 146 122 144 C118.69474644 138.97676154 117.44907394 135.56319664 117.1875 129.4375 C117.15599854 128.72730713 117.12449707 128.01711426 117.09204102 127.28540039 C116.76550478 117.51956749 117.41295306 107.74497922 118 98 C111.565 97.505 111.565 97.505 105 97 C104.41324606 99.29083721 103.83000425 101.58244987 103.25 103.875 C103.07025635 104.58374268 102.8905127 105.29248535 102.70532227 106.02270508 C101.71737714 109.96717384 100.78875311 113.91566162 99.94921875 117.89453125 C99.69446777 119.09456787 99.69446777 119.09456787 99.43457031 120.31884766 C99.10954783 121.86765322 98.79216406 123.4180866 98.48339844 124.97021484 C97.31139545 130.53785645 95.7081402 134.2918598 91.6875 138.3125 C88.36445973 140.39906017 86.85796288 140.70860543 83 140 C77.99321745 136.89579482 75.89306028 133.48218098 73.46875 128.18359375 C72.86201855 125.35723639 73.70728908 124.53879386 75 122 C75.44255609 120.39528993 75.83382396 118.775893 76.18359375 117.1484375 C76.38919922 116.21386719 76.59480469 115.27929688 76.80664062 114.31640625 C77.01482422 113.34574219 77.22300781 112.37507813 77.4375 111.375 C78.99896183 104.13415178 80.79054506 97.07283243 83 90 C79.7 89.34 76.4 88.68 73 88 C72.67 88.66 72.34 89.32 72 90 C72 89.34 72 88.68 72 88 C68.91598103 88.6602122 68.91598103 88.6602122 67.89453125 90.90625 C67.53746094 91.7621875 67.18039063 92.618125 66.8125 93.5 C64.58151053 98.66721573 62.26777404 103.78123762 59.875 108.875 C59.36996948 109.96264648 59.36996948 109.96264648 58.85473633 111.07226562 C54.00588286 121.41968297 54.00588286 121.41968297 49.75 123.875 C45.48118144 125.15564557 43.24993598 125.33794281 39 124 C35.4336681 120.58872601 33.36607564 117.94202111 33 113 C33.76902653 110.49632715 34.58518695 108.25850118 35.625 105.875 C35.90206787 105.21338867 36.17913574 104.55177734 36.46459961 103.87011719 C38.85977853 98.1941816 41.40079038 92.58501055 44 87 C44.93924936 84.93829606 45.87678263 82.87580936 46.8125 80.8125 C47.54166667 79.20833333 48.27083333 77.60416667 49 76 C48.13375 75.7525 47.2675 75.505 46.375 75.25 C42.81278075 73.93065954 40.11628654 72.14735711 37 70 C36.68361572 70.45737549 36.36723145 70.91475098 36.04125977 71.38598633 C20.57220129 93.68728225 20.57220129 93.68728225 13 101 C13.33 101.66 13.66 102.32 14 103 C12.35 102.67 10.7 102.34 9 102 C9 102.66 9 103.32 9 104 C7.68 104 6.36 104 5 104 C5 103.34 5 102.68 5 102 C4.071875 101.79375 3.14375 101.5875 2.1875 101.375 C-1 100 -1 100 -2.9375 97.3125 C-4.30006734 93.06449592 -4.33948094 91.30043882 -3 87 C-1.26391592 84.27893557 0.63492766 81.74305895 2.6015625 79.18359375 C5.7884701 74.9534151 8.67617579 70.55008932 11.58569336 66.12695312 C13.63953901 63.01379026 15.7158298 59.94946248 18 57 C16.4404735 53.17207132 14.16368164 50.63640136 11 48 C7.31959724 48.26504958 5.37514363 50.17927266 2.75 52.625 C1.95980469 53.34945312 1.16960938 54.07390625 0.35546875 54.8203125 C-0.42183594 55.53960937 -1.19914062 56.25890625 -2 57 C-4.63854375 59.3670043 -7.31086042 61.69073887 -10 64 C-10.81726563 64.71929687 -11.63453125 65.43859375 -12.4765625 66.1796875 C-21.04962036 73.45772151 -21.04962036 73.45772151 -27 73 C-30.83298934 71.009794 -33.95567875 68.8614957 -36 65 C-36.68117183 60.62103821 -35.7917735 57.47026415 -33.44140625 53.703125 C-31.23639979 51.09775151 -28.53616355 49.57810009 -25.64453125 47.80859375 C-21.81142056 45.18713105 -18.53016473 42.05489168 -15.16210938 38.87011719 C-12.54758592 36.40045718 -9.93406567 34.08381386 -7 32 C-7.18828772 29.55519921 -7.18828772 29.55519921 -8 27 C-9.84971696 25.94978897 -9.84971696 25.94978897 -12 25 C-15.62181656 21.26843142 -17.91339146 17.08118849 -19 12 C-18.14124762 7.89707197 -15.81176187 5.05985851 -13 2 C-8.76911697 -0.55097359 -4.82207515 -0.6744161 0 0 Z " fill="#DBDBDB" transform="translate(43,10)"/>
<path d="M0 0 C4.35068018 -0.42653727 6.29388712 -0.57772872 9.75 2.25 C10.4925 3.1575 11.235 4.065 12 5 C12.5775 5.680625 13.155 6.36125 13.75 7.0625 C16.92447132 11.98293054 16.42580883 17.58708332 15.4375 23.1875 C13.76210785 26.46544117 11.99439521 27.38776681 8.74609375 28.98828125 C6.19346429 30.46732159 4.74870482 32.66839358 3 35 C2.34 35 1.68 35 1 35 C2.01575614 38.55514648 3.28176947 40.43437392 6.125 42.6875 C7.07375 43.450625 8.0225 44.21375 9 45 C9 45.66 9 46.32 9 47 C9.53496094 47.22171875 10.06992187 47.4434375 10.62109375 47.671875 C13.8117928 49.45321766 16.38311226 51.79745613 19.0625 54.25 C19.59166016 54.71535156 20.12082031 55.18070313 20.66601562 55.66015625 C24.07742707 58.7676653 26.27595066 61.62723817 28 66 C28 70.22083702 27.42284367 72.37255455 25.0625 75.875 C20.82073195 78.81826763 17.10562777 79.26247838 12 79 C7.45507148 77.41455982 4.85482787 73.70294998 1.81640625 70.11328125 C-3.27103602 64.19434304 -9.07675352 59.06168335 -15 54 C-18.16115776 55.36983503 -18.9927092 55.9890638 -21 59 C-23.625 60.1875 -23.625 60.1875 -26 61 C-24.56115891 64.07325281 -22.85033881 66.74371329 -20.875 69.5 C-16.79696281 75.25522576 -12.89562018 81.12042479 -9 87 C-8.26265625 88.01449219 -7.5253125 89.02898437 -6.765625 90.07421875 C-4.49410744 93.83830426 -4.62960304 95.69626743 -5.3203125 99.8828125 C-6.64470667 104.00822422 -9.56468575 106.01322145 -13 108.375 C-15.87247791 109.27264935 -17.15207417 109.05969333 -20 108 C-24.95940286 104.74029859 -28.18816099 100.6136473 -31.3203125 95.64453125 C-33.37606106 92.40792247 -35.55677824 89.26937726 -37.75 86.125 C-39.85553765 83.09747226 -41.95429197 80.06856204 -44 77 C-48.75481646 77.57634139 -51.97048212 79.55068521 -56 82 C-53.68348975 89.494592 -50.73143516 96.6794512 -47.71875 103.9140625 C-47.43418945 104.59992432 -47.14962891 105.28578613 -46.85644531 105.99243164 C-46.29490846 107.30871372 -45.71150359 108.61592568 -45.10449219 109.91186523 C-43.46606931 113.44858889 -42.62607254 115.94008065 -43.25 119.8125 C-43.35828125 120.56144531 -43.4665625 121.31039062 -43.578125 122.08203125 C-44 124 -44 124 -45 126 C-45.66 126 -46.32 126 -47 126 C-47 126.66 -47 127.32 -47 128 C-48.20703125 129.61328125 -48.20703125 129.61328125 -50 131 C-52.26171875 131.29296875 -52.26171875 131.29296875 -54.6875 131.1875 C-55.89986328 131.14689453 -55.89986328 131.14689453 -57.13671875 131.10546875 C-57.75160156 131.07066406 -58.36648437 131.03585938 -59 131 C-59.33 130.01 -59.66 129.02 -60 128 C-60.5878125 127.47535156 -61.175625 126.95070313 -61.78125 126.41015625 C-65.03085256 122.88021826 -66.60654247 118.80961443 -68.5 114.4375 C-68.89437256 113.54305176 -69.28874512 112.64860352 -69.69506836 111.72705078 C-77 95.00623362 -77 95.00623362 -77 91 C-77.61488281 91.20496094 -78.22976562 91.40992187 -78.86328125 91.62109375 C-83.93164062 93.31054688 -83.93164062 93.31054688 -89 95 C-89.28271836 102.50970631 -87.9270429 109.35879777 -86.421875 116.69140625 C-83.37560286 132.29267143 -83.37560286 132.29267143 -86.875 138.125 C-89 140 -89 140 -91 140 C-91 139.34 -91 138.68 -91 138 C-90.34 138 -89.68 138 -89 138 C-86.3514003 130.05420091 -88.0648341 121.82238616 -90.26953125 113.9765625 C-91.23917605 110.02538959 -91.54556897 106.13445926 -91.7890625 102.08203125 C-91.77713235 100.01212398 -91.77713235 100.01212398 -93 99 C-93.04080783 97.00041636 -93.04254356 94.99954746 -93 93 C-91.72942818 92.52014033 -90.45853152 92.0411407 -89.1875 91.5625 C-88.47980469 91.29566406 -87.77210938 91.02882813 -87.04296875 90.75390625 C-82.81395478 89.19329498 -79.51314033 88.91484641 -75 89 C-74.22872431 90.99982945 -73.4580035 92.99987291 -72.6875 95 C-72.22730469 96.19238281 -71.76710937 97.38476562 -71.29296875 98.61328125 C-70.33216017 101.12996111 -69.40485751 103.65076074 -68.5 106.1875 C-64.54181631 117.59490768 -64.54181631 117.59490768 -57 126 C-52.9869676 126.53507099 -51.46071967 126.33051628 -48.125 123.9375 C-45.82574436 121.16573827 -45.82574436 121.16573827 -45.3125 117.9375 C-46.14996022 113.14113694 -48.06292723 109.60710089 -50.34375 105.3359375 C-52.62409895 100.7429705 -54.21479103 95.99037349 -55.82421875 91.12890625 C-56.90201454 87.97377953 -56.90201454 87.97377953 -58.6640625 85.234375 C-60 83 -60 83 -59.6875 80.6875 C-59.460625 80.130625 -59.23375 79.57375 -59 79 C-57.68 79 -56.36 79 -55 79 C-55 78.34 -55 77.68 -55 77 C-53.78074525 76.29507107 -52.5489894 75.61174099 -51.3125 74.9375 C-50.62800781 74.55464844 -49.94351563 74.17179687 -49.23828125 73.77734375 C-46.3332011 72.76842412 -44.91796756 73.05495289 -42 74 C-40.16650391 75.99023437 -40.16650391 75.99023437 -38.4765625 78.59375 C-37.53296875 80.016875 -37.53296875 80.016875 -36.5703125 81.46875 C-35.92835938 82.4690625 -35.28640625 83.469375 -34.625 84.5 C-27.46414916 97.63073258 -27.46414916 97.63073258 -16.375 105.875 C-12.15483608 104.78088343 -10.5361408 103.53522657 -8 100 C-7.30125329 94.77778774 -8.98505019 91.66687662 -11.875 87.5 C-12.27340088 86.90413086 -12.67180176 86.30826172 -13.08227539 85.69433594 C-14.3701591 83.78313752 -15.68101935 81.8898542 -17 80 C-17.45391113 79.34708984 -17.90782227 78.69417969 -18.37548828 78.02148438 C-23.29263075 70.68481485 -23.29263075 70.68481485 -29 64 C-29 60 -29 60 -26.953125 57.9296875 C-25.61507812 56.91261719 -25.61507812 56.91261719 -24.25 55.875 C-23.36828125 55.19179688 -22.4865625 54.50859375 -21.578125 53.8046875 C-19.41568412 52.29097889 -17.36473001 51.14092258 -15 50 C-14.5875 50.41773682 -14.175 50.83547363 -13.75 51.26586914 C-3.93171149 61.31794689 -3.93171149 61.31794689 6.51171875 70.703125 C8 72 8 72 10 74.4375 C12.70083954 76.54753089 14.72919684 76.57349794 18.09375 76.37890625 C20.2072382 76.0758868 20.2072382 76.0758868 22.5 74.4375 C24.60248778 71.02095736 24.54531303 68.95351948 24 65 C21.6009856 60.20197121 18.10820835 57.17788318 14.07421875 53.78515625 C12.11568059 52.09955938 10.30558682 50.3469046 8.5 48.5 C4.85099458 44.78357646 0.9577764 41.38209983 -3 38 C-1.35009794 33.70402861 1.81742807 30.99482354 5.0625 27.875 C10.33648648 23.19440101 10.33648648 23.19440101 12.1875 16.6875 C11.96243069 12.261137 11.34146189 9.55609579 8.4375 6.1875 C4.65700437 4.34572008 1.12331548 4.27067368 -3 5 C-5.77791995 6.61144529 -7.77892173 8.74463117 -9.94140625 11.09765625 C-10.55338364 11.72473984 -11.16536102 12.35182343 -11.79588318 12.99790955 C-13.74046712 14.99919766 -15.65164497 17.02903358 -17.5625 19.0625 C-19.47939212 21.05955438 -21.40270992 23.05027392 -23.32623291 25.04093933 C-24.56158779 26.32036783 -25.79465478 27.60200968 -27.02532959 28.88594055 C-32.97020261 35.07091752 -39.24070127 40.57476081 -46.125 45.6875 C-47.09695313 46.41324219 -48.06890625 47.13898437 -49.0703125 47.88671875 C-57.54528651 54 -57.54528651 54 -60 54 C-60 54.66 -60 55.32 -60 56 C-61.0725 56.45375 -62.145 56.9075 -63.25 57.375 C-65.3289113 58.25518422 -67.27330413 59.15183563 -69.25 60.25 C-71 61 -71 61 -74 60 C-73.00742188 59.46632812 -72.01484375 58.93265625 -70.9921875 58.3828125 C-58.81376532 51.73935124 -46.37369185 44.37369185 -36.5 34.5 C-34 32 -34 32 -31.5625 30.125 C-28.82073926 27.85134475 -26.73252921 25.38164456 -24.46484375 22.65234375 C-23 21 -23 21 -20.5625 19.0625 C-18.24329257 17.19582085 -16.54143608 15.38289462 -14.625 13.125 C-6.06696429 3.14994748 -6.06696429 3.14994748 0 2 C0 1.34 0 0.68 0 0 Z " fill="#DFDFDF" transform="translate(311,8)"/>
<path d="M0 0 C3.62211849 0.66320479 6.24839949 2.21477558 9.375 4.125 C43.926005 24.64492614 84.2683286 32.30343303 123.66796875 22.62060547 C130.51063886 20.79961851 137.18848716 18.61235219 143.71484375 15.8515625 C146 15 146 15 149 15 C148.67 15.99 148.34 16.98 148 18 C146.25341797 18.84375 146.25341797 18.84375 143.9921875 19.5 C143.16976562 19.7475 142.34734375 19.995 141.5 20.25 C140.63375 20.4975 139.7675 20.745 138.875 21 C137.18385898 21.49648177 135.49373254 21.99643378 133.8046875 22.5 C132.97807617 22.74621094 132.15146484 22.99242188 131.29980469 23.24609375 C128.77018439 24.02843669 128.77018439 24.02843669 125.5703125 25.5625 C115.02005396 29.8103065 103.7245154 29.40379946 92.52490234 29.42553711 C89.66544283 29.43733316 86.80821862 29.48654035 83.94921875 29.53710938 C54.20932275 29.79716342 23.50101082 19.3903458 0 1 C0 0.67 0 0.34 0 0 Z " fill="#B3B3B3" transform="translate(88,54)"/>
<path d="M0 0 C0.12117188 0.86882812 0.24234375 1.73765625 0.3671875 2.6328125 C0.61855469 4.36144531 0.61855469 4.36144531 0.875 6.125 C1.11863281 7.83042969 1.11863281 7.83042969 1.3671875 9.5703125 C1.97589301 12.86934608 2.92344678 15.82944522 4 19 C4.39019386 20.93056702 4.74603268 22.86848644 5.0625 24.8125 C5.38148233 28.2126844 5.38148233 28.2126844 7 31 C7.12375 32.093125 7.2475 33.18625 7.375 34.3125 C8.04807668 38.83829769 8.04807668 38.83829769 11 42 C13.99208765 42.62711606 16.94896304 42.87207392 20 43 C17.72327944 45.40607968 16.35596682 46.58050415 13 47 C8.76505809 45.5883527 7.10986223 42.74397121 5 39 C1.88979062 31.63733619 0.9406242 23.49727754 -0.3515625 15.66015625 C-0.89602936 12.06876819 -0.89602936 12.06876819 -2 9 C-2 6.69 -2 4.38 -2 2 C-6.62 2.33 -11.24 2.66 -16 3 C-15.98839844 4.39089844 -15.97679687 5.78179687 -15.96484375 7.21484375 C-15.9284767 13.14372767 -15.94883928 19.07126002 -16 25 C-16.00580078 25.86786133 -16.01160156 26.73572266 -16.01757812 27.62988281 C-16.04534203 29.94261603 -16.10904309 32.25099896 -16.1875 34.5625 C-16.19322021 35.24497803 -16.19894043 35.92745605 -16.20483398 36.63061523 C-16.37747863 40.42258041 -16.95806982 41.94983233 -19.42578125 44.90234375 C-23.24916676 48.01790978 -23.24916676 48.01790978 -26.12890625 47.94921875 C-26.93199219 47.86285156 -27.73507813 47.77648437 -28.5625 47.6875 C-29.36816406 47.60886719 -30.17382812 47.53023437 -31.00390625 47.44921875 C-31.66261719 47.30097656 -32.32132813 47.15273437 -33 47 C-33.33 46.34 -33.66 45.68 -34 45 C-32.87851563 45.03480469 -32.87851563 45.03480469 -31.734375 45.0703125 C-30.25710937 45.09738281 -30.25710937 45.09738281 -28.75 45.125 C-27.28820312 45.15980469 -27.28820312 45.15980469 -25.796875 45.1953125 C-22.67440365 45.15705089 -22.67440365 45.15705089 -19 43 C-19 29.14 -19 15.28 -19 1 C-12.44359063 0.40396278 -6.48674492 -0.12239141 0 0 Z " fill="#C7C7C7" transform="translate(200,105)"/>
<path d="M0 0 C4.45768233 -0.43702768 6.34650802 -0.51445113 9.9375 2.3125 C12 5 12 5 12 8 C11.01 7.01 11.01 7.01 10 6 C5.7404593 4.62868609 1.41120108 4.21374602 -3 5 C-5.77590954 6.61447085 -7.77904359 8.74476376 -9.94140625 11.09765625 C-10.55338364 11.72473984 -11.16536102 12.35182343 -11.79588318 12.99790955 C-13.74046712 14.99919766 -15.65164497 17.02903358 -17.5625 19.0625 C-19.47939212 21.05955438 -21.40270992 23.05027392 -23.32623291 25.04093933 C-24.56158779 26.32036783 -25.79465478 27.60200968 -27.02532959 28.88594055 C-32.97020261 35.07091752 -39.24070127 40.57476081 -46.125 45.6875 C-47.09695313 46.41324219 -48.06890625 47.13898437 -49.0703125 47.88671875 C-57.54528651 54 -57.54528651 54 -60 54 C-60 54.66 -60 55.32 -60 56 C-61.60875 56.680625 -61.60875 56.680625 -63.25 57.375 C-65.3289113 58.25518422 -67.27330413 59.15183563 -69.25 60.25 C-71 61 -71 61 -74 60 C-73.00742188 59.46632812 -72.01484375 58.93265625 -70.9921875 58.3828125 C-58.81376532 51.73935124 -46.37369185 44.37369185 -36.5 34.5 C-34 32 -34 32 -31.5625 30.125 C-28.82073926 27.85134475 -26.73252921 25.38164456 -24.46484375 22.65234375 C-23 21 -23 21 -20.5625 19.0625 C-18.24329257 17.19582085 -16.54143608 15.38289462 -14.625 13.125 C-6.06696429 3.14994748 -6.06696429 3.14994748 0 2 C0 1.34 0 0.68 0 0 Z " fill="#D9D9D9" transform="translate(311,8)"/>
<path d="M0 0 C5.92863717 1.16651426 11.38798394 2.75519358 17 5 C17.13834712 8.45867797 17.23067387 11.33656617 16.0859375 14.62890625 C14.42332132 19.79019318 13.86684651 25.08937013 13.14453125 30.45117188 C12.96470703 31.69157227 12.96470703 31.69157227 12.78125 32.95703125 C12.67876953 33.70960205 12.57628906 34.46217285 12.47070312 35.23754883 C12.23770508 36.10996216 12.23770508 36.10996216 12 37 C11.01 37.495 11.01 37.495 10 38 C9.89175157 39.6026782 9.81429355 41.20745748 9.75 42.8125 C9.68039063 44.15248047 9.68039063 44.15248047 9.609375 45.51953125 C9.76739706 48.12504296 9.76739706 48.12504296 11.8125 49.78125 C14.51379383 51.28625656 16.9467631 51.65304126 20 52 C20 52.33 20 52.66 20 53 C16.92676468 53.35460408 14.06211056 53.50241883 11 53 C7.36953148 49.18335361 6.20013575 45.00056563 5 40 C5.66 39.34 6.32 38.68 7 38 C7.69083015 35.8495946 7.69083015 35.8495946 8.18359375 33.34375 C8.38919922 32.40273437 8.59480469 31.46171875 8.80664062 30.4921875 C9.11891602 29.01105469 9.11891602 29.01105469 9.4375 27.5 C10.99241294 20.22084922 12.74665467 13.09721185 15 6 C14.40058594 5.85691406 13.80117187 5.71382813 13.18359375 5.56640625 C11 5 11 5 8.0625 3.9375 C5.16137251 3.04939975 3.0039585 2.82329656 0 3 C0 2.01 0 1.02 0 0 Z " fill="#D6D6D6" transform="translate(111,94)"/>
<path d="M0 0 C0.70180531 1.4096347 1.38593958 2.82807641 2.0625 4.25 C2.44535156 5.03890625 2.82820313 5.8278125 3.22265625 6.640625 C4.08564091 9.25993522 3.93045933 10.44855176 3 13 C1.15172566 9.3874638 -0.55049545 5.7910119 -2 2 C-2.61488281 2.20496094 -3.22976562 2.40992187 -3.86328125 2.62109375 C-7.2421875 3.74739583 -10.62109375 4.87369792 -14 6 C-14.28271836 13.50970631 -12.9270429 20.35879777 -11.421875 27.69140625 C-8.37560286 43.29267143 -8.37560286 43.29267143 -11.875 49.125 C-14 51 -14 51 -16 51 C-16 50.34 -16 49.68 -16 49 C-15.34 49 -14.68 49 -14 49 C-11.3514003 41.05420091 -13.0648341 32.82238616 -15.26953125 24.9765625 C-16.23917605 21.02538959 -16.54556897 17.13445926 -16.7890625 13.08203125 C-16.77713235 11.01212398 -16.77713235 11.01212398 -18 10 C-18.04080783 8.00041636 -18.04254356 5.99954746 -18 4 C-16.72942818 3.52014033 -15.45853152 3.0411407 -14.1875 2.5625 C-13.47980469 2.29566406 -12.77210938 2.02882813 -12.04296875 1.75390625 C-7.81395478 0.19329498 -4.51314033 -0.08515359 0 0 Z " fill="#DEDEDD" transform="translate(236,97)"/>
<path d="M0 0 C0.66 0 1.32 0 2 0 C2.12117187 0.72445312 2.24234375 1.44890625 2.3671875 2.1953125 C3.3860376 8.16976033 3.3860376 8.16976033 5 14 C6.28132121 17.84396363 6.88307742 21.71372203 7.53515625 25.70703125 C7.77110435 27.95527726 7.77110435 27.95527726 9 29 C9.12375 30.093125 9.2475 31.18625 9.375 32.3125 C10.04807668 36.83829769 10.04807668 36.83829769 13 40 C15.99208765 40.62711606 18.94896304 40.87207392 22 41 C19.72327944 43.40607968 18.35596682 44.58050415 15 45 C10.76505809 43.5883527 9.10986223 40.74397121 7 37 C3.88979062 29.63733619 2.9406242 21.49727754 1.6484375 13.66015625 C1.10397064 10.06876819 1.10397064 10.06876819 0 7 C-0.03954234 4.66700175 -0.04401732 2.33291811 0 0 Z " fill="#DAD9D9" transform="translate(198,107)"/>
<path d="M0 0 C1.32 0.33 2.64 0.66 4 1 C3.27296875 1.68835938 2.5459375 2.37671875 1.796875 3.0859375 C-1.10856803 5.99342374 -3.42992481 9.24426557 -5.75 12.625 C-10.98847053 20.10980276 -16.39761835 27.6459838 -23 34 C-22.67 34.66 -22.34 35.32 -22 36 C-23.65 35.67 -25.3 35.34 -27 35 C-27 35.66 -27 36.32 -27 37 C-28.32 37 -29.64 37 -31 37 C-31 36.34 -31 35.68 -31 35 C-31.804375 34.7525 -32.60875 34.505 -33.4375 34.25 C-36 33 -36 33 -36.8125 30.875 C-36.874375 30.25625 -36.93625 29.6375 -37 29 C-36.59523437 29.4846875 -36.19046875 29.969375 -35.7734375 30.46875 C-33.58947208 32.35446464 -32.47851 32.46104423 -29.625 32.5 C-28.87476563 32.5309375 -28.12453125 32.561875 -27.3515625 32.59375 C-21.44317555 31.10193137 -17.65566828 24.08740447 -14.1875 19.375 C-13.66704102 18.67439453 -13.14658203 17.97378906 -12.61035156 17.25195312 C-8.3674731 11.5302182 -4.16342088 5.77980781 0 0 Z " fill="#C7C7C7" transform="translate(79,77)"/>
<path d="M0 0 C3.35915158 1.43963639 5.71624938 3.12416589 8 6 C7.68705488 9.85416627 5.52170289 12.03114148 3.0625 14.875 C-1.55051537 20.35895267 -5.7154081 26.07444081 -9.8359375 31.93359375 C-11.09365236 33.71573484 -12.38936407 35.47426946 -13.7734375 37.16015625 C-15.20606527 39.30909791 -15.34977409 40.44578336 -15.25 43 C-15.22421875 43.6909375 -15.1984375 44.381875 -15.171875 45.09375 C-14.98704199 47.1437161 -14.65173869 49.04478392 -14 51 C-16.51096119 49.14407216 -17.04153747 47.85877262 -17.9375 44.8125 C-18.0691591 36.7812949 -13.00945231 31.59384915 -8.09375 25.66015625 C-5.28542693 22.09211892 -2.91583435 18.31178708 -0.54296875 14.4453125 C0.87251961 12.20203221 2.3767704 10.09606225 4 8 C3.71125 7.4225 3.4225 6.845 3.125 6.25 C2.08333333 4.16666667 1.04166667 2.08333333 0 0 Z " fill="#EAEAEA" transform="translate(57,59)"/>
<path d="M0 0 C-1 3 -1 3 -2.69897461 3.85961914 C-3.42608643 4.08254639 -4.15319824 4.30547363 -4.90234375 4.53515625 C-6.10697266 4.91172363 -6.10697266 4.91172363 -7.3359375 5.29589844 C-8.19445312 5.54887695 -9.05296875 5.80185547 -9.9375 6.0625 C-10.80761719 6.32708008 -11.67773438 6.59166016 -12.57421875 6.86425781 C-17.5388873 8.34882749 -22.48524235 9.76290399 -27.60791016 10.59057617 C-29.15407005 10.85521285 -30.69437798 11.15810077 -32.22387695 11.50634766 C-41.03360377 13.42039962 -49.72644664 13.22447342 -58.6875 13.125 C-60.27538495 13.11494496 -61.8632761 13.1058236 -63.45117188 13.09765625 C-67.30093725 13.07585443 -71.15039827 13.04146559 -75 13 C-75 12.67 -75 12.34 -75 12 C-74.2064209 11.9906543 -73.4128418 11.98130859 -72.59521484 11.97167969 C-49.31960116 11.62914433 -26.9941717 10.03494458 -5.28515625 0.8515625 C-3 0 -3 0 0 0 Z " fill="#F6F6F6" transform="translate(237,69)"/>
<path d="M0 0 C2.21484375 0.9765625 2.21484375 0.9765625 4.21484375 3.9765625 C3.26609375 3.6259375 2.31734375 3.2753125 1.33984375 2.9140625 C-1.69016292 2.46721303 -2.6430469 2.8768326 -5.1953125 4.66796875 C-7.79387894 7.04162063 -10.29664597 9.48805222 -12.78515625 11.9765625 C-15.4082135 14.36161078 -18.09244388 16.67070484 -20.78515625 18.9765625 C-21.60113281 19.69457031 -22.41710937 20.41257812 -23.2578125 21.15234375 C-31.83330364 28.43439732 -31.83330364 28.43439732 -37.78515625 27.9765625 C-43.30239763 25.21794181 -43.30239763 25.21794181 -44.66015625 21.7265625 C-44.70140625 21.1490625 -44.74265625 20.5715625 -44.78515625 19.9765625 C-44.29015625 20.6159375 -43.79515625 21.2553125 -43.28515625 21.9140625 C-40.01525088 24.61173443 -36.9398703 25.24341856 -32.78515625 24.9765625 C-30.11541439 23.51000027 -28.28017345 22.29363762 -26.03515625 20.3515625 C-25.20951172 19.69220703 -25.20951172 19.69220703 -24.3671875 19.01953125 C-21.87250124 16.97951203 -19.81049608 15.00842397 -17.796875 12.4765625 C-15.29339185 9.36543781 -12.48522009 7.0470694 -9.34765625 4.6015625 C-8.78755859 4.13878906 -8.22746094 3.67601562 -7.65039062 3.19921875 C-5.01787381 1.14112509 -3.39728075 -0.02858862 0 0 Z " fill="#C7C7C7" transform="translate(53.78515625,55.0234375)"/>
<path d="M0 0 C2.125 1.0625 2.125 1.0625 3.4375 3.625 C3.7778125 4.8315625 3.7778125 4.8315625 4.125 6.0625 C3.568125 5.711875 3.01125 5.36125 2.4375 5 C-0.57627866 3.77819784 -1.78629385 4.05687474 -4.875 5.0625 C-7.28143901 6.30081341 -9.55894208 7.65470009 -11.875 9.0625 C-10.50970239 13.38594243 -9.07325216 17.63435909 -7.33984375 21.82421875 C-6.93306396 22.81023071 -6.93306396 22.81023071 -6.51806641 23.81616211 C-5.97196584 25.12876186 -5.41845028 26.43830554 -4.85693359 27.74438477 C-3.36925871 31.3248348 -2.5414148 34.17808569 -2.875 38.0625 C-7.0383522 31.8174717 -9.43913814 24.71112453 -11.84765625 17.640625 C-12.82779258 14.97015252 -12.82779258 14.97015252 -14.515625 12.37890625 C-15.875 10.0625 -15.875 10.0625 -15.5625 7.75 C-15.335625 7.193125 -15.10875 6.63625 -14.875 6.0625 C-13.555 6.0625 -12.235 6.0625 -10.875 6.0625 C-10.875 5.4025 -10.875 4.7425 -10.875 4.0625 C-3.99880029 0.08693044 -3.99880029 0.08693044 0 0 Z " fill="#D7D7D7" transform="translate(266.875,80.9375)"/>
<path d="M0 0 C0.99 0.66 1.98 1.32 3 2 C0.03 1.505 0.03 1.505 -3 1 C-3.33 1.66 -3.66 2.32 -4 3 C-4 2.34 -4 1.68 -4 1 C-7.08401897 1.6602122 -7.08401897 1.6602122 -8.10546875 3.90625 C-8.46253906 4.7621875 -8.81960937 5.618125 -9.1875 6.5 C-9.61417969 7.48097656 -10.04085937 8.46195313 -10.48046875 9.47265625 C-10.98191406 10.63667969 -11.48335937 11.80070312 -12 13 C-13.30901903 15.99056794 -14.64816615 18.96607316 -16 21.9375 C-16.3199292 22.67097656 -16.6398584 23.40445313 -16.96948242 24.16015625 C-18.98475218 28.56782822 -20.84973221 31.24036013 -25 34 C-23.7347106 29.78236868 -22.06920454 26.02036763 -20.0625 22.125 C-19.0033184 20.00663681 -18.05783064 17.86410483 -17.125 15.6875 C-9.4258001 -1.81901405 -9.4258001 -1.81901405 0 0 Z " fill="#D4D4D4" transform="translate(119,97)"/>
<path d="M0 0 C0.33 0 0.66 0 1 0 C1.01458252 1.03406982 1.02916504 2.06813965 1.04418945 3.13354492 C1.10230882 6.98236082 1.17954023 10.83059999 1.26245117 14.67895508 C1.29563655 16.34227108 1.32368834 18.00569796 1.34643555 19.66918945 C1.38009999 22.06509499 1.4324194 24.45999035 1.48828125 26.85546875 C1.49467117 27.5952446 1.5010611 28.33502045 1.50764465 29.09721375 C1.63359173 33.55342056 2.28230306 36.43724491 5 40 C8.21596441 42.32880181 11.10878524 42.3242679 15 42 C17.30230766 41.10168984 17.30230766 41.10168984 19 40 C17.84826645 42.46800047 16.95216435 44.04783565 15 46 C12.90625 46.265625 12.90625 46.265625 10.5 46.25 C9.7059375 46.25515625 8.911875 46.2603125 8.09375 46.265625 C6 46 6 46 4 44 C0.66080372 38.93775328 -0.55223894 35.49218698 -0.8125 29.3125 C-0.84400146 28.59715088 -0.87550293 27.88180176 -0.90795898 27.14477539 C-1.21190252 18.08570423 -0.60734125 9.03536905 0 0 Z " fill="#FAFAFA" transform="translate(161,110)"/>
<path d="M0 0 C0 3 0 3 -1.22143555 4.59790039 C-5.77636606 9.04598924 -10.57910749 12.81996849 -15.8125 16.4375 C-16.57498047 16.97826172 -17.33746094 17.51902344 -18.12304688 18.07617188 C-23.73347622 22 -23.73347622 22 -26 22 C-26 22.66 -26 23.32 -26 24 C-27.60875 24.680625 -27.60875 24.680625 -29.25 25.375 C-31.3289113 26.25518422 -33.27330413 27.15183563 -35.25 28.25 C-37 29 -37 29 -40 28 C-39.00742188 27.46632813 -38.01484375 26.93265625 -36.9921875 26.3828125 C-23.65156742 19.10535969 -10.65441148 10.95882323 0 0 Z " fill="#E7E7E7" transform="translate(277,40)"/>
<path d="M0 0 C3.52144115 1.89114432 6.32851614 4.0316846 9 7 C8.67 7.99 8.34 8.98 8 10 C6.8274869 9.04882866 5.66212985 8.08882991 4.5 7.125 C3.52546875 6.32449219 3.52546875 6.32449219 2.53125 5.5078125 C2.0259375 5.01023437 1.520625 4.51265625 1 4 C1 3.34 1 2.68 1 2 C-5.87090836 1.82837416 -5.87090836 1.82837416 -12.03125 4.4140625 C-15.25003017 7.99574436 -16.76047597 11.08975743 -17 16 C-18.125 14.3125 -18.125 14.3125 -19 12 C-17.83196742 7.44467296 -15.21625877 3.33627367 -11.140625 0.87890625 C-7.46236058 -0.63133005 -3.90215358 -0.56228949 0 0 Z " fill="#DCDCDC" transform="translate(43,10)"/>
<path d="M0 0 C5.61 0.66 11.22 1.32 17 2 C17 14.87 17 27.74 17 41 C16.67 41 16.34 41 16 41 C15.67 28.79 15.34 16.58 15 4 C10.71 3.67 6.42 3.34 2 3 C1.34 3.66 0.68 4.32 0 5 C0 3.35 0 1.7 0 0 Z " fill="#E5E5E5" transform="translate(146,104)"/>
<path d="M0 0 C5.16955862 3.92423078 5.10240098 11.97759577 6 18 C6.55666225 23.14912582 6.83404802 26.60991996 4.125 31.125 C2 33 2 33 0 33 C0 32.34 0 31.68 0 31 C0.66 31 1.32 31 2 31 C4.67446625 22.97660126 2.95371272 14.50723272 0.65625 6.59375 C0 4 0 4 0 0 Z " fill="#DFDFDE" transform="translate(220,115)"/>
<path d="M0 0 C3.61547682 0.57923924 5.29805731 1.92983973 7.86328125 4.4921875 C8.58580078 5.19730469 9.30832031 5.90242188 10.05273438 6.62890625 C11.54944492 8.11656151 13.04426442 9.60612195 14.53710938 11.09765625 C18.81928382 15.26964165 22.30690558 18.08976752 28 20 C28 20.33 28 20.66 28 21 C23.26684169 21.33022035 20.75836728 20.93335983 17 18 C15.21587673 16.09120305 13.52048335 14.12608616 11.8359375 12.12890625 C9.06141312 8.91163862 6.03567957 5.96805304 3 3 C1.99885255 2.00114876 0.99849511 1.00150263 0 0 Z " fill="#E2E2E2" transform="translate(301,66)"/>
<path d="M0 0 C5.92863717 1.16651426 11.38798394 2.75519358 17 5 C17.19610961 9.90274017 16.62170683 13.40516398 15 18 C14.26111735 21.31997948 13.62118397 24.65617992 13 28 C12.06020618 24.96143341 12.00124192 22.79304528 12.55859375 19.671875 C12.69716797 18.87265625 12.83574219 18.0734375 12.97851562 17.25 C13.12998047 16.425 13.28144531 15.6 13.4375 14.75 C13.58509766 13.90953125 13.73269531 13.0690625 13.88476562 12.203125 C14.2491936 10.13411456 14.62362541 8.06687061 15 6 C14.40058594 5.85691406 13.80117187 5.71382813 13.18359375 5.56640625 C11 5 11 5 8.0625 3.9375 C5.16137251 3.04939975 3.0039585 2.82329656 0 3 C0 2.01 0 1.02 0 0 Z " fill="#BBBBBB" transform="translate(111,94)"/>
<path d="M0 0 C4.2742558 1.5830577 6.26531794 4.50568404 9 8 C5.73045798 7.43628586 4.17424117 6.50037734 2 4 C-1.16115776 5.36983503 -1.9927092 5.9890638 -4 9 C-5.7634375 9.495 -5.7634375 9.495 -7.5625 10 C-8.696875 10.33 -9.83125 10.66 -11 11 C-11.33 11.99 -11.66 12.98 -12 14 C-12 12.68 -12 11.36 -12 10 C-9.8828125 7.9296875 -9.8828125 7.9296875 -7.125 5.875 C-3.41959866 3.10179294 -3.41959866 3.10179294 0 0 Z " fill="#CCCCCB" transform="translate(294,58)"/>
<path d="M0 0 C-0.33 0.99 -0.66 1.98 -1 3 C-2.76245117 3.87548828 -2.76245117 3.87548828 -5.04296875 4.5703125 C-5.86990234 4.82683594 -6.69683594 5.08335938 -7.54882812 5.34765625 C-8.41958984 5.60417969 -9.29035156 5.86070313 -10.1875 6.125 C-11.03892578 6.38925781 -11.89035156 6.65351562 -12.76757812 6.92578125 C-17.1563521 8.26311841 -21.44024013 9.38805187 -26 10 C-25.01 9.67 -24.02 9.34 -23 9 C-23 8.34 -23 7.68 -23 7 C-21.97519531 6.66226563 -20.95039063 6.32453125 -19.89453125 5.9765625 C-18.53382737 5.5261226 -17.17315178 5.07559724 -15.8125 4.625 C-14.80219727 4.29242188 -14.80219727 4.29242188 -13.77148438 3.953125 C-10.87436315 2.99212869 -8.01861158 2.00773536 -5.19921875 0.8359375 C-3 0 -3 0 0 0 Z " fill="#D3D3D3" transform="translate(237,69)"/>
<path d="M0 0 C3.57040303 0.65902299 6.17732255 2.16229158 9.25 4.0625 C10.14203125 4.61035156 11.0340625 5.15820312 11.953125 5.72265625 C12.96632813 6.35494141 12.96632813 6.35494141 14 7 C12.51911112 10.77948596 10.84952557 14.3850182 9 18 C8.34 17.67 7.68 17.34 7 17 C8.33333333 13.66666667 9.66666667 10.33333333 11 7 C10.113125 6.773125 9.22625 6.54625 8.3125 6.3125 C4.56619468 4.82811487 2.66270566 2.97596515 0 0 Z " fill="#EBEBEB" transform="translate(81,79)"/>
<path d="M0 0 C0.66 0 1.32 0 2 0 C0.26056068 7.43214983 -2.47877721 14.61551829 -9 19 C-6.99517715 12.31725715 -3.96142407 5.76207138 0 0 Z " fill="#E2E2E2" transform="translate(103,112)"/>
<path d="M0 0 C1.9375 0.5625 1.9375 0.5625 4 2 C5.10197645 5.89365013 5.40880406 8.08019087 3.75 11.8125 C2 14 2 14 -1 16 C-3.04296875 16.1953125 -3.04296875 16.1953125 -5.1875 16.125 C-6.445625 16.08375 -7.70375 16.0425 -9 16 C-9 15.67 -9 15.34 -9 15 C-7.906875 14.731875 -6.81375 14.46375 -5.6875 14.1875 C-1.55027317 13.03170284 -1.55027317 13.03170284 1 10 C1.26641894 6.27013478 1.1845131 3.55353929 0 0 Z " fill="#C7C7C7" transform="translate(334,70)"/>
<path d="M0 0 C4.45768233 -0.43702768 6.34650802 -0.51445113 9.9375 2.3125 C12 5 12 5 12 8 C11.34 7.34 10.68 6.68 10 6 C6.61215901 4.78678667 3.31840018 4.89871304 -0.25 4.9375 C-1.32765625 4.94652344 -2.4053125 4.95554687 -3.515625 4.96484375 C-4.74539063 4.98224609 -4.74539063 4.98224609 -6 5 C-2.25 2 -2.25 2 0 2 C0 1.34 0 0.68 0 0 Z " fill="#EFEFEF" transform="translate(311,8)"/>
<path d="M0 0 C1.32 0.33 2.64 0.66 4 1 C3.01 1.8971875 3.01 1.8971875 2 2.8125 C-1.5852696 6.34655147 -4.29137931 10.53687105 -7.1328125 14.671875 C-9 17 -9 17 -12 18 C-10.40330002 14.48227036 -8.29445992 11.53755154 -6 8.4375 C-3.94366773 5.65162338 -1.9209375 2.88140624 0 0 Z " fill="#C2C2C2" transform="translate(79,77)"/>
<path d="M0 0 C5.44520865 0.76539077 10.8818902 1.57444465 16.3125 2.4375 C17.12267578 2.55931641 17.93285156 2.68113281 18.76757812 2.80664062 C24.77146112 3.77146112 24.77146112 3.77146112 27 6 C24.24968413 5.85888117 21.49984582 5.71228835 18.75 5.5625 C17.58404297 5.50352539 17.58404297 5.50352539 16.39453125 5.44335938 C15.64042969 5.40146484 14.88632813 5.35957031 14.109375 5.31640625 C13.41811523 5.27974854 12.72685547 5.24309082 12.01464844 5.20532227 C9.93371671 4.99324476 8.01427578 4.55491323 6 4 C6 3.34 6 2.68 6 2 C3.03 1.505 3.03 1.505 0 1 C0 0.67 0 0.34 0 0 Z " fill="#E1E1E1" transform="translate(135,76)"/>
<path d="M0 0 C0.70180531 1.4096347 1.38593958 2.82807641 2.0625 4.25 C2.44535156 5.03890625 2.82820312 5.8278125 3.22265625 6.640625 C4.08564091 9.25993522 3.93045933 10.44855176 3 13 C1.14010268 9.36474615 -0.47903372 5.80241571 -2 2 C-5.63 2.33 -9.26 2.66 -13 3 C-8.48332093 -0.01111938 -5.3360009 -0.10067926 0 0 Z " fill="#C3C3C3" transform="translate(236,97)"/>
<path d="M0 0 C6.30367803 0.58367389 11.98660063 2.04071619 18 4 C18 4.66 18 5.32 18 6 C20.97 6.495 20.97 6.495 24 7 C20.55559783 8.19309111 18.62372653 7.80482315 15.234375 6.56640625 C14.34492188 6.24736328 13.45546875 5.92832031 12.5390625 5.59960938 C11.61867187 5.25736328 10.69828125 4.91511719 9.75 4.5625 C8.81414062 4.22412109 7.87828125 3.88574219 6.9140625 3.53710938 C4.60571366 2.70092178 2.30144809 1.85495944 0 1 C0 0.67 0 0.34 0 0 Z " fill="#CACACA" transform="translate(117,71)"/>
<path d="M0 0 C0.33 0 0.66 0 1 0 C1.185625 1.155 1.37125 2.31 1.5625 3.5 C2.68383797 8.08285954 5.03137349 10.78009669 8.24609375 14.140625 C9.99774362 15.99760793 11.50493374 17.93342523 13 20 C11.68 19.67 10.36 19.34 9 19 C9 18.34 9 17.68 9 17 C8.4225 16.773125 7.845 16.54625 7.25 16.3125 C3.85777937 14.33370463 1.74506529 11.49013058 0 8 C-0.13415472 5.3276379 -0.04318541 2.67749512 0 0 Z " fill="#D5D5D5" transform="translate(26,20)"/>
<path d="M0 0 C0 3 0 3 -2.3359375 5.69921875 C-3.34119508 6.70314662 -4.35458968 7.6989775 -5.375 8.6875 C-5.88289063 9.19861328 -6.39078125 9.70972656 -6.9140625 10.23632812 C-10.73300859 14 -10.73300859 14 -13 14 C-13 15.98 -13 17.96 -13 20 C-13.33 20 -13.66 20 -14 20 C-14.4834932 16.61123072 -14.77928001 14.06658153 -12.6875 11.20361328 C-10.85829858 9.39431668 -8.96926343 7.71812591 -7 6.0625 C-6.33226562 5.47404297 -5.66453125 4.88558594 -4.9765625 4.27929688 C-3.33217998 2.83458938 -1.6742096 1.40991093 0 0 Z " fill="#616161" transform="translate(23,55)"/>
<path d="M0 0 C0.639375 0.474375 1.27875 0.94875 1.9375 1.4375 C5.92181519 3.47031387 9.58494074 3.7210529 14 4 C11.72327944 6.40607968 10.35596682 7.58050415 7 8 C3.28631113 6.76210371 2.22645819 5.14775123 0 2 C0 1.34 0 0.68 0 0 Z " fill="#F0F0F0" transform="translate(206,144)"/>
<path d="M0 0 C0.99 0.495 0.99 0.495 2 1 C2.625 3.5625 2.625 3.5625 3 6 C3.66 6 4.32 6 5 6 C8.42857143 14.42857143 8.42857143 14.42857143 8 19 C5.24020259 15.71414149 3.81690532 12.37771204 2.3125 8.375 C1.87550781 7.22773437 1.43851563 6.08046875 0.98828125 4.8984375 C0 2 0 2 0 0 Z " fill="#EBEBEB" transform="translate(236,104)"/>
<path d="M0 0 C5.875 3.875 5.875 3.875 7 5 C8.51469448 5.23192865 10.03754562 5.41215238 11.5625 5.5625 C12.38878906 5.64628906 13.21507812 5.73007813 14.06640625 5.81640625 C14.70449219 5.87699219 15.34257812 5.93757813 16 6 C13.85631725 7.98489144 12.65641495 8.98225906 9.6875 9.0625 C5.82400872 7.53507321 2.80957652 5.05247939 0 2 C0 1.34 0 0.68 0 0 Z " fill="#EEEEEE" transform="translate(284,108)"/>
<path d="M0 0 C2.3125 1 2.3125 1 3.625 3.5625 C3.9653125 4.7690625 3.9653125 4.7690625 4.3125 6 C3.50039063 5.49339844 3.50039063 5.49339844 2.671875 4.9765625 C-0.29809117 3.74727187 -2.26382809 3.99718192 -5.4375 4.375 C-6.42234375 4.48585938 -7.4071875 4.59671875 -8.421875 4.7109375 C-9.16953125 4.80632812 -9.9171875 4.90171875 -10.6875 5 C-9.6975 4.34 -8.7075 3.68 -7.6875 3 C-6.90375 2.443125 -6.12 1.88625 -5.3125 1.3125 C-2.6875 0 -2.6875 0 0 0 Z " fill="#C9C9C9" transform="translate(266.6875,81)"/>
<path d="M0 0 C-0.97309748 2.17075592 -1.7275461 3.7609078 -3.53125 5.34375 C-5.4200861 7.47371411 -5.48399034 8.87906664 -5.6875 11.6875 C-5.78611328 12.89986328 -5.78611328 12.89986328 -5.88671875 14.13671875 C-5.92410156 14.75160156 -5.96148437 15.36648437 -6 16 C-8 14 -8 14 -8.375 11.3125 C-7.88000465 6.9400411 -6.43680024 4.65520036 -4 1 C-2 0 -2 0 0 0 Z " fill="#F1F1F1" transform="translate(15,61)"/>
<path d="M0 0 C-1.36125 0.8353125 -1.36125 0.8353125 -2.75 1.6875 C-7.06003521 4.75425582 -9.56476635 7.07771806 -10.75 12.3125 C-10.8325 13.199375 -10.915 14.08625 -11 15 C-12.125 13.3125 -12.125 13.3125 -13 11 C-11.78069087 6.24469439 -9.02651954 2.35101303 -4.9375 -0.375 C-3 -1 -3 -1 0 0 Z " fill="#F7F7F7" transform="translate(37,11)"/>
<path d="M0 0 C2.375 0.875 2.375 0.875 4.375 3.875 C3.34375 3.58625 2.3125 3.2975 1.25 3 C-2.46390377 2.49084042 -2.46390377 2.49084042 -4.42578125 4.14453125 C-5.90252947 5.64947514 -7.27194774 7.25793754 -8.625 8.875 C-9.285 8.545 -9.945 8.215 -10.625 7.875 C-4.50326087 -0.21444099 -4.50326087 -0.21444099 0 0 Z " fill="#CECFCE" transform="translate(53.625,55.125)"/>
<path d="M0 0 C2.49361571 1.20381448 4.68143083 2.45428722 7 4 C7.36328125 6.09375 7.36328125 6.09375 7.3125 8.5 C7.30863281 9.2940625 7.30476563 10.088125 7.30078125 10.90625 C7 13 7 13 5 15 C4.83564453 13.87851562 4.83564453 13.87851562 4.66796875 12.734375 C4.50941406 11.74953125 4.35085938 10.7646875 4.1875 9.75 C3.96126953 8.28820312 3.96126953 8.28820312 3.73046875 6.796875 C2.96781736 3.87677662 1.96225899 2.25794185 0 0 Z " fill="#B7B7B7" transform="translate(319,13)"/>
<path d="M0 0 C3.35915158 1.43963639 5.71624938 3.12416589 8 6 C7.875 8.1875 7.875 8.1875 7 10 C6.01 10.495 6.01 10.495 5 11 C4.731875 10.071875 4.46375 9.14375 4.1875 8.1875 C3.06289965 5.1688359 2.29293427 4.0844857 0 2 C0 1.34 0 0.68 0 0 Z " fill="#E0E0E0" transform="translate(57,59)"/>
<path d="M0 0 C0 3 0 3 -1.57421875 4.97265625 C-2.62029297 6.00712891 -2.62029297 6.00712891 -3.6875 7.0625 C-4.37199219 7.75472656 -5.05648438 8.44695313 -5.76171875 9.16015625 C-8.09475633 11.07788871 -10.15419589 12.03810824 -13 13 C-9.13242719 8.04467233 -4.81123996 4.03523352 0 0 Z " fill="#5C5C5C" transform="translate(285,35)"/>
<path d="M0 0 C-1.125 1.5 -1.125 1.5 -3 3 C-6.0625 3.375 -6.0625 3.375 -9 3 C-9.66 2.01 -10.32 1.02 -11 0 C-3.57142857 -1.28571429 -3.57142857 -1.28571429 0 0 Z " fill="#EFEFEF" transform="translate(135,147)"/>
<path d="M0 0 C0.33 0.99 0.66 1.98 1 3 C-0.14453125 5.04296875 -0.14453125 5.04296875 -1.8125 7.1875 C-2.62654297 8.26064453 -2.62654297 8.26064453 -3.45703125 9.35546875 C-3.96621094 9.89816406 -4.47539063 10.44085938 -5 11 C-5.66 11 -6.32 11 -7 11 C-5.5140084 6.40693504 -3.14985318 3.56430755 0 0 Z " fill="#F0F0F0" transform="translate(61,68)"/>
<path d="M0 0 C3.78717347 1.48781815 5.77407001 3.61988409 8 7 C7.67 7.99 7.34 8.98 7 10 C5.82438854 8.90536178 4.6597511 7.79892814 3.5 6.6875 C2.52546875 5.76517578 2.52546875 5.76517578 1.53125 4.82421875 C0 3 0 3 0 0 Z " fill="#DADADA" transform="translate(70,36)"/>
<path d="M0 0 C0.66 0 1.32 0 2 0 C6.59225513 9.41002278 6.59225513 9.41002278 6 14 C4.31821339 11.47732009 3.09893258 9.18908177 1.875 6.4375 C1.52179688 5.65246094 1.16859375 4.86742188 0.8046875 4.05859375 C0 2 0 2 0 0 Z " fill="#CBCBCB" transform="translate(258,105)"/>
<path d="M0 0 C3.3 0 6.6 0 10 0 C9.67 0.99 9.34 1.98 9 3 C6.03 3 3.06 3 0 3 C0 2.01 0 1.02 0 0 Z " fill="#FCFCFC" transform="translate(252,136)"/>
<path d="M0 0 C0.66 0 1.32 0 2 0 C0.55218207 3.44428265 -1.27694609 5.36130962 -4.125 7.75 C-5.21167969 8.67039062 -5.21167969 8.67039062 -6.3203125 9.609375 C-6.87460937 10.06828125 -7.42890625 10.5271875 -8 11 C-8.66 10.67 -9.32 10.34 -10 10 C-9.36191406 9.44570313 -8.72382813 8.89140625 -8.06640625 8.3203125 C-7.24011719 7.59585938 -6.41382813 6.87140625 -5.5625 6.125 C-4.73878906 5.40570313 -3.91507813 4.68640625 -3.06640625 3.9453125 C-0.94017845 2.16761255 -0.94017845 2.16761255 0 0 Z " fill="#E3E3E3" transform="translate(37,40)"/>
<path d="M0 0 C0.33 0 0.66 0 1 0 C1.36923077 7.38461538 1.36923077 7.38461538 -0.5 10.5 C-0.995 10.995 -1.49 11.49 -2 12 C-3.32 11.67 -4.64 11.34 -6 11 C-4.7934375 9.948125 -4.7934375 9.948125 -3.5625 8.875 C-0.76566189 5.73708407 -0.28691249 4.11241237 0 0 Z " fill="#D3D3D3" transform="translate(304,102)"/>
<path d="M0 0 C0.99 0.33 1.98 0.66 3 1 C0.69 3.31 -1.62 5.62 -4 8 C-4.99 7.67 -5.98 7.34 -7 7 C-4.69 4.69 -2.38 2.38 0 0 Z " fill="#DEDEDE" transform="translate(304,13)"/>
<path d="M0 0 C0.33 0 0.66 0 1 0 C1.05422947 1.4370809 1.09289723 2.87475462 1.125 4.3125 C1.14820313 5.11300781 1.17140625 5.91351563 1.1953125 6.73828125 C1 9 1 9 -1 12 C-2.32 11.67 -3.64 11.34 -5 11 C-4.360625 10.29875 -3.72125 9.5975 -3.0625 8.875 C-0.83613898 5.77158767 -0.34919057 3.75379861 0 0 Z " fill="#C0C1C1" transform="translate(138,134)"/>
<path d="M0 0 C0.95651196 2.58258228 1.03620881 3.8650399 0.3125 6.5625 C-1.12035293 9.22351258 -2.47085828 10.39821025 -5 12 C-3.68938409 7.76570244 -2.05643741 3.92592596 0 0 Z " fill="#C4C4C4" transform="translate(99,119)"/>
<path d="M0 0 C3.39536357 0.60631492 5.30660868 1.89578803 8 4 C9.31836295 4.69580267 10.64791086 5.37224433 12 6 C7.36574638 6.32332002 4.71316711 5.8644432 1 3 C0.67 2.01 0.34 1.02 0 0 Z " fill="#F1F1F1" transform="translate(317,81)"/>
<path d="M0 0 C4.38889325 0.66498383 7.9811485 2.18757677 12 4 C12 4.33 12 4.66 12 5 C7.6822542 4.49202991 3.96697886 3.80317221 0 2 C0 1.34 0 0.68 0 0 Z " fill="#DBDBDB" transform="translate(109,66)"/>
<path d="M0 0 C0.66 0.33 1.32 0.66 2 1 C-0.80804268 3.96404505 -3.18315774 6.44499019 -7 8 C-7 7.34 -7 6.68 -7 6 C-5.46875 4.4921875 -5.46875 4.4921875 -3.5 2.875 C-2.8503125 2.33617188 -2.200625 1.79734375 -1.53125 1.2421875 C-1.0259375 0.83226562 -0.520625 0.42234375 0 0 Z " fill="#B8B8B8" transform="translate(42,62)"/>
<path d="M0 0 C1.45792884 -0.05399736 2.91642712 -0.09279177 4.375 -0.125 C5.18710937 -0.14820312 5.99921875 -0.17140625 6.8359375 -0.1953125 C9 0 9 0 11 2 C9.35 1.67 7.7 1.34 6 1 C6 1.66 6 2.32 6 3 C4.68 3 3.36 3 2 3 C2 2.34 2 1.68 2 1 C1.34 0.67 0.68 0.34 0 0 Z " fill="#F5F5F5" transform="translate(46,111)"/>
<path d="M0 0 C0.99 0.33 1.98 0.66 3 1 C0.36 3.64 -2.28 6.28 -5 9 C-5 4.61031544 -2.87194899 3.23094261 0 0 Z " fill="#D1D1D1" transform="translate(296,21)"/>
<path d="M0 0 C0.33 0 0.66 0 1 0 C1.08131463 1.43655854 1.13933559 2.8744483 1.1875 4.3125 C1.22230469 5.11300781 1.25710937 5.91351563 1.29296875 6.73828125 C1 9 1 9 -0.38671875 10.79296875 C-2 12 -2 12 -4 12 C-4 11.34 -4 10.68 -4 10 C-3.34 10 -2.68 10 -2 10 C-1.34 6.7 -0.68 3.4 0 0 Z " fill="#C6C6C6" transform="translate(224,136)"/>
<path d="M0 0 C3.96 0.33 7.92 0.66 12 1 C12 1.33 12 1.66 12 2 C10.95199219 2.07347656 10.95199219 2.07347656 9.8828125 2.1484375 C8.97273437 2.22320312 8.06265625 2.29796875 7.125 2.375 C6.22007812 2.44460937 5.31515625 2.51421875 4.3828125 2.5859375 C1.82058097 2.79568132 1.82058097 2.79568132 0 5 C0 3.35 0 1.7 0 0 Z " fill="#D7D7D7" transform="translate(146,104)"/>
<path d="M0 0 C0.66 0.33 1.32 0.66 2 1 C0.25 6.75 0.25 6.75 -2 9 C-2.25 3.375 -2.25 3.375 0 0 Z " fill="#DBDBDB" transform="translate(88,96)"/>
<path d="M0 0 C6.625 0.75 6.625 0.75 10 3 C7.03 2.505 7.03 2.505 4 2 C3.67 2.66 3.34 3.32 3 4 C3 3.34 3 2.68 3 2 C1.68 2.33 0.36 2.66 -1 3 C-0.67 2.01 -0.34 1.02 0 0 Z " fill="#F9F9F9" transform="translate(112,96)"/>
<path d="M0 0 C3.36720387 1.39332574 4.9859524 2.9789286 7 6 C6.67 6.66 6.34 7.32 6 8 C4.99403703 7.0479279 3.99538437 6.08812654 3 5.125 C2.443125 4.59132813 1.88625 4.05765625 1.3125 3.5078125 C0 2 0 2 0 0 Z " fill="#ECECEC" transform="translate(330,64)"/>
<path d="M0 0 C0.99 0.495 0.99 0.495 2 1 C1.67 1.66 1.34 2.32 1 3 C0.67 2.01 0.34 1.02 0 0 Z " fill="#FEFEFE" transform="translate(268,89)"/>
<path d="" fill="#FFFFFF" transform="translate(0,0)"/>
<path d="M0 0 C2 1 2 1 2 1 Z " fill="#FEFEFE" transform="translate(84,84)"/>
<path d="" fill="#FFFFFF" transform="translate(0,0)"/>
<path d="" fill="#FEFEFE" transform="translate(0,0)"/>
<path d="" fill="#FEFEFE" transform="translate(0,0)"/>
<path d="" fill="#FEFEFE" transform="translate(0,0)"/>
<path d="" fill="#FFFFFF" transform="translate(0,0)"/>
<path d="" fill="#FFFFFF" transform="translate(0,0)"/>
<path d="" fill="#FFFFFF" transform="translate(0,0)"/>
<path d="" fill="#FEFEFE" transform="translate(0,0)"/>
<path d="" fill="#FEFEFE" transform="translate(0,0)"/>
<path d="" fill="#FEFEFE" transform="translate(0,0)"/>
<path d="" fill="#FFFFFF" transform="translate(0,0)"/>
<path d="" fill="#FFFFFF" transform="translate(0,0)"/>
<path d="" fill="#FEFEFE" transform="translate(0,0)"/>
<path d="" fill="#FEFEFE" transform="translate(0,0)"/>
<path d="" fill="#FDFDFD" transform="translate(0,0)"/>
<path d="" fill="#FDFDFD" transform="translate(0,0)"/>
<path d="" fill="#FEFEFE" transform="translate(0,0)"/>
<path d="" fill="#FEFEFE" transform="translate(0,0)"/>
<path d="" fill="#FEFEFE" transform="translate(0,0)"/>
<path d="" fill="#FEFEFE" transform="translate(0,0)"/>
<path d="" fill="#FEFEFE" transform="translate(0,0)"/>
<path d="" fill="#FEFEFE" transform="translate(0,0)"/>
<path d="" fill="#FEFEFE" transform="translate(0,0)"/>
<path d="" fill="#FFFFFF" transform="translate(0,0)"/>
<path d="" fill="#FEFEFE" transform="translate(0,0)"/>
<path d="" fill="#FEFEFE" transform="translate(0,0)"/>
<path d="" fill="#FFFFFF" transform="translate(0,0)"/>
<path d="" fill="#FFFFFF" transform="translate(0,0)"/>
</svg>
