<?xml version="1.0" encoding="UTF-8"?>
<svg version="1.1" xmlns="http://www.w3.org/2000/svg" width="356" height="238">
<path d="M0 0 C4.04647154 0.64743545 7.79979569 2.47547688 11 5 C13.50696891 8.57826313 14.40170691 11.15130867 14.58203125 15.5 C14.62787354 16.54679932 14.67371582 17.59359863 14.72094727 18.67211914 C14.75115967 19.77031982 14.78137207 20.86852051 14.8125 22 C14.85109131 23.11818115 14.88968262 24.2363623 14.92944336 25.38842773 C15.12857058 33.14649175 14.82259925 40.42340973 13 48 C15.97 48.495 15.97 48.495 19 49 C19.33 48.34 19.66 47.68 20 47 C20.598125 47.33 21.19625 47.66 21.8125 48 C24.05386471 49.20787988 24.05386471 49.20787988 27 49 C27.58656892 46.56324295 28.1690195 44.12559082 28.75 41.6875 C29.02287842 40.55779785 29.02287842 40.55779785 29.30126953 39.40527344 C30.29636812 35.22397046 31.19488212 31.04892922 31.9453125 26.81640625 C32.10161133 25.97053955 32.25791016 25.12467285 32.41894531 24.25317383 C32.71700136 22.61721632 32.99585865 20.97761329 33.25292969 19.3347168 C34.01498398 15.24935592 34.76428155 12.77076883 38 10.0390625 C44.07432652 5.9104187 44.07432652 5.9104187 46.9375 6.1875 C51.31434506 7.91171169 54.58274274 9.89066266 57 14 C58.17734769 18.07890581 57.80593035 21.00529013 56.85546875 25.11328125 C56.59056641 26.27923828 56.32566406 27.44519531 56.05273438 28.64648438 C55.62444336 30.46116211 55.62444336 30.46116211 55.1875 32.3125 C54.91357422 33.51068359 54.63964844 34.70886719 54.35742188 35.94335938 C52.97067783 41.97918777 51.52832991 47.99850938 50 54 C53.72965139 56.03435531 55.66905042 57 60 57 C60 57.66 60 58.32 60 59 C60.99 59 61.98 59 63 59 C63.25136719 58.19175781 63.50273437 57.38351563 63.76171875 56.55078125 C73.94939631 27.33753551 73.94939631 27.33753551 85.4375 20.5625 C88 20 88 20 91.0625 21.0625 C94.30431066 23.20071554 96.08375773 24.60972522 98 28 C99.32104203 35.53805993 96.48775025 41.47669823 93.25 48.125 C92.8065625 49.07503906 92.363125 50.02507813 91.90625 51.00390625 C89.98139801 55.08572473 88.00607008 59.06612122 85.671875 62.9296875 C83.68118285 66.00282538 83.68118285 66.00282538 84 70 C85.40453643 70.89434157 86.82421869 71.76493192 88.25 72.625 C89.03890625 73.11226563 89.8278125 73.59953125 90.640625 74.1015625 C92.94155067 75.25157928 92.94155067 75.25157928 95.12109375 74.3671875 C97.13969721 72.89834922 98.36768104 71.53190677 99.8125 69.5 C100.32425781 68.7884375 100.83601563 68.076875 101.36328125 67.34375 C101.90339844 66.5703125 102.44351562 65.796875 103 65 C103.85658203 63.77796875 103.85658203 63.77796875 104.73046875 62.53125 C105.31441406 61.6959375 105.89835937 60.860625 106.5 60 C107.0878125 59.16210938 107.675625 58.32421875 108.28125 57.4609375 C109.3772884 55.89160979 110.46191106 54.31420347 111.53125 52.7265625 C114.83390898 48.00094939 117.59434701 45.1812284 123 43 C127.13996766 43 129.15685076 43.31216772 132.375 45.9375 C135.63835517 50.07945079 135.59937651 53.87575291 135 59 C132.905502 63.67234169 130.16656505 67.10582594 126.78515625 70.90234375 C118.38434304 79.87855062 118.38434304 79.87855062 114 90.3125 C115.45836598 94.23185858 117.92649025 96.18806555 121 99 C124.6120275 97.43394612 127.25523483 95.23242043 130.1875 92.625 C131.06792969 91.85414062 131.94835937 91.08328125 132.85546875 90.2890625 C134.99447935 88.00589272 135.54214215 86.99864651 136 84 C137.68096205 81.73070123 138.5309075 81.07818208 141.34375 80.609375 C144.34762572 79.92025057 145.84122497 78.82437377 148.25 76.9375 C152.23388878 74.18861674 155.13591068 73.11141621 159.984375 73.484375 C163.52069006 74.38901374 164.98386159 76.03879671 167 79 C168.30552254 83.07015851 168.31173375 86.01393245 166.75 89.9375 C164.19810581 94.49944783 160.36354675 96.89058782 156.10546875 99.76953125 C150.64679252 103.69016538 145.86698586 108.37933628 141 113 C142.14643107 117.76521603 143.35746627 120.91173701 146.625 124.5625 C148.80954013 127.26239093 149.91897529 128.63907173 150.6875 132.0625 C148.68421971 140.62197032 143.73593765 145.78820304 137.5625 151.6875 C136.81162109 152.42033203 136.06074219 153.15316406 135.28710938 153.90820312 C133.83727905 155.32232963 132.38381796 156.73274592 130.92626953 158.13891602 C127.89120283 161.07127513 124.90652601 164.04566891 122 167.10546875 C109.64208771 179.97024853 93.88598834 190.90345058 78 199 C77.42523926 199.29543701 76.85047852 199.59087402 76.25830078 199.89526367 C71.49857681 202.31470272 66.68258913 204.51947992 61.75 206.5625 C61.0170874 206.86696045 60.2841748 207.1714209 59.52905273 207.48510742 C54.18803589 209.6479889 48.87723879 211.23561406 43.22265625 212.39453125 C40.8166566 212.85241196 40.8166566 212.85241196 39 215 C36.375 215.125 36.375 215.125 34 215 C33.67 215.66 33.34 216.32 33 217 C27.12284079 217.94792891 21.42425278 218.07473022 15.48046875 217.9375 C13.12309789 217.99689832 11.25989943 218.37453288 9 219 C0.60662206 220.32269185 -7.40036371 220.73873643 -15.65112305 218.5637207 C-20.33952463 217.43852382 -25.11642786 216.76042102 -29.875 216 C-37.28304318 214.80725846 -44.65375077 213.53157178 -52 212 C-52 211.34 -52 210.68 -52 210 C-53.1446875 209.74347656 -54.289375 209.48695313 -55.46875 209.22265625 C-60.03829858 208.07524983 -64.21521817 206.37673316 -68.5 204.4375 C-69.27537109 204.08888916 -70.05074219 203.74027832 -70.84960938 203.38110352 C-88.49565299 195.29572653 -105.37892535 184.96160151 -119 171 C-120.51542622 169.63978503 -122.03705382 168.28646825 -123.5625 166.9375 C-129.61655532 161.52691463 -135.29772261 155.77486649 -141 150 C-141.89847656 149.10539063 -142.79695313 148.21078125 -143.72265625 147.2890625 C-148.06645624 142.92291019 -151.00100449 138.89177624 -153 133 C-152.64096784 128.95447692 -151.4230202 126.88389542 -148.6875 123.9375 C-147.74583984 122.90302734 -147.74583984 122.90302734 -146.78515625 121.84765625 C-145.45285057 120.46870529 -144.05394929 119.15353358 -142.625 117.875 C-140.46158467 115.37875154 -140.29395597 113.23351567 -140 110 C-139.505 110.99 -139.505 110.99 -139 112 C-138.34 112 -137.68 112 -137 112 C-138.63473516 108.87525373 -138.63473516 108.87525373 -141.125 108.3125 C-141.74375 108.209375 -142.3625 108.10625 -143 108 C-143 107.01 -143 106.02 -143 105 C-143.61875 104.9175 -144.2375 104.835 -144.875 104.75 C-147.68982269 103.75653317 -147.71884533 102.62036771 -149 100 C-150.35896314 98.36966101 -150.35896314 98.36966101 -151.93359375 96.87109375 C-152.50013672 96.31099609 -153.06667969 95.75089844 -153.65039062 95.17382812 C-154.24013672 94.60083984 -154.82988281 94.02785156 -155.4375 93.4375 C-156.02337891 92.86064453 -156.60925781 92.28378906 -157.21289062 91.68945312 C-158.30557787 90.61412981 -159.40031484 89.54088225 -160.49780273 88.47045898 C-160.99352783 87.98520752 -161.48925293 87.49995605 -162 87 C-162.545354 86.52183838 -163.09070801 86.04367676 -163.65258789 85.55102539 C-165.62673187 83.27855996 -165.65631359 80.99568881 -165.54296875 78.0703125 C-164.66576933 74.72559531 -162.72019825 73.13889348 -159.99609375 71.1328125 C-155.7148166 68.70312488 -152.40007282 68.68300238 -147.6875 69.75 C-143.03398393 72.00939088 -140.02999296 76.22140816 -136.7109375 80.06640625 C-133.13957698 83.93109177 -129.23437988 87.02131292 -125.0546875 90.22265625 C-124.37664062 90.80917969 -123.69859375 91.39570312 -123 92 C-123 92.66 -123 93.32 -123 94 C-120.66045537 94.33483064 -120.66045537 94.33483064 -118 94 C-115.89565138 92.28429733 -115.89565138 92.28429733 -114.1875 90 C-113.58292969 89.2575 -112.97835937 88.515 -112.35546875 87.75 C-111.68451172 86.88375 -111.68451172 86.88375 -111 86 C-112.09830005 84.05916841 -113.20386505 82.12244672 -114.3125 80.1875 C-114.92738281 79.10855469 -115.54226562 78.02960938 -116.17578125 76.91796875 C-117.65391256 74.55359169 -118.92510556 72.81952282 -121 71 C-121.99 71.495 -121.99 71.495 -123 72 C-123.20625 71.05125 -123.4125 70.1025 -123.625 69.125 C-124.57590317 65.66399213 -126.16298823 63.05641891 -128.125 60.0625 C-131.0753163 55.26186187 -132.20963434 52.58292774 -131 47 C-128.38481492 43.66563903 -125.37863085 41.58591811 -121.5 39.9375 C-117.75859495 40.03103513 -115.26849162 41.21718639 -112 43 C-108.18653572 47.35174652 -105.15736813 52.22778005 -102 57.0625 C-100.05144474 60.02873431 -100.05144474 60.02873431 -97.75 62.6875 C-96 65 -96 65 -96 68 C-94.515 68.495 -94.515 68.495 -93 69 C-92.3125 71.0625 -92.3125 71.0625 -92 73 C-89.02982306 72.37189827 -89.02982306 72.37189827 -86 71 C-84.56076801 68.49004504 -84.56076801 68.49004504 -84 66 C-82.68 66 -81.36 66 -80 66 C-83.63292932 57.16371083 -87.26811445 48.32873681 -90.95703125 39.515625 C-91.30121094 38.68546875 -91.64539063 37.8553125 -92 37 C-92.56460938 35.70835938 -92.56460938 35.70835938 -93.140625 34.390625 C-94.4023998 30.88059691 -93.95737762 28.57420976 -93 25 C-89.53859221 20.91731389 -87.5818151 19.15818151 -82.25 18.625 C-78.92994288 18.37664927 -77.82003738 19.11889561 -74.9609375 21.0078125 C-71.40347987 24.17785761 -69.98195265 27.84973435 -68.375 32.25 C-67.78467786 33.77375687 -67.19353964 35.29719784 -66.6015625 36.8203125 C-66.32602539 37.54508789 -66.05048828 38.26986328 -65.76660156 39.01660156 C-64.83686275 41.42207868 -63.81460529 43.77636695 -62.75 46.125 C-61.11925544 49.73091362 -59.54959826 53.35844409 -58 57 C-57.31292969 56.7834375 -56.62585938 56.566875 -55.91796875 56.34375 C-55.01691406 56.0653125 -54.11585937 55.786875 -53.1875 55.5 C-52.29417969 55.2215625 -51.40085937 54.943125 -50.48046875 54.65625 C-48 54 -48 54 -45 54 C-45.18175781 53.319375 -45.36351562 52.63875 -45.55078125 51.9375 C-47.77606599 43.3558891 -49.43953314 34.72090698 -51 26 C-51.66 26 -52.32 26 -53 26 C-53.08160748 24.10489301 -53.13946459 22.20875496 -53.1875 20.3125 C-53.23970703 18.72888672 -53.23970703 18.72888672 -53.29296875 17.11328125 C-52.96014995 13.57652677 -52.14447226 11.80659042 -50 9 C-45.61314941 6.59964779 -41.99405288 5.25620489 -37 6 C-32.97594014 8.16680147 -30.74602472 9.80649084 -29 14 C-28.60039379 15.53051789 -28.24622452 17.07359441 -27.9375 18.625 C-27.46377026 20.98190335 -27.07671842 22.84656316 -26 25 C-25.76254684 27.06923467 -25.52899907 29.13900111 -25.31640625 31.2109375 C-24.6299208 40.37134642 -24.6299208 40.37134642 -22 49 C-20.02 49 -18.04 49 -16 49 C-16 48.34 -16 47.68 -16 47 C-14.34385343 46.61781233 -12.67542976 46.28604898 -11 46 C-10.67 46.33 -10.34 46.66 -10 47 C-9.9727585 45.58344207 -9.95349533 44.16672955 -9.9375 42.75 C-9.92589844 41.96109375 -9.91429687 41.1721875 -9.90234375 40.359375 C-9.91298977 38.01639655 -9.91298977 38.01639655 -10.56640625 35.890625 C-11 34 -11 34 -10 31 C-9.37959458 26.93289778 -8.94399493 23.04987206 -9 18.9375 C-9 9.06879607 -9 9.06879607 -6.41015625 6.30078125 C-5.16777118 5.2514867 -3.89599304 4.2357325 -2.59375 3.26171875 C-0.85931379 2.07169851 -0.85931379 2.07169851 0 0 Z M-66.625 89.5625 C-67.337771 89.92384033 -68.05054199 90.28518066 -68.78491211 90.6574707 C-74.55645271 93.64419232 -79.80737143 97.09361887 -85 101 C-86.37389524 101.93911827 -87.74878558 102.87678363 -89.125 103.8125 C-90.07375 104.534375 -91.0225 105.25625 -92 106 C-92 106.66 -92 107.32 -92 108 C-92.598125 108.2475 -93.19625 108.495 -93.8125 108.75 C-96.29836688 110.17049536 -97.40882737 111.65112611 -99 114 C-100 115 -100 115 -102.10546875 116.11328125 C-106.02185693 118.66606869 -109.06140654 121.84935357 -112.3125 125.1875 C-112.95767578 125.84169922 -113.60285156 126.49589844 -114.26757812 127.16992188 C-115.84970516 128.77548783 -117.4269513 130.3855469 -119 132 C-116.76996268 137.05110122 -112.92524884 140.40423774 -109.0625 144.25 C-108.33353516 144.99507812 -107.60457031 145.74015625 -106.85351562 146.5078125 C-106.15033203 147.21164063 -105.44714844 147.91546875 -104.72265625 148.640625 C-103.75984741 149.60790527 -103.75984741 149.60790527 -102.77758789 150.59472656 C-100.98542554 152.31008233 -100.98542554 152.31008233 -98 152 C-97.74089844 152.59167969 -97.48179688 153.18335938 -97.21484375 153.79296875 C-91.2133594 164.69598694 -72.53431032 174.33229027 -61.17578125 177.8828125 C-59.13389472 178.33798972 -57.06808255 178.68452978 -55 179 C-55.27972656 178.51273437 -55.55945313 178.02546875 -55.84765625 177.5234375 C-56.72351428 175.97449243 -57.58507859 174.41743413 -58.4375 172.85546875 C-59.51559611 170.88524811 -60.62164698 168.93015665 -61.75 166.98828125 C-71.79260435 148.69948669 -72.36345213 129.88082997 -67.2265625 110.0078125 C-65.14055207 103.55840409 -61.78061787 98.16387181 -57.99755859 92.59326172 C-55.73461985 89.5717897 -55.73461985 89.5717897 -55 86 C-59.65087689 86 -62.59791294 87.49560356 -66.625 89.5625 Z M53 86 C54.01884957 89.97351332 55.55950036 92.97958385 57.875 96.3125 C64.58163512 106.1771138 66.65984567 116.46104753 69 128 C69.66 128 70.32 128 71 128 C70.88512252 129.58409994 70.75765492 131.16728963 70.625 132.75 C70.55539063 133.63171875 70.48578125 134.5134375 70.4140625 135.421875 C69.99402777 138.03718559 69.19141887 139.66212147 68 142 C67.56746845 143.90871988 67.17612015 145.8269619 66.8125 147.75 C64.03175408 160.09651187 59.36904364 171.23933581 50 180 C50.33 180.66 50.66 181.32 51 182 C51.6290625 181.67386719 52.258125 181.34773438 52.90625 181.01171875 C53.7621875 180.57472656 54.618125 180.13773437 55.5 179.6875 C56.75296875 179.04361328 56.75296875 179.04361328 58.03125 178.38671875 C60.30521551 177.32453749 62.46150122 176.4743231 64.8203125 175.65625 C69.41168657 173.96779873 73.31537766 171.51241802 77.375 168.8125 C78.12104492 168.32056152 78.86708984 167.82862305 79.63574219 167.32177734 C90.05099218 160.38054055 98.82376234 152.42716801 107.53686523 143.49536133 C109.67311367 141.31206053 111.83633027 139.1560779 114 137 C114.598125 136.401875 115.19625 135.80375 115.8125 135.1875 C116.204375 134.795625 116.59625 134.40375 117 134 C115.81401867 129.10782703 112.84861779 126.90371426 109.14453125 123.8203125 C107.15105913 122.12822141 105.32458306 120.37072195 103.5 118.5 C100.44398763 115.39536925 97.25076228 112.5078867 93.94140625 109.67578125 C92.76053298 108.65647616 91.59630979 107.61685382 90.46484375 106.54296875 C84.89601994 101.37293539 78.24325442 97.82386107 71.71630859 94.01464844 C69.5704958 92.74608542 67.47079435 91.41179236 65.375 90.0625 C60.91298767 87.33571468 58.24447458 86 53 86 Z M-37 100 C-38.44586908 102.75279778 -38.44586908 102.75279778 -39 106 C-39.61875 107.794375 -39.61875 107.794375 -40.25 109.625 C-41.26657054 112.80125545 -41.26657054 112.80125545 -40.30078125 115.00390625 C-37.78925674 118.85792734 -34.13344488 121.11005786 -30 123 C-26.71063401 123.457004 -24.10989686 123.15717092 -21 122 C-18.25143676 119.88131584 -16.56807104 118.31093318 -15.1875 115.125 C-14.68671145 109.44939646 -14.47727341 105.69696879 -18 101 C-20.25762499 98.32770919 -21.77599427 97.52584681 -25.25 97.125 C-30.06710442 96.75566247 -32.90319281 97.40814239 -37 100 Z " fill="#383838" transform="translate(174,10)"/>
<path d="M0 0 C4.04647154 0.64743545 7.79979569 2.47547688 11 5 C13.50696891 8.57826313 14.40170691 11.15130867 14.58203125 15.5 C14.62787354 16.54679932 14.67371582 17.59359863 14.72094727 18.67211914 C14.75115967 19.77031982 14.78137207 20.86852051 14.8125 22 C14.85109131 23.11818115 14.88968262 24.2363623 14.92944336 25.38842773 C15.12857058 33.14649175 14.82259925 40.42340973 13 48 C15.97 48.495 15.97 48.495 19 49 C19.33 48.34 19.66 47.68 20 47 C20.598125 47.33 21.19625 47.66 21.8125 48 C24.05386471 49.20787988 24.05386471 49.20787988 27 49 C27.58656892 46.56324295 28.1690195 44.12559082 28.75 41.6875 C29.02287842 40.55779785 29.02287842 40.55779785 29.30126953 39.40527344 C30.29636812 35.22397046 31.19488212 31.04892922 31.9453125 26.81640625 C32.10161133 25.97053955 32.25791016 25.12467285 32.41894531 24.25317383 C32.71700136 22.61721632 32.99585865 20.97761329 33.25292969 19.3347168 C34.01498398 15.24935592 34.76428155 12.77076883 38 10.0390625 C44.07432652 5.9104187 44.07432652 5.9104187 46.9375 6.1875 C51.31434506 7.91171169 54.58274274 9.89066266 57 14 C58.17734769 18.07890581 57.80593035 21.00529013 56.85546875 25.11328125 C56.59056641 26.27923828 56.32566406 27.44519531 56.05273438 28.64648438 C55.62444336 30.46116211 55.62444336 30.46116211 55.1875 32.3125 C54.91357422 33.51068359 54.63964844 34.70886719 54.35742188 35.94335938 C52.97067783 41.97918777 51.52832991 47.99850938 50 54 C53.72965139 56.03435531 55.66905042 57 60 57 C60 57.66 60 58.32 60 59 C60.99 59 61.98 59 63 59 C63.25136719 58.19175781 63.50273437 57.38351563 63.76171875 56.55078125 C73.94939631 27.33753551 73.94939631 27.33753551 85.4375 20.5625 C88 20 88 20 91.0625 21.0625 C94.30431066 23.20071554 96.08375773 24.60972522 98 28 C99.32104203 35.53805993 96.48775025 41.47669823 93.25 48.125 C92.8065625 49.07503906 92.363125 50.02507813 91.90625 51.00390625 C89.98139801 55.08572473 88.00607008 59.06612122 85.671875 62.9296875 C83.68118285 66.00282538 83.68118285 66.00282538 84 70 C85.40453643 70.89434157 86.82421869 71.76493192 88.25 72.625 C89.03890625 73.11226563 89.8278125 73.59953125 90.640625 74.1015625 C92.94155067 75.25157928 92.94155067 75.25157928 95.12109375 74.3671875 C97.13969721 72.89834922 98.36768104 71.53190677 99.8125 69.5 C100.32425781 68.7884375 100.83601563 68.076875 101.36328125 67.34375 C101.90339844 66.5703125 102.44351562 65.796875 103 65 C103.85658203 63.77796875 103.85658203 63.77796875 104.73046875 62.53125 C105.31441406 61.6959375 105.89835937 60.860625 106.5 60 C107.0878125 59.16210938 107.675625 58.32421875 108.28125 57.4609375 C109.3772884 55.89160979 110.46191106 54.31420347 111.53125 52.7265625 C114.83390898 48.00094939 117.59434701 45.1812284 123 43 C127.13996766 43 129.15685076 43.31216772 132.375 45.9375 C134.82185798 49.04312744 135.11806344 50.73555894 135.0625 54.625 C135.05347656 55.44226563 135.04445313 56.25953125 135.03515625 57.1015625 C135.01775391 58.04128906 135.01775391 58.04128906 135 59 C134.67 59 134.34 59 134 59 C133.67 55.7 133.34 52.4 133 49 C129.57360069 47.28680034 126.03175192 46.13735689 122.16796875 46.24609375 C117.00620889 48.04108412 114.04853891 53.73826703 111 58 C109.43846511 60.04240491 107.87597892 62.08408288 106.3125 64.125 C102.70311522 68.97550656 99.27313545 73.91701318 96 79 C91.65136348 78.43555175 88.82172345 76.84572036 85.1875 74.4375 C83.72376953 73.47650391 83.72376953 73.47650391 82.23046875 72.49609375 C81.49441406 72.00238281 80.75835937 71.50867188 80 71 C80.53703902 66.21677242 81.92122207 62.90785371 84.3125 58.75 C86.98574696 53.96658263 89.23454457 49.27790127 91.078125 44.12109375 C92 42 92 42 93.578125 40.03515625 C96.12995006 36.38268137 95.75074368 32.2636575 95 28 C92.46508106 24.86862955 90.92509607 24.17345551 87 23.4375 C82.82325922 24.2206389 81.59759486 25.65046979 79 29 C77.89535175 31.14183707 76.9512209 33.30618922 76.03515625 35.53515625 C74.94497916 38.13101188 73.7162659 40.61709195 72.4375 43.125 C70.46212721 47.03345931 68.67869501 50.95587111 67 55 C66.4390603 56.3131676 65.87658282 57.62567948 65.3125 58.9375 C64.879375 59.948125 64.44625 60.95875 64 62 C57.59859065 61.53444296 52.73230171 59.85288164 47 57 C47.33367829 47.10643857 49.24660816 38.44183953 52 29 C52.34187332 27.66883077 52.680016 26.33659984 53 25 C53.66 25 54.32 25 55 25 C54.7451971 23.03951648 54.47063056 21.08159327 54.1875 19.125 C54.03667969 18.03445312 53.88585937 16.94390625 53.73046875 15.8203125 C53.25334259 12.68761154 53.25334259 12.68761154 50 11 C44.98780237 10.53590763 41.93945797 10.80238801 38 14 C37.02247898 16.62594932 36.39595325 18.84631954 35.875 21.5625 C35.71596191 22.30322754 35.55692383 23.04395508 35.39306641 23.80712891 C34.05136946 30.22762655 32.97880386 36.70665011 32.03857422 43.19750977 C31.4989732 46.77085866 31.03670284 48.94494574 29 52 C23.06 51.67 17.12 51.34 11 51 C11 36.81 11 22.62 11 8 C6.72293099 5.86146549 4.68240915 5.6655422 0 6 C-2.35460678 6.67424167 -2.35460678 6.67424167 -4 8 C-5.30920503 11.9276151 -5.23462868 15.72570631 -5.31640625 19.82421875 C-5.3475779 21.11632011 -5.3475779 21.11632011 -5.37937927 22.43452454 C-5.44474909 25.18543544 -5.50370132 27.93644156 -5.5625 30.6875 C-5.60569717 32.55274421 -5.64931185 34.4179788 -5.69335938 36.28320312 C-5.80041763 40.85537124 -5.90172054 45.4276351 -6 50 C-12.38260084 50.68856324 -18.57864254 51.10357028 -25 51 C-26.70330131 43.94519172 -28.27181633 36.87968644 -29.625 29.75 C-29.75511475 29.07106689 -29.88522949 28.39213379 -30.01928711 27.69262695 C-30.70144648 24.01632166 -31.15665463 20.41756666 -31.375 16.6875 C-31.63517451 12.94753044 -31.63517451 12.94753044 -34.125 10.9375 C-38.33358132 9.56513653 -42.1136981 9.1317023 -46.21484375 11.01953125 C-46.80394531 11.34308594 -47.39304687 11.66664062 -48 12 C-48.30635491 18.43345309 -47.74888124 24.37193281 -46.625 30.6875 C-46.49891357 31.39962646 -46.37282715 32.11175293 -46.24291992 32.84545898 C-45.61663646 36.21207445 -44.87648624 39.41906454 -43.90625 42.7109375 C-43.09370154 45.65992802 -42.78179925 47.90847553 -42.875 50.9375 C-42.89304687 51.70964844 -42.91109375 52.48179688 -42.9296875 53.27734375 C-42.95289063 53.84582031 -42.97609375 54.41429687 -43 55 C-44.89091736 55.84442881 -46.78797515 56.67511587 -48.6875 57.5 C-49.74324219 57.9640625 -50.79898438 58.428125 -51.88671875 58.90625 C-54.85627816 59.94950801 -56.89195063 60.23065301 -60 60 C-64.64655 49.72048157 -68.96082267 39.36443356 -72.69140625 28.71484375 C-74.11405438 25.76337971 -75.1618647 24.58570059 -78 23 C-81.78079247 22.58754991 -84.35966379 22.76838903 -87.9375 24.0625 C-90.27605665 25.88796695 -90.27605665 25.88796695 -90.625 29 C-90.20646116 35.13420984 -86.67516992 40.77942684 -83.890625 46.1328125 C-83 48 -83 48 -82.125 51.1875 C-81.00439335 54.98511142 -79.53204242 58.33744568 -77.8046875 61.88671875 C-77 64 -77 64 -77 68 C-77.77085938 68.40992187 -78.54171875 68.81984375 -79.3359375 69.2421875 C-80.33882813 69.78101562 -81.34171875 70.31984375 -82.375 70.875 C-83.87160156 71.67550781 -83.87160156 71.67550781 -85.3984375 72.4921875 C-88.05348395 73.8820138 -88.05348395 73.8820138 -90 76 C-90.99 76 -91.98 76 -93 76 C-93.28190186 75.45980225 -93.56380371 74.91960449 -93.85424805 74.36303711 C-97.06063502 68.38851858 -100.7593998 62.98922613 -104.8125 57.5625 C-105.98996395 55.98365675 -107.16337115 54.40177716 -108.33203125 52.81640625 C-108.84483643 52.13006104 -109.3576416 51.44371582 -109.88598633 50.73657227 C-111 49 -111 49 -111 47 C-111.639375 46.690625 -112.27875 46.38125 -112.9375 46.0625 C-115 45 -115 45 -116 44 C-118.06772734 43.80058132 -118.06772734 43.80058132 -120.4375 43.8125 C-121.24058594 43.79832031 -122.04367188 43.78414062 -122.87109375 43.76953125 C-125.21630633 43.79837644 -125.21630633 43.79837644 -127 46 C-128.10080882 50.63534735 -127.69002929 54.6246101 -125.55664062 58.87695312 C-123.55683882 61.92456138 -121.44734615 64.84174774 -119.25 67.75 C-118.52039063 68.75160156 -117.79078125 69.75320312 -117.0390625 70.78515625 C-115.64263659 72.70206818 -114.23997019 74.61445501 -112.83007812 76.52148438 C-107 84.41728922 -107 84.41728922 -107 88 C-108.86328125 89.71875 -108.86328125 89.71875 -111.3125 91.5 C-114.07758738 93.53040233 -116.64479069 95.49997199 -119 98 C-123.12575177 96.33768254 -126.06718521 93.38081202 -129.25 90.375 C-129.82484131 89.83810547 -130.39968262 89.30121094 -130.99194336 88.74804688 C-136.12307253 83.93468599 -141.26828242 79.0911541 -145.9296875 73.81640625 C-148.93212958 71.1821882 -151.08602417 71.36221916 -154.9375 71.55859375 C-157.21585749 71.85548799 -157.21585749 71.85548799 -159.0625 74 C-160.25895274 77.82864876 -160.93703914 81.08320234 -160 85 C-157.73520404 88.28404827 -154.92804464 90.87074515 -152 93.5625 C-151.25621094 94.27857422 -150.51242188 94.99464844 -149.74609375 95.73242188 C-145.48848179 99.801218 -141.10438099 103.66419087 -136.53125 107.37475586 C-134.74902868 109.26637692 -134.19834368 110.4134431 -134 113 C-136.10546875 115.44921875 -136.10546875 115.44921875 -139 118 C-146.43643615 123.88050462 -146.43643615 123.88050462 -150 132.125 C-148.61110359 139.873447 -141.27900269 146.03783384 -135.94140625 151.39453125 C-135.2751976 152.0673967 -134.60898895 152.74026215 -133.92259216 153.43351746 C-132.51750413 154.84866708 -131.10975228 156.26117639 -129.69946289 157.67114258 C-127.58863027 159.786316 -125.4943164 161.91693408 -123.40039062 164.04882812 C-114.85267285 172.66514172 -106.03478736 180.16944596 -96 187 C-96.66 187.33 -97.32 187.66 -98 188 C-106.89781518 181.94191307 -115.4438166 175.69473119 -123 168 C-124.41554373 166.58221129 -125.83233327 165.1656659 -127.25 163.75 C-136.75 154.25 -136.75 154.25 -138.98876953 152.01025391 C-140.19153656 150.80807089 -141.39529416 149.6068758 -142.60107422 148.40771484 C-147.34822183 143.6849921 -150.81433369 139.44196387 -153 133 C-152.64096784 128.95447692 -151.4230202 126.88389542 -148.6875 123.9375 C-147.74583984 122.90302734 -147.74583984 122.90302734 -146.78515625 121.84765625 C-145.45285057 120.46870529 -144.05394929 119.15353358 -142.625 117.875 C-140.46158467 115.37875154 -140.29395597 113.23351567 -140 110 C-139.505 110.99 -139.505 110.99 -139 112 C-138.34 112 -137.68 112 -137 112 C-138.63473516 108.87525373 -138.63473516 108.87525373 -141.125 108.3125 C-141.74375 108.209375 -142.3625 108.10625 -143 108 C-143 107.01 -143 106.02 -143 105 C-143.61875 104.9175 -144.2375 104.835 -144.875 104.75 C-147.68982269 103.75653317 -147.71884533 102.62036771 -149 100 C-150.35896314 98.36966101 -150.35896314 98.36966101 -151.93359375 96.87109375 C-152.50013672 96.31099609 -153.06667969 95.75089844 -153.65039062 95.17382812 C-154.24013672 94.60083984 -154.82988281 94.02785156 -155.4375 93.4375 C-156.02337891 92.86064453 -156.60925781 92.28378906 -157.21289062 91.68945312 C-158.30557787 90.61412981 -159.40031484 89.54088225 -160.49780273 88.47045898 C-160.99352783 87.98520752 -161.48925293 87.49995605 -162 87 C-162.545354 86.52183838 -163.09070801 86.04367676 -163.65258789 85.55102539 C-165.62673187 83.27855996 -165.65631359 80.99568881 -165.54296875 78.0703125 C-164.66576933 74.72559531 -162.72019825 73.13889348 -159.99609375 71.1328125 C-155.7148166 68.70312488 -152.40007282 68.68300238 -147.6875 69.75 C-143.03398393 72.00939088 -140.02999296 76.22140816 -136.7109375 80.06640625 C-133.13957698 83.93109177 -129.23437988 87.02131292 -125.0546875 90.22265625 C-124.37664062 90.80917969 -123.69859375 91.39570312 -123 92 C-123 92.66 -123 93.32 -123 94 C-120.66045537 94.33483064 -120.66045537 94.33483064 -118 94 C-115.89565138 92.28429733 -115.89565138 92.28429733 -114.1875 90 C-113.58292969 89.2575 -112.97835937 88.515 -112.35546875 87.75 C-111.68451172 86.88375 -111.68451172 86.88375 -111 86 C-112.09830005 84.05916841 -113.20386505 82.12244672 -114.3125 80.1875 C-114.92738281 79.10855469 -115.54226562 78.02960938 -116.17578125 76.91796875 C-117.65391256 74.55359169 -118.92510556 72.81952282 -121 71 C-121.99 71.495 -121.99 71.495 -123 72 C-123.20625 71.05125 -123.4125 70.1025 -123.625 69.125 C-124.57590317 65.66399213 -126.16298823 63.05641891 -128.125 60.0625 C-131.0753163 55.26186187 -132.20963434 52.58292774 -131 47 C-128.38481492 43.66563903 -125.37863085 41.58591811 -121.5 39.9375 C-117.75859495 40.03103513 -115.26849162 41.21718639 -112 43 C-108.18653572 47.35174652 -105.15736813 52.22778005 -102 57.0625 C-100.05144474 60.02873431 -100.05144474 60.02873431 -97.75 62.6875 C-96 65 -96 65 -96 68 C-94.515 68.495 -94.515 68.495 -93 69 C-92.3125 71.0625 -92.3125 71.0625 -92 73 C-89.02982306 72.37189827 -89.02982306 72.37189827 -86 71 C-84.56076801 68.49004504 -84.56076801 68.49004504 -84 66 C-82.68 66 -81.36 66 -80 66 C-83.63292932 57.16371083 -87.26811445 48.32873681 -90.95703125 39.515625 C-91.30121094 38.68546875 -91.64539063 37.8553125 -92 37 C-92.56460938 35.70835938 -92.56460938 35.70835938 -93.140625 34.390625 C-94.4023998 30.88059691 -93.95737762 28.57420976 -93 25 C-89.53859221 20.91731389 -87.5818151 19.15818151 -82.25 18.625 C-78.92994288 18.37664927 -77.82003738 19.11889561 -74.9609375 21.0078125 C-71.40347987 24.17785761 -69.98195265 27.84973435 -68.375 32.25 C-67.78467786 33.77375687 -67.19353964 35.29719784 -66.6015625 36.8203125 C-66.32602539 37.54508789 -66.05048828 38.26986328 -65.76660156 39.01660156 C-64.83686275 41.42207868 -63.81460529 43.77636695 -62.75 46.125 C-61.11925544 49.73091362 -59.54959826 53.35844409 -58 57 C-57.31292969 56.7834375 -56.62585938 56.566875 -55.91796875 56.34375 C-55.01691406 56.0653125 -54.11585937 55.786875 -53.1875 55.5 C-52.29417969 55.2215625 -51.40085937 54.943125 -50.48046875 54.65625 C-48 54 -48 54 -45 54 C-45.18175781 53.319375 -45.36351562 52.63875 -45.55078125 51.9375 C-47.77606599 43.3558891 -49.43953314 34.72090698 -51 26 C-51.66 26 -52.32 26 -53 26 C-53.08160748 24.10489301 -53.13946459 22.20875496 -53.1875 20.3125 C-53.23970703 18.72888672 -53.23970703 18.72888672 -53.29296875 17.11328125 C-52.96014995 13.57652677 -52.14447226 11.80659042 -50 9 C-45.61314941 6.59964779 -41.99405288 5.25620489 -37 6 C-32.97594014 8.16680147 -30.74602472 9.80649084 -29 14 C-28.60039379 15.53051789 -28.24622452 17.07359441 -27.9375 18.625 C-27.46377026 20.98190335 -27.07671842 22.84656316 -26 25 C-25.76254684 27.06923467 -25.52899907 29.13900111 -25.31640625 31.2109375 C-24.6299208 40.37134642 -24.6299208 40.37134642 -22 49 C-20.02 49 -18.04 49 -16 49 C-16 48.34 -16 47.68 -16 47 C-14.34385343 46.61781233 -12.67542976 46.28604898 -11 46 C-10.67 46.33 -10.34 46.66 -10 47 C-9.9727585 45.58344207 -9.95349533 44.16672955 -9.9375 42.75 C-9.92589844 41.96109375 -9.91429687 41.1721875 -9.90234375 40.359375 C-9.91298977 38.01639655 -9.91298977 38.01639655 -10.56640625 35.890625 C-11 34 -11 34 -10 31 C-9.37959458 26.93289778 -8.94399493 23.04987206 -9 18.9375 C-9 9.06879607 -9 9.06879607 -6.41015625 6.30078125 C-5.16777118 5.2514867 -3.89599304 4.2357325 -2.59375 3.26171875 C-0.85931379 2.07169851 -0.85931379 2.07169851 0 0 Z " fill="#DDDDDD" transform="translate(174,10)"/>
<path d="M0 0 C4.04647154 0.64743545 7.79979569 2.47547688 11 5 C13.50696891 8.57826313 14.40170691 11.15130867 14.58203125 15.5 C14.62787354 16.54679932 14.67371582 17.59359863 14.72094727 18.67211914 C14.75115967 19.77031982 14.78137207 20.86852051 14.8125 22 C14.85109131 23.11818115 14.88968262 24.2363623 14.92944336 25.38842773 C15.12857058 33.14649175 14.82259925 40.42340973 13 48 C14.98 48.33 16.96 48.66 19 49 C19.33 48.34 19.66 47.68 20 47 C20.598125 47.33 21.19625 47.66 21.8125 48 C24.05386471 49.20787988 24.05386471 49.20787988 27 49 C27.58656892 46.56324295 28.1690195 44.12559082 28.75 41.6875 C28.93191895 40.93436523 29.11383789 40.18123047 29.30126953 39.40527344 C30.29636812 35.22397046 31.19488212 31.04892922 31.9453125 26.81640625 C32.10161133 25.97053955 32.25791016 25.12467285 32.41894531 24.25317383 C32.71700136 22.61721632 32.99585865 20.97761329 33.25292969 19.3347168 C34.01498398 15.24935592 34.76428155 12.77076883 38 10.0390625 C44.07432652 5.9104187 44.07432652 5.9104187 46.9375 6.1875 C51.31434506 7.91171169 54.58274274 9.89066266 57 14 C58.17734769 18.07890581 57.80593035 21.00529013 56.85546875 25.11328125 C56.59056641 26.27923828 56.32566406 27.44519531 56.05273438 28.64648438 C55.76720703 29.85626953 55.48167969 31.06605469 55.1875 32.3125 C54.91357422 33.51068359 54.63964844 34.70886719 54.35742188 35.94335938 C52.97067783 41.97918777 51.52832991 47.99850938 50 54 C53.72965139 56.03435531 55.66905042 57 60 57 C60 57.66 60 58.32 60 59 C60.99 59 61.98 59 63 59 C63.25136719 58.19175781 63.50273437 57.38351563 63.76171875 56.55078125 C73.94939631 27.33753551 73.94939631 27.33753551 85.4375 20.5625 C88 20 88 20 91.0625 21.0625 C94.30431066 23.20071554 96.08375773 24.60972522 98 28 C99.32104203 35.53805993 96.48775025 41.47669823 93.25 48.125 C92.8065625 49.07503906 92.363125 50.02507813 91.90625 51.00390625 C89.98139801 55.08572473 88.00607008 59.06612122 85.671875 62.9296875 C83.68118285 66.00282538 83.68118285 66.00282538 84 70 C85.40453643 70.89434157 86.82421869 71.76493192 88.25 72.625 C89.03890625 73.11226563 89.8278125 73.59953125 90.640625 74.1015625 C92.94155067 75.25157928 92.94155067 75.25157928 95.12109375 74.3671875 C97.13969721 72.89834922 98.36768104 71.53190677 99.8125 69.5 C100.32425781 68.7884375 100.83601563 68.076875 101.36328125 67.34375 C102.17345703 66.18359375 102.17345703 66.18359375 103 65 C103.57105469 64.1853125 104.14210938 63.370625 104.73046875 62.53125 C105.31441406 61.6959375 105.89835937 60.860625 106.5 60 C107.0878125 59.16210938 107.675625 58.32421875 108.28125 57.4609375 C109.3772884 55.89160979 110.46191106 54.31420347 111.53125 52.7265625 C114.83390898 48.00094939 117.59434701 45.1812284 123 43 C127.13996766 43 129.15685076 43.31216772 132.375 45.9375 C134.82185798 49.04312744 135.11806344 50.73555894 135.0625 54.625 C135.05347656 55.44226563 135.04445313 56.25953125 135.03515625 57.1015625 C135.01775391 58.04128906 135.01775391 58.04128906 135 59 C134.67 59 134.34 59 134 59 C133.67 55.7 133.34 52.4 133 49 C129.57360069 47.28680034 126.03175192 46.13735689 122.16796875 46.24609375 C117.00620889 48.04108412 114.04853891 53.73826703 111 58 C109.43846511 60.04240491 107.87597892 62.08408288 106.3125 64.125 C102.70311522 68.97550656 99.27313545 73.91701318 96 79 C91.65136348 78.43555175 88.82172345 76.84572036 85.1875 74.4375 C84.21167969 73.79683594 83.23585938 73.15617187 82.23046875 72.49609375 C81.49441406 72.00238281 80.75835937 71.50867188 80 71 C80.53703902 66.21677242 81.92122207 62.90785371 84.3125 58.75 C86.98574696 53.96658263 89.23454457 49.27790127 91.078125 44.12109375 C92 42 92 42 93.578125 40.03515625 C96.12995006 36.38268137 95.75074368 32.2636575 95 28 C92.46508106 24.86862955 90.92509607 24.17345551 87 23.4375 C82.82325922 24.2206389 81.59759486 25.65046979 79 29 C77.89535175 31.14183707 76.9512209 33.30618922 76.03515625 35.53515625 C74.94497916 38.13101188 73.7162659 40.61709195 72.4375 43.125 C70.46212721 47.03345931 68.67869501 50.95587111 67 55 C66.4390603 56.3131676 65.87658282 57.62567948 65.3125 58.9375 C64.879375 59.948125 64.44625 60.95875 64 62 C57.59859065 61.53444296 52.73230171 59.85288164 47 57 C47.33367829 47.10643857 49.24660816 38.44183953 52 29 C52.34187332 27.66883077 52.680016 26.33659984 53 25 C53.66 25 54.32 25 55 25 C54.7451971 23.03951648 54.47063056 21.08159327 54.1875 19.125 C54.03667969 18.03445312 53.88585937 16.94390625 53.73046875 15.8203125 C53.25334259 12.68761154 53.25334259 12.68761154 50 11 C44.98780237 10.53590763 41.93945797 10.80238801 38 14 C37.02247898 16.62594932 36.39595325 18.84631954 35.875 21.5625 C35.71596191 22.30322754 35.55692383 23.04395508 35.39306641 23.80712891 C34.05136946 30.22762655 32.97880386 36.70665011 32.03857422 43.19750977 C31.4989732 46.77085866 31.03670284 48.94494574 29 52 C23.06 51.67 17.12 51.34 11 51 C11 36.81 11 22.62 11 8 C6.72293099 5.86146549 4.68240915 5.6655422 0 6 C-2.35460678 6.67424167 -2.35460678 6.67424167 -4 8 C-5.30920503 11.9276151 -5.23462868 15.72570631 -5.31640625 19.82421875 C-5.33718735 20.68561966 -5.35796844 21.54702057 -5.37937927 22.43452454 C-5.44474909 25.18543544 -5.50370132 27.93644156 -5.5625 30.6875 C-5.60569717 32.55274421 -5.64931185 34.4179788 -5.69335938 36.28320312 C-5.80041763 40.85537124 -5.90172054 45.4276351 -6 50 C-7.98 50 -9.96 50 -12 50 C-10.02 49.505 -10.02 49.505 -8 49 C-8.03552979 48.00669678 -8.07105957 47.01339355 -8.10766602 45.98999023 C-8.23874007 42.27957518 -8.36164662 38.56892556 -8.48217773 34.8581543 C-8.53531253 33.25684267 -8.59061663 31.65560142 -8.64819336 30.05444336 C-8.73090754 27.74348114 -8.80563229 25.43237229 -8.87890625 23.12109375 C-8.91945885 22.0597245 -8.91945885 22.0597245 -8.96083069 20.97691345 C-9.29790577 9.56830281 -9.29790577 9.56830281 -6.40625 6.07421875 C-5.7771875 5.61660156 -5.148125 5.15898437 -4.5 4.6875 C-1.79055155 2.73808418 -1.79055155 2.73808418 0 0 Z " fill="#DEDEDE" transform="translate(174,10)"/>
<path d="M0 0 C0.66 0 1.32 0 2 0 C1.39948651 3.66980469 -0.12974937 5.67827306 -2.5 8.5 C-5.72224554 12.41438854 -8.84173871 16.37660354 -11.875 20.4375 C-12.98488281 21.92056641 -12.98488281 21.92056641 -14.1171875 23.43359375 C-17.04176654 27.00761174 -17.04176654 27.00761174 -18 31.3125 C-16.54163402 35.23185858 -14.07350975 37.18806555 -11 40 C-7.3879725 38.43394612 -4.74476517 36.23242043 -1.8125 33.625 C-0.93207031 32.85414062 -0.05164063 32.08328125 0.85546875 31.2890625 C2.99447935 29.00589272 3.54214215 27.99864651 4 25 C5.68096205 22.73070123 6.5309075 22.07818208 9.34375 21.609375 C12.34762572 20.92025057 13.84122497 19.82437377 16.25 17.9375 C20.23388878 15.18861674 23.13591068 14.11141621 27.984375 14.484375 C31.52069006 15.38901374 32.98386159 17.03879671 35 20 C36.30552254 24.07015851 36.31173375 27.01393245 34.75 30.9375 C32.19810581 35.49944783 28.36354675 37.89058782 24.10546875 40.76953125 C18.64679252 44.69016538 13.86698586 49.37933628 9 54 C10.14643107 58.76521603 11.35746627 61.91173701 14.625 65.5625 C16.80954013 68.26239093 17.91897529 69.63907173 18.6875 73.0625 C16.68421971 81.62197032 11.73593765 86.78820304 5.5625 92.6875 C4.81162109 93.42033203 4.06074219 94.15316406 3.28710938 94.90820312 C1.83727905 96.32232963 0.38381796 97.73274592 -1.07373047 99.13891602 C-4.10879717 102.07127513 -7.09347399 105.04566891 -10 108.10546875 C-22.35791229 120.97024853 -38.11401166 131.90345058 -54 140 C-54.57476074 140.29543701 -55.14952148 140.59087402 -55.74169922 140.89526367 C-60.50142319 143.31470272 -65.31741087 145.51947992 -70.25 147.5625 C-70.9829126 147.86696045 -71.7158252 148.1714209 -72.47094727 148.48510742 C-77.81196411 150.6479889 -83.12276121 152.23561406 -88.77734375 153.39453125 C-91.1833434 153.85241196 -91.1833434 153.85241196 -93 156 C-95.625 156.125 -95.625 156.125 -98 156 C-98.33 156.66 -98.66 157.32 -99 158 C-104.87715921 158.94792891 -110.57574722 159.07473022 -116.51953125 158.9375 C-118.87690211 158.99689832 -120.74010057 159.37453288 -123 160 C-131.39337794 161.32269185 -139.40036371 161.73873643 -147.65112305 159.5637207 C-152.33952463 158.43852382 -157.11642786 157.76042102 -161.875 157 C-169.28304318 155.80725846 -176.65375077 154.53157178 -184 153 C-184 152.34 -184 151.68 -184 151 C-185.1446875 150.74347656 -186.289375 150.48695313 -187.46875 150.22265625 C-192.03833164 149.07524153 -196.21512441 147.3765958 -200.5 145.4375 C-201.65435547 144.91893433 -201.65435547 144.91893433 -202.83203125 144.38989258 C-208.34021235 141.86737552 -213.70476821 139.12990325 -219 136.1875 C-219.67611328 135.81488037 -220.35222656 135.44226074 -221.04882812 135.05834961 C-224.196528 133.26193093 -225.95620718 132.06568922 -228 129 C-222.91353417 130.2207518 -219.20353067 131.71919558 -215 135 C-215 135.66 -215 136.32 -215 137 C-213.7625 137.37125 -213.7625 137.37125 -212.5 137.75 C-209 139 -209 139 -205.5 140.8125 C-200.61167035 143.33703388 -195.45984254 145.05469619 -190.26953125 146.8515625 C-188.39655328 147.5094544 -186.53275064 148.19966688 -184.70727539 148.97973633 C-181.63438064 150.13778729 -178.63109064 150.81325835 -175.4140625 151.47265625 C-174.15335938 151.73240234 -172.89265625 151.99214844 -171.59375 152.25976562 C-170.94148438 152.39165283 -170.28921875 152.52354004 -169.6171875 152.65942383 C-167.6369221 153.06008782 -165.65823759 153.46791175 -163.6796875 153.87695312 C-129.76655799 160.81530258 -96.65196095 155.72856137 -65 142 C-63.56631166 141.48917323 -62.12937656 140.9872353 -60.6875 140.5 C-55.75446257 138.49334071 -51.47663092 135.87094454 -47 133 C-46.35208496 132.59104492 -45.70416992 132.18208984 -45.03662109 131.76074219 C-28.18853282 121.08480163 -14.28863175 108.44897747 -0.1875 94.4375 C0.40087646 93.85466248 0.98925293 93.27182495 1.59545898 92.67132568 C3.28455622 90.99385826 4.96582639 89.30895464 6.64453125 87.62109375 C7.15530716 87.11425552 7.66608307 86.6074173 8.19233704 86.08522034 C12.15783634 82.06774524 13.86470395 79.70473027 14.3125 74.0625 C14.17703629 70.19821938 13.5089514 68.05778452 11 65 C8.92136286 63.15915567 6.81659512 61.37826134 4.64453125 59.6484375 C3 58 3 58 3 55 C4.984375 53.125 4.984375 53.125 7.75 51 C13.1686957 46.72245081 18.22937733 42.1914306 23.2734375 37.48046875 C25.05694526 35.85793662 26.89573214 34.29370141 28.7890625 32.80078125 C31.07642098 31.18972288 31.07642098 31.18972288 32 29 C32.26183816 25.4651848 32.36520668 22.83782709 30.9375 19.5625 C27.97109413 17.1702372 25.70144972 17.61709141 22 18 C17.28760828 19.35873961 14.31199182 22.22128217 10.875 25.5625 C-4.42529872 40.05429088 -4.42529872 40.05429088 -11 43 C-11.61488281 42.37351563 -12.22976563 41.74703125 -12.86328125 41.1015625 C-13.67152344 40.28429687 -14.47976563 39.46703125 -15.3125 38.625 C-16.11300781 37.81289062 -16.91351563 37.00078125 -17.73828125 36.1640625 C-20.00009937 33.87395158 -20.00009937 33.87395158 -23 32 C-21.71667049 29.28699312 -20.30964589 26.92020773 -18.49609375 24.53125 C-18.0067334 23.88285156 -17.51737305 23.23445313 -17.01318359 22.56640625 C-16.49320801 21.88449219 -15.97323242 21.20257813 -15.4375 20.5 C-14.35522001 19.0731053 -13.27319137 17.64601992 -12.19140625 16.21875 C-11.65402832 15.51105469 -11.11665039 14.80335937 -10.56298828 14.07421875 C-9.11701408 12.15528767 -7.69219974 10.22318855 -6.27734375 8.28125 C-5.8687915 7.72373047 -5.46023926 7.16621094 -5.03930664 6.59179688 C-3.93683357 5.08453656 -2.83935956 3.57362342 -1.7421875 2.0625 C-0.87980469 1.0415625 -0.87980469 1.0415625 0 0 Z " fill="#D5D5D5" transform="translate(306,69)"/>
<path d="M0 0 C0 0.66 0 1.32 0 2 C-1.14576596 3.04755745 -2.3439356 4.03809717 -3.5625 5 C-11.80546114 12.06331476 -16.44178073 20.86151222 -20 31 C-20.26111572 31.71639648 -20.52223145 32.43279297 -20.79125977 33.17089844 C-23.0652161 39.91645113 -23.50422684 46.16176553 -23.4375 53.25 C-23.43210205 54.34521973 -23.4267041 55.44043945 -23.42114258 56.56884766 C-23.28303443 70.00360227 -23.28303443 70.00360227 -17.46875 81.62890625 C-16.9840625 82.08136719 -16.499375 82.53382813 -16 83 C-15.443125 84.175625 -14.88625 85.35125 -14.3125 86.5625 C-11.41938749 92.59447204 -7.15369005 98.66210824 -1.75 102.66796875 C-1.1725 103.10753906 -0.595 103.54710937 0 104 C0 104.66 0 105.32 0 106 C-5.65706616 105.06630947 -10.14479463 104.15588349 -15 101 C-16.43241686 100.4653454 -17.87085186 99.9467389 -19.3125 99.4375 C-40.42156335 91.18291105 -57.35521117 73.81392169 -73 58 C-73.763125 57.236875 -74.52625 56.47375 -75.3125 55.6875 C-75.869375 55.130625 -76.42625 54.57375 -77 54 C-75.5609916 50.71326262 -73.77989422 48.52272846 -71.25390625 45.98828125 C-70.12964233 44.857854 -70.12964233 44.857854 -68.98266602 43.70458984 C-67.78468384 42.52050537 -67.78468384 42.52050537 -66.5625 41.3125 C-65.74644287 40.50248535 -64.93038574 39.6924707 -64.08959961 38.85791016 C-58.31809692 33.18074109 -52.47994367 27.86503608 -46 23 C-45.13632813 22.33097656 -44.27265625 21.66195312 -43.3828125 20.97265625 C-24.97194418 7.07111655 -24.97194418 7.07111655 -15 6 C-15 5.34 -15 4.68 -15 4 C-13.06441401 3.32779649 -11.12645628 2.66241923 -9.1875 2 C-8.10855469 1.62875 -7.02960938 1.2575 -5.91796875 0.875 C-3 0 -3 0 0 0 Z M-21.625 9.5625 C-22.337771 9.92384033 -23.05054199 10.28518066 -23.78491211 10.6574707 C-29.55645271 13.64419232 -34.80737143 17.09361887 -40 21 C-41.37389524 21.93911827 -42.74878558 22.87678363 -44.125 23.8125 C-45.07375 24.534375 -46.0225 25.25625 -47 26 C-47 26.66 -47 27.32 -47 28 C-47.598125 28.2475 -48.19625 28.495 -48.8125 28.75 C-51.29836688 30.17049536 -52.40882737 31.65112611 -54 34 C-55 35 -55 35 -57.10546875 36.11328125 C-61.02185693 38.66606869 -64.06140654 41.84935357 -67.3125 45.1875 C-67.95767578 45.84169922 -68.60285156 46.49589844 -69.26757812 47.16992188 C-70.84970516 48.77548783 -72.4269513 50.3855469 -74 52 C-71.76996268 57.05110122 -67.92524884 60.40423774 -64.0625 64.25 C-63.33353516 64.99507812 -62.60457031 65.74015625 -61.85351562 66.5078125 C-61.15033203 67.21164063 -60.44714844 67.91546875 -59.72265625 68.640625 C-58.75984741 69.60790527 -58.75984741 69.60790527 -57.77758789 70.59472656 C-55.98542554 72.31008233 -55.98542554 72.31008233 -53 72 C-52.74089844 72.59167969 -52.48179688 73.18335938 -52.21484375 73.79296875 C-46.2133594 84.69598694 -27.53431032 94.33229027 -16.17578125 97.8828125 C-14.13389472 98.33798972 -12.06808255 98.68452978 -10 99 C-10.27972656 98.51273437 -10.55945313 98.02546875 -10.84765625 97.5234375 C-11.72351428 95.97449243 -12.58507859 94.41743413 -13.4375 92.85546875 C-14.51559611 90.88524811 -15.62164698 88.93015665 -16.75 86.98828125 C-26.79260435 68.69948669 -27.36345213 49.88082997 -22.2265625 30.0078125 C-20.14055207 23.55840409 -16.78061787 18.16387181 -12.99755859 12.59326172 C-10.73461985 9.5717897 -10.73461985 9.5717897 -10 6 C-14.65087689 6 -17.59791294 7.49560356 -21.625 9.5625 Z " fill="#DFDFDF" transform="translate(129,90)"/>
<path d="M0 0 C14.68408551 3.68408551 14.68408551 3.68408551 20 9 C17.03 8.34 14.06 7.68 11 7 C12.70340736 10.69071594 14.62041998 13.96886554 16.9375 17.3125 C23.2818245 26.76617165 27 37.50360399 27 49 C27.66 49 28.32 49 29 49 C29.05389087 50.95803507 29.09274217 52.91648909 29.125 54.875 C29.14820313 55.96554688 29.17140625 57.05609375 29.1953125 58.1796875 C29 61 29 61 27 63 C26.54490067 64.86150306 26.1608565 66.74060175 25.8125 68.625 C23.06223117 81.0287124 18.40735814 92.20350927 9 101 C12.39943157 101 13.97458404 99.9577459 16.79296875 98.16796875 C19 97 19 97 22.71484375 95.6875 C27.35036369 93.9900384 31.27831427 91.53691076 35.375 88.8125 C36.12031982 88.32128662 36.86563965 87.83007324 37.63354492 87.32397461 C48.25291253 80.24939971 57.12666941 72.09924282 66 63 C70.73009447 58.21592443 70.73009447 58.21592443 72.875 56.5 C74.30665478 54.94966088 74.30665478 54.94966088 73.6875 52.3125 C73.460625 51.549375 73.23375 50.78625 73 50 C74.98 50.495 74.98 50.495 77 51 C77.495 52.98 77.495 52.98 78 55 C77.46375 55.4640625 76.9275 55.928125 76.375 56.40625 C71.47777272 60.72354247 66.83033125 65.16579549 62.28515625 69.84936523 C47.35987723 85.16317419 30.060178 96.43292102 10 104 C9.16984375 104.31839844 8.3396875 104.63679688 7.484375 104.96484375 C5.66122674 105.65649265 3.83150586 106.33079594 2 107 C4.02737635 102.35980173 7.35914355 98.87007243 10.61328125 95.046875 C23.203982 78.97364 26.0083142 61.06192738 24 41 C23.10687013 35.5758148 21.97323108 29.97323108 18 26 C17.649375 24.865625 17.29875 23.73125 16.9375 22.5625 C13.9014334 14.07390564 6.91266701 7.49468404 0 2 C0 1.34 0 0.68 0 0 Z " fill="#E6E6E6" transform="translate(216,89)"/>
<path d="M0 0 C4.04647154 0.64743545 7.79979569 2.47547688 11 5 C13.50696891 8.57826313 14.40170691 11.15130867 14.58203125 15.5 C14.62787354 16.54679932 14.67371582 17.59359863 14.72094727 18.67211914 C14.75115967 19.77031982 14.78137207 20.86852051 14.8125 22 C14.85109131 23.11818115 14.88968262 24.2363623 14.92944336 25.38842773 C15.12857058 33.14649175 14.82259925 40.42340973 13 48 C14.98 48.33 16.96 48.66 19 49 C19.33 48.34 19.66 47.68 20 47 C20.598125 47.33 21.19625 47.66 21.8125 48 C24.05386471 49.20787988 24.05386471 49.20787988 27 49 C27.99 44.38 28.98 39.76 30 35 C30.99 35 31.98 35 33 35 C32.40245849 38.78442955 31.7232801 42.55036395 31 46.3125 C30.835 47.17488281 30.67 48.03726563 30.5 48.92578125 C30 51 30 51 29 52 C23.06 51.67 17.12 51.34 11 51 C11 36.81 11 22.62 11 8 C6.72293099 5.86146549 4.68240915 5.6655422 0 6 C-2.35460678 6.67424167 -2.35460678 6.67424167 -4 8 C-5.30920503 11.9276151 -5.23462868 15.72570631 -5.31640625 19.82421875 C-5.33718735 20.68561966 -5.35796844 21.54702057 -5.37937927 22.43452454 C-5.44474909 25.18543544 -5.50370132 27.93644156 -5.5625 30.6875 C-5.60569717 32.55274421 -5.64931185 34.4179788 -5.69335938 36.28320312 C-5.80041763 40.85537124 -5.90172054 45.4276351 -6 50 C-7.98 50 -9.96 50 -12 50 C-10.02 49.505 -10.02 49.505 -8 49 C-8.03552979 48.00669678 -8.07105957 47.01339355 -8.10766602 45.98999023 C-8.23874007 42.27957518 -8.36164662 38.56892556 -8.48217773 34.8581543 C-8.53531253 33.25684267 -8.59061663 31.65560142 -8.64819336 30.05444336 C-8.73090754 27.74348114 -8.80563229 25.43237229 -8.87890625 23.12109375 C-8.91945885 22.0597245 -8.91945885 22.0597245 -8.96083069 20.97691345 C-9.29790577 9.56830281 -9.29790577 9.56830281 -6.40625 6.07421875 C-5.7771875 5.61660156 -5.148125 5.15898437 -4.5 4.6875 C-1.79055155 2.73808418 -1.79055155 2.73808418 0 0 Z " fill="#D8D8D8" transform="translate(174,10)"/>
<path d="M0 0 C5.08646583 1.2207518 8.79646933 2.71919558 13 6 C13 6.66 13 7.32 13 8 C13.825 8.2475 14.65 8.495 15.5 8.75 C19 10 19 10 22.5 11.8125 C27.38832965 14.33703388 32.54015746 16.05469619 37.73046875 17.8515625 C39.60344672 18.5094544 41.46724936 19.19966688 43.29272461 19.97973633 C46.36561936 21.13778729 49.36890936 21.81325835 52.5859375 22.47265625 C53.84664062 22.73240234 55.10734375 22.99214844 56.40625 23.25976562 C57.05851562 23.39165283 57.71078125 23.52354004 58.3828125 23.65942383 C60.3630779 24.06008782 62.34176241 24.46791175 64.3203125 24.87695312 C73.33771026 26.7218391 81.97797797 28.19657879 91.1875 28.1875 C92.05246094 28.18669434 92.91742188 28.18588867 93.80859375 28.18505859 C106.55097414 28.06767034 119.28644266 26.76210111 131.78515625 24.26953125 C134 24 134 24 137 25 C135 27 135 27 132.375 27.125 C131.59125 27.08375 130.8075 27.0425 130 27 C129.67 27.66 129.34 28.32 129 29 C123.12284079 29.94792891 117.42425278 30.07473022 111.48046875 29.9375 C109.12309789 29.99689832 107.25989943 30.37453288 105 31 C96.60662206 32.32269185 88.59963629 32.73873643 80.34887695 30.5637207 C75.66047537 29.43852382 70.88357214 28.76042102 66.125 28 C58.71695682 26.80725846 51.34624923 25.53157178 44 24 C44 23.34 44 22.68 44 22 C42.8553125 21.74347656 41.710625 21.48695313 40.53125 21.22265625 C35.96166836 20.07524153 31.78487559 18.3765958 27.5 16.4375 C26.73042969 16.09178955 25.96085937 15.7460791 25.16796875 15.38989258 C19.65978765 12.86737552 14.29523179 10.12990325 9 7.1875 C8.32388672 6.81488037 7.64777344 6.44226074 6.95117188 6.05834961 C3.803472 4.26193093 2.04379282 3.06568922 0 0 Z " fill="#F7F7F7" transform="translate(78,198)"/>
<path d="M0 0 C4.02405986 2.16680147 6.25397528 3.80649084 8 8 C8.39960621 9.53051789 8.75377548 11.07359441 9.0625 12.625 C9.53622974 14.98190335 9.92328158 16.84656316 11 19 C11.23745316 21.06923467 11.47100093 23.13900111 11.68359375 25.2109375 C12.3700792 34.37134642 12.3700792 34.37134642 15 43 C16.98 43 18.96 43 21 43 C21 42.34 21 41.68 21 41 C22.65614657 40.61781233 24.32457024 40.28604898 26 40 C26.33 40.33 26.66 40.66 27 41 C27.0272415 39.58344207 27.04650467 38.16672955 27.0625 36.75 C27.07410156 35.96109375 27.08570313 35.1721875 27.09765625 34.359375 C27.08701023 32.01639655 27.08701023 32.01639655 26.43359375 29.890625 C26 28 26 28 27 25 C27.34820041 23.33637583 27.68404492 21.67004829 28 20 C28.33 20 28.66 20 29 20 C29 27.59 29 35.18 29 43 C20 45.25 20 45.25 16 45.125 C15.236875 45.10695312 14.47375 45.08890625 13.6875 45.0703125 C13.130625 45.04710937 12.57375 45.02390625 12 45 C10.29669869 37.94519172 8.72818367 30.87968644 7.375 23.75 C7.17982788 22.73160034 7.17982788 22.73160034 6.98071289 21.69262695 C6.29855352 18.01632166 5.84334537 14.41756666 5.625 10.6875 C5.36482549 6.94753044 5.36482549 6.94753044 2.875 4.9375 C-1.4080907 3.54083999 -5.1099893 3.30368027 -9.375 4.875 C-11.15909903 5.91750421 -11.15909903 5.91750421 -12 8 C-12.2275015 9.87056791 -12.40962811 11.74685958 -12.5625 13.625 C-12.64628906 14.62789062 -12.73007813 15.63078125 -12.81640625 16.6640625 C-12.87699219 17.43492188 -12.93757813 18.20578125 -13 19 C-13.99 19.33 -14.98 19.66 -16 20 C-16.08160748 18.10489301 -16.13946459 16.20875496 -16.1875 14.3125 C-16.22230469 13.25675781 -16.25710937 12.20101563 -16.29296875 11.11328125 C-15.96014995 7.57652677 -15.14447226 5.80659042 -13 3 C-8.61314941 0.59964779 -4.99405288 -0.74379511 0 0 Z " fill="#D4D4D4" transform="translate(137,16)"/>
<path d="M0 0 C4.00626038 2.18523293 7.9193636 4.83872719 10 9 C10.55769904 14.96308973 10.50156448 19.92876868 7 25 C2.33390081 29.31614175 -1.02899495 30.24368527 -7.3125 30.0625 C-11.85938248 29.64130441 -14.74275612 29.25511621 -17.8125 25.75 C-21.03336975 20.36890945 -21.1923848 14.04709435 -20 8 C-14.78501693 0.10920683 -9.21517706 -1.65873187 0 0 Z M-14 5 C-15.44586908 7.75279778 -15.44586908 7.75279778 -16 11 C-16.61875 12.794375 -16.61875 12.794375 -17.25 14.625 C-18.26657054 17.80125545 -18.26657054 17.80125545 -17.30078125 20.00390625 C-14.78925674 23.85792734 -11.13344488 26.11005786 -7 28 C-3.71063401 28.457004 -1.10989686 28.15717092 2 27 C4.74856324 24.88131584 6.43192896 23.31093318 7.8125 20.125 C8.31328855 14.44939646 8.52272659 10.69696879 5 6 C2.74237501 3.32770919 1.22400573 2.52584681 -2.25 2.125 C-7.06710442 1.75566247 -9.90319281 2.40814239 -14 5 Z " fill="#DFDFDF" transform="translate(151,105)"/>
<path d="M0 0 C0 0.66 0 1.32 0 2 C-1.14576596 3.04755745 -2.3439356 4.03809717 -3.5625 5 C-11.80546114 12.06331476 -16.44178073 20.86151222 -20 31 C-20.26111572 31.71639648 -20.52223145 32.43279297 -20.79125977 33.17089844 C-23.0652161 39.91645113 -23.50422684 46.16176553 -23.4375 53.25 C-23.43210205 54.34521973 -23.4267041 55.44043945 -23.42114258 56.56884766 C-23.24810281 65.80903471 -22.94991399 76.18829452 -16 83 C-15.8125 86.1875 -15.8125 86.1875 -16 89 C-24.35983303 78.79322712 -27.56111387 61.92000662 -27 49 C-24.74639355 32.40526156 -19.15759552 19.92863288 -10 6 C-10.99 5.67 -11.98 5.34 -13 5 C-9.8245716 0.89062207 -4.9889919 0 0 0 Z " fill="#DCDCDC" transform="translate(129,90)"/>
<path d="M0 0 C0.66 0 1.32 0 2 0 C1.39948651 3.66980469 -0.12974937 5.67827306 -2.5 8.5 C-5.72224554 12.41438854 -8.84173871 16.37660354 -11.875 20.4375 C-12.61492187 21.42621094 -13.35484375 22.41492188 -14.1171875 23.43359375 C-17.04176654 27.00761174 -17.04176654 27.00761174 -18 31.3125 C-16.54163402 35.23185858 -14.07350975 37.18806555 -11 40 C-7.3879725 38.43394612 -4.74476517 36.23242043 -1.8125 33.625 C-0.49185547 32.46871094 -0.49185547 32.46871094 0.85546875 31.2890625 C2.99447935 29.00589272 3.54214215 27.99864651 4 25 C5.64562243 22.77840972 6.49838695 22.08360218 9.25 21.625 C13.18435198 20.7308291 15.85905138 18.45301751 19 16 C19.66 16.33 20.32 16.66 21 17 C20.10539062 17.76183594 19.21078125 18.52367188 18.2890625 19.30859375 C11.82845233 24.82180312 5.42259624 30.3773879 -0.8671875 36.0859375 C-3.52013819 38.46679068 -6.23818026 40.74693653 -9 43 C-12.15624686 41.61263874 -14.19863433 39.99607292 -16.5625 37.5 C-18.67524223 35.27903267 -20.41613626 33.72257583 -23 32 C-21.71667049 29.28699312 -20.30964589 26.92020773 -18.49609375 24.53125 C-18.0067334 23.88285156 -17.51737305 23.23445313 -17.01318359 22.56640625 C-16.49320801 21.88449219 -15.97323242 21.20257813 -15.4375 20.5 C-14.35522001 19.0731053 -13.27319137 17.64601992 -12.19140625 16.21875 C-11.65402832 15.51105469 -11.11665039 14.80335937 -10.56298828 14.07421875 C-9.11701408 12.15528767 -7.69219974 10.22318855 -6.27734375 8.28125 C-5.8687915 7.72373047 -5.46023926 7.16621094 -5.03930664 6.59179688 C-3.93683357 5.08453656 -2.83935956 3.57362342 -1.7421875 2.0625 C-1.16726563 1.381875 -0.59234375 0.70125 0 0 Z " fill="#F5F5F5" transform="translate(306,69)"/>
<path d="M0 0 C0.99 0.495 0.99 0.495 2 1 C-2.11718348 3.86331396 -6.20389174 6.15772697 -10.75 8.3125 C-16.95422163 11.32351708 -22.44639822 14.90409037 -28 19 C-29.093125 19.70125 -30.18625 20.4025 -31.3125 21.125 C-36.18666908 24.52558308 -40.09343038 28.28029114 -42 34 C-42.66 33.67 -43.32 33.34 -44 33 C-49.96348734 38.05352742 -55.53105379 43.41711741 -61 49 C-60.5359375 49.86625 -60.5359375 49.86625 -60.0625 50.75 C-59 53 -59 53 -58 57 C-60.31 55.02 -62.62 53.04 -65 51 C-63.22952105 47.4590421 -61.96484798 45.7083016 -59.25390625 42.98828125 C-58.12964233 41.857854 -58.12964233 41.857854 -56.98266602 40.70458984 C-55.78468384 39.52050537 -55.78468384 39.52050537 -54.5625 38.3125 C-53.74644287 37.50248535 -52.93038574 36.6924707 -52.08959961 35.85791016 C-46.31809692 30.18074109 -40.47994367 24.86503608 -34 20 C-33.13632813 19.33097656 -32.27265625 18.66195312 -31.3828125 17.97265625 C-12.97194418 4.07111655 -12.97194418 4.07111655 -3 3 C-3 2.34 -3 1.68 -3 1 C-2.01 0.67 -1.02 0.34 0 0 Z " fill="#CDCDCD" transform="translate(117,93)"/>
<path d="M0 0 C4.4846812 4.36968937 7.63410628 9.86475363 11.03515625 15.09765625 C12.95204928 18.03503147 12.95204928 18.03503147 15.24609375 20.68359375 C17 23 17 23 17 26 C17.99 26.33 18.98 26.66 20 27 C20.6875 29.0625 20.6875 29.0625 21 31 C23.97017694 30.37189827 23.97017694 30.37189827 27 29 C28.43923199 26.49004504 28.43923199 26.49004504 29 24 C30.32 24 31.64 24 33 24 C32.50628906 22.81921875 32.01257813 21.6384375 31.50390625 20.421875 C30.85662369 18.86464449 30.20949639 17.30734943 29.5625 15.75 C29.23701172 14.97269531 28.91152344 14.19539063 28.57617188 13.39453125 C28.26357422 12.64042969 27.95097656 11.88632812 27.62890625 11.109375 C27.1968689 10.07248535 27.1968689 10.07248535 26.75610352 9.01464844 C26.01053969 7.02808314 25.47215304 5.06693606 25 3 C25.66 3 26.32 3 27 3 C36 20.73786408 36 20.73786408 36 26 C35.22914062 26.40992187 34.45828125 26.81984375 33.6640625 27.2421875 C32.66117188 27.78101562 31.65828125 28.31984375 30.625 28.875 C29.12839844 29.67550781 29.12839844 29.67550781 27.6015625 30.4921875 C24.94651605 31.8820138 24.94651605 31.8820138 23 34 C22.01 34 21.02 34 20 34 C19.71809814 33.45980225 19.43619629 32.91960449 19.14575195 32.36303711 C15.93936498 26.38851858 12.2406002 20.98922613 8.1875 15.5625 C7.01003605 13.98365675 5.83662885 12.40177716 4.66796875 10.81640625 C3.89876099 9.78688843 3.89876099 9.78688843 3.11401367 8.73657227 C2 7 2 7 2 5 C1.360625 4.731875 0.72125 4.46375 0.0625 4.1875 C-2 3 -2 3 -3 0 C-5.64 0 -8.28 0 -11 0 C-7.0560197 -2.83966582 -4.28214421 -1.80300809 0 0 Z " fill="#E3E3E3" transform="translate(61,52)"/>
<path d="M0 0 C0.99 0.495 0.99 0.495 2 1 C-1.68276504 5.83939452 -5.49879705 9.04920394 -10.5625 12.375 C-11.26850342 12.84760254 -11.97450684 13.32020508 -12.7019043 13.80712891 C-14.12905397 14.76157663 -15.55846966 15.71264559 -16.99023438 16.66015625 C-18.78526245 17.85684163 -20.56032116 19.07612186 -22.328125 20.3125 C-28.64800992 24.68016916 -34.90551421 28.07717814 -42 31 C-43.40781558 31.59573185 -44.81534687 32.1921358 -46.22265625 32.7890625 C-47.73129107 33.4230179 -49.24040653 34.05583075 -50.75 34.6875 C-51.45922607 34.985354 -52.16845215 35.28320801 -52.89916992 35.59008789 C-59.32560667 38.23786109 -65.45433979 40.15422515 -72.4375 40.625 C-73.48808594 40.69976562 -74.53867188 40.77453125 -75.62109375 40.8515625 C-76.40613281 40.90054688 -77.19117188 40.94953125 -78 41 C-75.30814458 38.30814458 -72.41065433 38.03867699 -68.8125 37.25 C-61.65528555 35.58014581 -55.03164275 33.22343589 -48.26953125 30.37109375 C-45.75463731 29.31646081 -43.26674008 28.37353021 -40.6875 27.5 C-35.7551447 25.49361818 -31.47332271 22.87530554 -27 20 C-26.32018066 19.56445801 -25.64036133 19.12891602 -24.93994141 18.68017578 C-16.11768999 13.00098223 -7.47162294 7.42792924 0 0 Z " fill="#C8C8C8" transform="translate(286,182)"/>
<path d="M0 0 C0.66 0.33 1.32 0.66 2 1 C2.55031581 6.50315815 0.91487125 10.44229316 -2 15 C-4.63400949 18.08778796 -7.50486933 20.88509717 -10.4375 23.6875 C-11.18837891 24.42033203 -11.93925781 25.15316406 -12.71289062 25.90820312 C-14.16367019 27.32325548 -15.61819057 28.73448544 -17.0769043 30.14135742 C-19.41330383 32.39945182 -21.71036442 34.69457383 -24 37 C-27 40 -30 43 -33 46 C-33.66 45.67 -34.32 45.34 -35 45 C-30.95691462 40.14524819 -26.66251226 35.58606489 -22.171875 31.14453125 C-21.65266479 30.63082977 -21.13345459 30.1171283 -20.59851074 29.58786011 C-18.43481162 27.45179586 -16.26747224 25.31950977 -14.09570312 23.19165039 C-12.49165319 21.61787904 -10.8939497 20.03787629 -9.296875 18.45703125 C-8.80934753 17.98296341 -8.32182007 17.50889557 -7.81951904 17.02046204 C-3.83971115 13.07003463 -0.7959838 9.39260882 -0.3125 3.6875 C-0.209375 2.470625 -0.10625 1.25375 0 0 Z " fill="#DFDFDF" transform="translate(322,138)"/>
<path d="M0 0 C4.79057252 0.89644336 7.28906345 3.62704416 10.75 6.875 C11.35199219 7.41769531 11.95398438 7.96039063 12.57421875 8.51953125 C14.11341477 9.94703958 15.56408977 11.46863909 17 13 C17 16 17 16 14.82421875 18.37890625 C13.89222656 19.24386719 12.96023437 20.10882813 12 21 C10.26583549 22.64056642 8.53663655 24.28639798 6.8125 25.9375 C5.95269531 26.75089844 5.09289062 27.56429687 4.20703125 28.40234375 C1.82709544 31.20350713 0.91966473 33.47033702 0 37 C-0.66 36.67 -1.32 36.34 -2 36 C-1.47473353 31.97295707 -0.44004126 29.90222859 2.3125 26.9375 C2.94027344 26.24785156 3.56804688 25.55820313 4.21484375 24.84765625 C5.54714943 23.46870529 6.94605071 22.15353358 8.375 20.875 C10.53841533 18.37875154 10.70604403 16.23351567 11 13 C11.33 13.66 11.66 14.32 12 15 C12.66 15 13.32 15 14 15 C12.36526484 11.87525373 12.36526484 11.87525373 9.875 11.3125 C8.946875 11.1578125 8.946875 11.1578125 8 11 C8 10.01 8 9.02 8 8 C7.38125 7.9175 6.7625 7.835 6.125 7.75 C4 7 4 7 2.875 5.125 C2.58625 4.42375 2.2975 3.7225 2 3 C1.34 2.01 0.68 1.02 0 0 Z " fill="#F0F0F0" transform="translate(23,107)"/>
<path d="M0 0 C0.33 0 0.66 0 1 0 C1.07516846 0.61407715 1.15033691 1.2281543 1.2277832 1.86083984 C1.58048805 4.7000739 1.94642457 7.53746011 2.3125 10.375 C2.43044922 11.34050781 2.54839844 12.30601563 2.66992188 13.30078125 C3.41559697 18.9985038 4.52488914 24.27884231 6.38476562 29.72070312 C7.41007979 33.51924797 7.18923301 37.08918439 7 41 C5.10908264 41.84442881 3.21202485 42.67511587 1.3125 43.5 C0.25675781 43.9640625 -0.79898438 44.428125 -1.88671875 44.90625 C-4.85627816 45.94950801 -6.89195063 46.23065301 -10 46 C-8.02 45.505 -8.02 45.505 -6 45 C-6 44.34 -6 43.68 -6 43 C-4.73160474 42.49384702 -3.46016898 41.99530901 -2.1875 41.5 C-1.47980469 41.2215625 -0.77210937 40.943125 -0.04296875 40.65625 C2 40 2 40 5 40 C4.81824219 39.33097656 4.63648438 38.66195312 4.44921875 37.97265625 C-2.23159348 12.44852748 -2.23159348 12.44852748 0 0 Z " fill="#CBCBCB" transform="translate(124,24)"/>
<path d="M0 0 C2.97 0.495 2.97 0.495 6 1 C6 1.66 6 2.32 6 3 C6.72703125 3.27457031 7.4540625 3.54914063 8.203125 3.83203125 C15.53194296 6.89252925 21.88097089 11.52293 28.03515625 16.4765625 C30.05631444 18.1183015 30.05631444 18.1183015 32.75 19.5625 C35.2778793 21.177534 36.90968355 23.12933711 38.76171875 25.46875 C40.66739993 27.82530212 42.83312648 29.88351888 45 32 C46.43884158 33.43615717 47.87626485 34.87373626 49.3125 36.3125 C50.00988281 37.00988281 50.70726562 37.70726562 51.42578125 38.42578125 C51.94527344 38.94527344 52.46476562 39.46476562 53 40 C50 40 50 40 47.22265625 37.48046875 C46.16165106 36.39017609 45.10854483 35.29215392 44.0625 34.1875 C43.01410114 33.09536426 41.96337357 32.00545848 40.91015625 30.91796875 C40.41402832 30.40540527 39.91790039 29.8928418 39.40673828 29.36474609 C37.90840358 27.8508672 37.90840358 27.8508672 35.62109375 26.23828125 C35.08613281 25.82964844 34.55117188 25.42101562 34 25 C34 24.34 34 23.68 34 23 C33.39800781 22.72285156 32.79601562 22.44570312 32.17578125 22.16015625 C30 21 30 21 27.1875 18.4375 C21.94346601 13.80640505 15.75416794 10.53298092 9.73828125 7.01904297 C6.44072667 5.08589791 3.20038255 3.09004575 0 1 C0 0.67 0 0.34 0 0 Z " fill="#DEDEDE" transform="translate(236,98)"/>
<path d="M0 0 C2.3181362 1.89111111 3.66914015 3.33828031 5 6 C5.06950541 7.54023996 5.08452357 9.08334988 5.0625 10.625 C5.05347656 11.44226563 5.04445313 12.25953125 5.03515625 13.1015625 C5.02355469 13.72804688 5.01195312 14.35453125 5 15 C4.67 15 4.34 15 4 15 C3.67 11.7 3.34 8.4 3 5 C-0.42639931 3.28680034 -3.96824808 2.13735689 -7.83203125 2.24609375 C-12.99243778 4.0406135 -15.9532363 9.73864807 -19 14 C-19.82938823 15.10193876 -20.66274427 16.20090205 -21.5 17.296875 C-24.4271499 21.13655593 -27.32101667 24.981525 -30 29 C-30.66 29 -31.32 29 -32 29 C-30.80259422 25.29892759 -29.10819349 22.77967306 -26.5546875 19.87109375 C-24.57004702 17.48254402 -22.80004199 14.96774771 -21 12.4375 C-10.02739929 -2.73474526 -10.02739929 -2.73474526 0 0 Z " fill="#EDEDED" transform="translate(304,54)"/>
<path d="M0 0 C4.00626038 2.18523293 7.9193636 4.83872719 10 9 C10.56274832 15.01707818 10.41159582 19.81942857 7 25 C5.4375 26.875 5.4375 26.875 4 28 C3.34 28 2.68 28 2 28 C2 27.34 2 26.68 2 26 C2.639375 25.38125 3.27875 24.7625 3.9375 24.125 C7.01381235 20.95546606 6.93416732 18.90519937 7.25 14.5625 C6.9069303 9.67375681 5.52045098 7.38222817 1.9375 4.125 C-3.70706179 1.96325293 -9.66468034 3.24297397 -15.125 5.5625 C-16.07375 6.036875 -17.0225 6.51125 -18 7 C-14.67305422 -1.04011897 -7.82769248 -1.40898465 0 0 Z " fill="#F0F0F0" transform="translate(151,105)"/>
<path d="M0 0 C0.33 0 0.66 0 1 0 C0.67 14.52 0.34 29.04 0 44 C-1.98 44 -3.96 44 -6 44 C-4.02 43.505 -4.02 43.505 -2 43 C-2.03552979 42.00669678 -2.07105957 41.01339355 -2.10766602 39.98999023 C-2.23874007 36.27957518 -2.36164662 32.56892556 -2.48217773 28.8581543 C-2.53531253 27.25684267 -2.59061663 25.65560142 -2.64819336 24.05444336 C-2.73090754 21.74348114 -2.80563229 19.43237229 -2.87890625 17.12109375 C-2.91945885 16.0597245 -2.91945885 16.0597245 -2.96083069 14.97691345 C-3.09196562 10.53853334 -2.88394857 6.35628688 -2 2 C-1.34 1.34 -0.68 0.68 0 0 Z " fill="#BBBBBB" transform="translate(168,16)"/>
<path d="M0 0 C0.33 0 0.66 0 1 0 C1.0093457 0.83547363 1.01869141 1.67094727 1.02832031 2.53173828 C1.07297496 5.70440748 1.13486362 8.87619754 1.20751953 12.04833984 C1.24881684 14.06716136 1.27117249 16.08634252 1.29296875 18.10546875 C1.6093294 33.81839329 1.6093294 33.81839329 9 47 C9.1875 50.1875 9.1875 50.1875 9 53 C0.61431996 42.76166971 -2.51210198 25.94886423 -2 13 C-1.71241749 10.68136599 -1.38024748 8.36775036 -1 6.0625 C-0.814375 4.91910156 -0.62875 3.77570313 -0.4375 2.59765625 C-0.293125 1.74042969 -0.14875 0.88320312 0 0 Z " fill="#EAEAEA" transform="translate(104,126)"/>
<path d="M0 0 C14.68408551 3.68408551 14.68408551 3.68408551 20 9 C17.03 8.34 14.06 7.68 11 7 C12.59552885 10.4429833 14.29873181 13.45717959 16.625 16.4375 C19.23462732 19.94834997 19.73489226 22.66990698 20 27 C19.34 26.67 18.68 26.34 18 26 C17.649375 24.88625 17.29875 23.7725 16.9375 22.625 C13.92598023 14.09748229 6.93335889 7.51113142 0 2 C0 1.34 0 0.68 0 0 Z " fill="#E0E0E0" transform="translate(216,89)"/>
<path d="M0 0 C1.09570312 0.00902344 2.19140625 0.01804687 3.3203125 0.02734375 C4.16335937 0.03894531 5.00640625 0.05054687 5.875 0.0625 C6.205 0.7225 6.535 1.3825 6.875 2.0625 C6.28332031 2.02769531 5.69164063 1.99289063 5.08203125 1.95703125 C1.32537507 1.82833667 -1.60785334 1.88308177 -5.1875 3.125 C-7.39300407 4.97657044 -7.39300407 4.97657044 -7.75 8.0625 C-7.33134515 14.19841013 -3.81499626 19.94378979 -0.9375 25.25390625 C0.09945417 27.56212635 -0.29129092 28.72811458 -1.125 31.0625 C-2.5856285 28.41511084 -3.125 27.16801666 -3.125 24.0625 C-3.785 24.0625 -4.445 24.0625 -5.125 24.0625 C-8.44353978 18.08667928 -11.125 12.9894244 -11.125 6.0625 C-8.48447187 0.15274656 -6.15749449 -0.06550526 0 0 Z " fill="#DADADA" transform="translate(91.125,30.9375)"/>
<path d="M0 0 C0.66 0 1.32 0 2 0 C1.39948651 3.66980469 -0.12974937 5.67827306 -2.5 8.5 C-5.72224554 12.41438854 -8.84173871 16.37660354 -11.875 20.4375 C-12.61492187 21.42621094 -13.35484375 22.41492188 -14.1171875 23.43359375 C-15.4553775 25.25764112 -16.74511401 27.11767101 -18 29 C-18.66 29 -19.32 29 -20 29 C-20 30.32 -20 31.64 -20 33 C-20.99 32.67 -21.98 32.34 -23 32 C-21.71667049 29.28699312 -20.30964589 26.92020773 -18.49609375 24.53125 C-18.0067334 23.88285156 -17.51737305 23.23445313 -17.01318359 22.56640625 C-16.49320801 21.88449219 -15.97323242 21.20257813 -15.4375 20.5 C-14.35522001 19.0731053 -13.27319137 17.64601992 -12.19140625 16.21875 C-11.65402832 15.51105469 -11.11665039 14.80335937 -10.56298828 14.07421875 C-9.11701408 12.15528767 -7.69219974 10.22318855 -6.27734375 8.28125 C-5.8687915 7.72373047 -5.46023926 7.16621094 -5.03930664 6.59179688 C-3.93683357 5.08453656 -2.83935956 3.57362342 -1.7421875 2.0625 C-1.16726563 1.381875 -0.59234375 0.70125 0 0 Z " fill="#D0D0D0" transform="translate(306,69)"/>
<path d="M0 0 C0.99 0.33 1.98 0.66 3 1 C0.03 3.64 -2.94 6.28 -6 9 C-5.03411885 13.39036887 -4.50649218 15.45732981 -1.375 18.8125 C1.89435989 23.20032511 1.47046433 26.70988992 1 32 C0.67 32 0.34 32 0 32 C-0.0515625 31.3709375 -0.103125 30.741875 -0.15625 30.09375 C-1.15596893 22.55041627 -4.10635272 18.70263939 -10 14 C-10.66 13.67 -11.32 13.34 -12 13 C-12 12.01 -12 11.02 -12 10 C-9.62890625 7.7734375 -9.62890625 7.7734375 -6.5625 5.375 C-5.55316406 4.57835938 -4.54382813 3.78171875 -3.50390625 2.9609375 C-2.67761719 2.31382813 -1.85132813 1.66671875 -1 1 C-0.67 0.67 -0.34 0.34 0 0 Z " fill="#D8D8D8" transform="translate(321,114)"/>
<path d="M0 0 C2.65801803 1.65278151 4.11552099 3.34978985 5.68359375 6.046875 C5.93359375 9.359375 5.93359375 9.359375 5.68359375 12.046875 C5.35359375 12.046875 5.02359375 12.046875 4.68359375 12.046875 C4.34328125 10.685625 4.34328125 10.685625 3.99609375 9.296875 C2.45800162 5.48826593 1.20176058 4.12579177 -2.31640625 2.046875 C-5.31640625 1.296875 -5.31640625 1.296875 -8.31640625 2.046875 C-12.6364268 5.2354616 -14.45104845 9.02427308 -16.421875 13.86328125 C-17.29062059 15.98393096 -18.2679848 18.01007386 -19.31640625 20.046875 C-19.97640625 20.046875 -20.63640625 20.046875 -21.31640625 20.046875 C-20.24938473 13.04772191 -16.74574068 6.41836813 -11.69140625 1.484375 C-10.90765625 1.01 -10.12390625 0.535625 -9.31640625 0.046875 C-8.69765625 -0.4275 -8.07890625 -0.901875 -7.44140625 -1.390625 C-4.54791108 -2.15655019 -2.62825965 -1.28869505 0 0 Z " fill="#E7E7E7" transform="translate(266.31640625,31.953125)"/>
<path d="M0 0 C0.66 0 1.32 0 2 0 C11 17.73786408 11 17.73786408 11 23 C9.25877451 24.03572896 7.50663405 25.0531252 5.75 26.0625 C4.77546875 26.63097656 3.8009375 27.19945313 2.796875 27.78515625 C0 29 0 29 -2.359375 28.68359375 C-2.90078125 28.45800781 -3.4421875 28.23242188 -4 28 C-2.576875 27.6596875 -2.576875 27.6596875 -1.125 27.3125 C2.19323388 26.30916286 2.19323388 26.30916286 3.375 23.375 C3.58125 22.59125 3.7875 21.8075 4 21 C5.32 21 6.64 21 8 21 C7.50628906 19.81921875 7.01257813 18.6384375 6.50390625 17.421875 C5.85662369 15.86464449 5.20949639 14.30734943 4.5625 12.75 C4.07426758 11.58404297 4.07426758 11.58404297 3.57617188 10.39453125 C3.26357422 9.64042969 2.95097656 8.88632812 2.62890625 8.109375 C2.1968689 7.07248535 2.1968689 7.07248535 1.75610352 6.01464844 C1.01053969 4.02808314 0.47215304 2.06693606 0 0 Z " fill="#EFEFEF" transform="translate(86,55)"/>
<path d="M0 0 C0.66 0.33 1.32 0.66 2 1 C-2.11718348 3.86331396 -6.20389174 6.15772697 -10.75 8.3125 C-16.94954864 11.31721951 -22.46907567 14.88168896 -28 19 C-28.99 19.66 -29.98 20.32 -31 21 C-31.99 20.67 -32.98 20.34 -34 20 C-28.10196765 15.47416293 -22.10918282 11.30175122 -15.6875 7.5625 C-14.55699219 6.90378906 -13.42648438 6.24507813 -12.26171875 5.56640625 C-9.07962985 4.0382414 -6.49059874 3.37493572 -3 3 C-3 2.34 -3 1.68 -3 1 C-2.01 0.67 -1.02 0.34 0 0 Z " fill="#BFBFBF" transform="translate(117,93)"/>
<path d="M0 0 C0 0.33 0 0.66 0 1 C-0.62648438 1.04898438 -1.25296875 1.09796875 -1.8984375 1.1484375 C-2.71570312 1.22320312 -3.53296875 1.29796875 -4.375 1.375 C-5.18710937 1.44460937 -5.99921875 1.51421875 -6.8359375 1.5859375 C-9.20334191 1.82892588 -9.20334191 1.82892588 -11 4 C-12.02129193 8.69975047 -11.73775294 12.64224022 -9.43359375 16.8828125 C-7.70340145 19.33653976 -5.92266588 21.69476285 -4 24 C-4.33 24.66 -4.66 25.32 -5 26 C-10.09365421 21.34294472 -15.14925131 16.01669445 -15.625 8.8125 C-15 5 -15 5 -13.125 2 C-8.7480865 -0.80122464 -5.05801512 -0.44196249 0 0 Z " fill="#CFCFCF" transform="translate(58,52)"/>
<path d="M0 0 C-12.25460976 5.92964988 -23.2721473 10.51319671 -37 11 C-34.30861382 8.30861382 -31.41063159 8.03735486 -27.8125 7.25 C-20.53202471 5.57429553 -13.93145502 3.09730786 -7.109375 0.07421875 C-4.06266028 -0.97835229 -2.9098898 -1.23166127 0 0 Z " fill="#C5C5C5" transform="translate(245,212)"/>
<path d="M0 0 C5.08646583 1.2207518 8.79646933 2.71919558 13 6 C13 6.66 13 7.32 13 8 C13.825 8.2475 14.65 8.495 15.5 8.75 C19 10 19 10 22.5 11.8125 C28.3916702 14.86189961 34.73816438 16.85409004 41 19 C41 19.33 41 19.66 41 20 C34.07104239 19.56441943 28.87338248 17.43771706 22.6875 14.375 C21.30353027 13.70210937 21.30353027 13.70210937 19.89160156 13.015625 C2.12379175 4.2475835 2.12379175 4.2475835 0 0 Z " fill="#E3E3E3" transform="translate(78,198)"/>
<path d="M0 0 C6.10977785 7.22699437 7.58454211 17.79760784 8 27 C8.66 27 9.32 27 10 27 C10.08082094 28.95766281 10.13910778 30.91626728 10.1875 32.875 C10.22230469 33.96554688 10.25710937 35.05609375 10.29296875 36.1796875 C10.19628906 37.11039063 10.09960938 38.04109375 10 39 C9.01 39.66 8.02 40.32 7 41 C6.97421875 40.04222656 6.9484375 39.08445313 6.921875 38.09765625 C6.49256638 26.92854778 5.08128234 15.64456552 0.87109375 5.19921875 C0 3 0 3 0 0 Z " fill="#F4F4F4" transform="translate(235,111)"/>
<path d="M0 0 C0.33 0 0.66 0 1 0 C2.65681566 30.44717399 2.65681566 30.44717399 -7.203125 41.4609375 C-7.79609375 41.96882813 -8.3890625 42.47671875 -9 43 C-9 40 -9 40 -7.25 36.625 C-1.20074906 24.72024637 -0.27668756 13.10115599 0 0 Z " fill="#D1D1D1" transform="translate(241,136)"/>
<path d="M0 0 C0 0.33 0 0.66 0 1 C-1.0725 1.2475 -2.145 1.495 -3.25 1.75 C-7.32404106 3.10801369 -8.47288593 3.61692793 -11 7 C-12.20432736 10.52299497 -12.97952772 14.11085105 -13.75 17.75 C-13.97042969 18.73355469 -14.19085938 19.71710937 -14.41796875 20.73046875 C-14.95848924 23.15106051 -15.4852777 25.57381513 -16 28 C-16.66 28 -17.32 28 -18 28 C-17.52461865 25.38540258 -17.046669 22.77170191 -16.5546875 20.16015625 C-16.19551762 18.11389969 -15.88488772 16.0582836 -15.6328125 13.99609375 C-14.54954614 5.87159607 -14.54954614 5.87159607 -11.125 2.9375 C-10.09375 2.298125 -9.0625 1.65875 -8 1 C-7.29875 0.54625 -6.5975 0.0925 -5.875 -0.375 C-3.55678958 -1.14773681 -2.27014655 -0.81076663 0 0 Z " fill="#ECECEC" transform="translate(223,17)"/>
<path d="M0 0 C7.77780864 0.78373327 15.35917369 2.44935402 23 4.0625 C24.36061565 4.34729887 25.72129229 4.63180651 27.08203125 4.91601562 C30.38863064 5.60782188 33.69458411 6.30256489 37 7 C37 7.33 37 7.66 37 8 C29.72240666 8.58874912 22.97489348 7.60234216 15.875 6.125 C15.02123779 5.95129883 14.16747559 5.77759766 13.2878418 5.59863281 C12.48902588 5.42428711 11.69020996 5.24994141 10.8671875 5.0703125 C10.14644043 4.91320801 9.42569336 4.75610352 8.68310547 4.59423828 C7 4 7 4 6 2 C2.97065509 1.34227572 2.97065509 1.34227572 0 1 C0 0.67 0 0.34 0 0 Z " fill="#E4E4E4" transform="translate(116,218)"/>
<path d="M0 0 C4.37789915 3.66314011 8.44711631 7.39031906 12.32421875 11.58203125 C14.21652442 13.18321297 15.61815603 13.46570796 18 14 C19.125 15.875 19.125 15.875 20 18 C20.66 18.99 21.32 19.98 22 21 C16.67793409 20.09405365 13.66065816 16.34603664 9.875 12.75 C8.78251953 11.74646484 8.78251953 11.74646484 7.66796875 10.72265625 C6.97058594 10.06652344 6.27320312 9.41039062 5.5546875 8.734375 C4.92030762 8.13850586 4.28592773 7.54263672 3.63232422 6.92871094 C1.78445134 4.74531343 0.92357619 2.69129987 0 0 Z " fill="#D3D3D3" transform="translate(59,148)"/>
<path d="M0 0 C4.23946663 0.61318969 7.45376523 3.05495745 10.9375 5.375 C12.15450568 6.1751522 13.37194602 6.97464373 14.58984375 7.7734375 C15.45838989 8.34759399 15.45838989 8.34759399 16.34448242 8.93334961 C17.82129638 9.88486121 19.33828139 10.77335113 20.859375 11.65234375 C23.27646582 13.17405238 23.99991927 14.36342353 25 17 C20.349632 15.39920025 16.54972465 12.91003766 12.5 10.1875 C11.84902344 9.76146484 11.19804688 9.33542969 10.52734375 8.89648438 C6.56677916 6.25210741 3.25067366 3.4819716 0 0 Z " fill="#D0D0D0" transform="translate(79,169)"/>
<path d="M0 0 C-0.804375 0.61875 -1.60875 1.2375 -2.4375 1.875 C-5.31633827 4.26232929 -5.87360585 4.96075917 -6.31640625 8.6015625 C-6.39761719 9.59929688 -6.47882813 10.59703125 -6.5625 11.625 C-6.64628906 12.62789062 -6.73007813 13.63078125 -6.81640625 14.6640625 C-6.87699219 15.43492188 -6.93757813 16.20578125 -7 17 C-7.99 17.33 -8.98 17.66 -10 18 C-10.08160748 16.10489301 -10.13946459 14.20875496 -10.1875 12.3125 C-10.22230469 11.25675781 -10.25710937 10.20101563 -10.29296875 9.11328125 C-9.96292785 5.60604664 -9.07227814 3.81488629 -7 1 C-4.02809533 -1.04318446 -3.53272459 -1.17757486 0 0 Z " fill="#FAFAFA" transform="translate(131,18)"/>
<path d="M0 0 C0.25523437 0.58265625 0.51046875 1.1653125 0.7734375 1.765625 C2.11741087 4.21388223 3.61810296 5.81743248 5.625 7.75 C6.25664062 8.36359375 6.88828125 8.9771875 7.5390625 9.609375 C8.02117187 10.06828125 8.50328125 10.5271875 9 11 C12.47775179 9.48446596 14.9557984 7.4226544 17.75 4.875 C18.54921875 4.15054688 19.3484375 3.42609375 20.171875 2.6796875 C20.77515625 2.12539062 21.3784375 1.57109375 22 1 C22.99 1.33 23.98 1.66 25 2 C18.07 7.94 18.07 7.94 11 14 C6.39918674 11.69959337 3.16021433 9.05691426 0 5 C-0.4375 2.0625 -0.4375 2.0625 0 0 Z " fill="#DADAD9" transform="translate(286,98)"/>
<path d="M0 0 C0 3 0 3 -0.6875 6.5 C-0.76106377 10.08456196 0.10609007 11.12859403 2.44921875 13.96875 C5.18654767 16.7731284 8.06329542 19.4065466 11 22 C10.01 22.33 9.02 22.66 8 23 C6.35113941 21.37807179 4.7059976 19.75236228 3.0625 18.125 C2.14597656 17.22007813 1.22945312 16.31515625 0.28515625 15.3828125 C-2.54252938 12.43428561 -2.94679745 11.71823447 -3.25 7.625 C-2.99195908 3.88340672 -2.53752812 2.64325846 0 0 Z " fill="#D4D5D5" transform="translate(14,84)"/>
<path d="M0 0 C0.33 0 0.66 0 1 0 C1 7.59 1 15.18 1 23 C-2.12889199 23.782223 -4.1400091 24.11433318 -7.25 24.0625 C-9.10625 24.0315625 -9.10625 24.0315625 -11 24 C-9.68 23.67 -8.36 23.34 -7 23 C-7 22.34 -7 21.68 -7 21 C-5.34385343 20.61781233 -3.67542976 20.28604898 -2 20 C-1.67 20.33 -1.34 20.66 -1 21 C-0.9727585 19.58344207 -0.95349533 18.16672955 -0.9375 16.75 C-0.92589844 15.96109375 -0.91429687 15.1721875 -0.90234375 14.359375 C-0.91298977 12.01639655 -0.91298977 12.01639655 -1.56640625 9.890625 C-2 8 -2 8 -1 5 C-0.65179959 3.33637583 -0.31595508 1.67004829 0 0 Z " fill="#FBFBFB" transform="translate(165,36)"/>
<path d="M0 0 C0.33 0.66 0.66 1.32 1 2 C0.43410156 2.67546875 -0.13179687 3.3509375 -0.71484375 4.046875 C-1.44832031 4.93890625 -2.18179688 5.8309375 -2.9375 6.75 C-3.66839844 7.63171875 -4.39929688 8.5134375 -5.15234375 9.421875 C-7.09840298 11.79496054 -7.09840298 11.79496054 -7.53125 14.21875 C-7.6859375 14.8065625 -7.840625 15.394375 -8 16 C-11.5625 17.75 -11.5625 17.75 -15 19 C-13.40212025 15.35752143 -11.15207958 12.55600321 -8.625 9.5 C-7.85414063 8.5615625 -7.08328125 7.623125 -6.2890625 6.65625 C-4.27933934 4.32414804 -2.21072222 2.14005986 0 0 Z " fill="#DADADA" transform="translate(233,177)"/>
<path d="M0 0 C3.57134751 1.3227213 5.39054611 3.49587617 7.7265625 6.43359375 C9.64901963 8.79833396 11.82082661 10.87150506 14 13 C15.43884158 14.43615717 16.87626485 15.87373626 18.3125 17.3125 C19.00988281 18.00988281 19.70726562 18.70726562 20.42578125 19.42578125 C20.94527344 19.94527344 21.46476562 20.46476562 22 21 C19 21 19 21 16.22265625 18.48046875 C15.16165106 17.39017609 14.10854483 16.29215392 13.0625 15.1875 C9.11203928 11.01094861 9.11203928 11.01094861 4.73046875 7.3125 C2.17951062 5.37768752 1.27850242 2.87663045 0 0 Z " fill="#D1D1D1" transform="translate(267,117)"/>
<path d="M0 0 C0 0.99 0 1.98 0 3 C-0.33 2.67 -0.66 2.34 -1 2 C-4.07566051 1.49798103 -6.92990392 1.45176856 -10 2 C-14.10676563 5.59341992 -15.61276807 8.57875302 -16 14 C-16.66 14 -17.32 14 -18 14 C-18.36301342 10.99217453 -18.60722753 8.91573907 -18 6 C-12.77607432 -0.58607835 -7.85469614 -1.15888959 0 0 Z " fill="#EEEEEE" transform="translate(27,80)"/>
<path d="M0 0 C0.66 0.33 1.32 0.66 2 1 C-3.31255855 4.93042949 -8.83786486 8.03091656 -14.8125 10.8125 C-15.78135132 11.26508179 -15.78135132 11.26508179 -16.76977539 11.72680664 C-19.80171615 13.10991492 -22.71904194 14.3636429 -26 15 C-26 14.34 -26 13.68 -26 13 C-16.60976469 8.13170178 -16.60976469 8.13170178 -11.875 6.5 C-8.0778888 5.17255462 -4.95985468 3.17535743 -1.6640625 0.890625 C-1.11492187 0.59671875 -0.56578125 0.3028125 0 0 Z " fill="#EDEDED" transform="translate(251,178)"/>
<path d="M0 0 C-17.47572816 12 -17.47572816 12 -22 12 C-22 11.34 -22 10.68 -22 10 C-19.07177284 7.83785673 -15.84206266 6.12324174 -12.6875 4.3125 C-11.80642578 3.78849609 -10.92535156 3.26449219 -10.01757812 2.72460938 C-9.17001953 2.23412109 -8.32246094 1.74363281 -7.44921875 1.23828125 C-6.27879028 0.5582605 -6.27879028 0.5582605 -5.0847168 -0.13549805 C-3 -1 -3 -1 0 0 Z " fill="#CFCFCF" transform="translate(267,200)"/>
<path d="M0 0 C0.33 0 0.66 0 1 0 C2.99888809 9.42332955 3.21867122 18.42706002 3 28 C2.67 28 2.34 28 2 28 C0.02218439 18.46849315 -1.74540388 9.73640958 0 0 Z " fill="#DADADA" transform="translate(124,24)"/>
<path d="M0 0 C0.99 0.33 1.98 0.66 3 1 C1.95199219 1.97839844 1.95199219 1.97839844 0.8828125 2.9765625 C-0.02726562 3.85054687 -0.93734375 4.72453125 -1.875 5.625 C-2.77992187 6.48351562 -3.68484375 7.34203125 -4.6171875 8.2265625 C-7.10498082 11.12219079 -8.06456695 13.33353252 -9 17 C-9.66 16.67 -10.32 16.34 -11 16 C-10.47606693 11.93597861 -9.40270223 9.86366696 -6.625 6.875 C-6.01914062 6.21242187 -5.41328125 5.54984375 -4.7890625 4.8671875 C-3.21323998 3.22255177 -1.62045312 1.60057026 0 0 Z " fill="#DFDFDF" transform="translate(32,127)"/>
<path d="M0 0 C0.33 0 0.66 0 1 0 C1 8.25 1 16.5 1 25 C0.67 25 0.34 25 0 25 C-2.22516615 18.97896217 -1.90027281 14.29212407 -1 8 C-0.81074258 6.45854809 -0.62307377 4.91689972 -0.4375 3.375 C-0.293125 2.26125 -0.14875 1.1475 0 0 Z " fill="#E3E3E3" transform="translate(104,126)"/>
<path d="M0 0 C4.72224516 1.53472968 9.35855331 3.23945126 14 5 C14 5.99 14 6.98 14 8 C4.61452514 5.81005587 4.61452514 5.81005587 2 4 C0.75 1.875 0.75 1.875 0 0 Z " fill="#DFDFDF" transform="translate(102,183)"/>
<path d="M0 0 C0.99 0 1.98 0 3 0 C2.71382813 0.68449219 2.42765625 1.36898437 2.1328125 2.07421875 C0.89019008 5.28361251 -0.12700034 8.51910114 -1.125 11.8125 C-1.47820312 12.97394531 -1.83140625 14.13539062 -2.1953125 15.33203125 C-2.46085937 16.21246094 -2.72640625 17.09289062 -3 18 C-3.33 18 -3.66 18 -4 18 C-4.51137226 11.09647445 -2.86964374 6.25172386 0 0 Z " fill="#D2D2D2" transform="translate(109,113)"/>
<path d="M0 0 C1.051875 0.433125 1.051875 0.433125 2.125 0.875 C3.07375 1.24625 4.0225 1.6175 5 2 C6.010625 2.4125 7.02125 2.825 8.0625 3.25 C10.93459668 4.27903792 10.93459668 4.27903792 13.375 3.125 C13.91125 2.75375 14.4475 2.3825 15 2 C14.01 3.98 13.02 5.96 12 8 C8.04173281 7.43453326 5.240291 6.36453668 2 4 C0.6875 1.8125 0.6875 1.8125 0 0 Z " fill="#DADADA" transform="translate(258,81)"/>
<path d="M0 0 C1.125 3.703125 1.125 3.703125 0 6.375 C-1.25167495 9.66064674 -0.82465302 11.62641945 0 15 C0.33 15.66 0.66 16.32 1 17 C-1.4375 16.3125 -1.4375 16.3125 -4 15 C-5.11404632 11.91494865 -5.15586519 10.4186967 -4.00390625 7.32421875 C-3.52824219 6.45410156 -3.05257812 5.58398438 -2.5625 4.6875 C-2.08941406 3.80449219 -1.61632812 2.92148438 -1.12890625 2.01171875 C-0.75636719 1.34785156 -0.38382812 0.68398437 0 0 Z " fill="#BEBFBF" transform="translate(259,67)"/>
<path d="M0 0 C2.36387237 1.66446976 2.92381929 2.63072708 3.51171875 5.48046875 C3.59873047 6.82044922 3.59873047 6.82044922 3.6875 8.1875 C3.78611328 9.53908203 3.78611328 9.53908203 3.88671875 10.91796875 C3.92410156 11.60503906 3.96148437 12.29210938 4 13 C3.67 13 3.34 13 3 13 C2.80664062 12.36191406 2.61328125 11.72382813 2.4140625 11.06640625 C2.15367187 10.24011719 1.89328125 9.41382813 1.625 8.5625 C1.36976563 7.73878906 1.11453125 6.91507813 0.8515625 6.06640625 C0.19117773 3.82201984 0.19117773 3.82201984 -2 3 C-4.33294775 2.95758277 -6.66702567 2.95907063 -9 3 C-9.99 3 -10.98 3 -12 3 C-8.22561516 -0.77438484 -5.06382535 -0.48226908 0 0 Z " fill="#C4C4C4" transform="translate(226,18)"/>
<path d="M0 0 C0.99 0.33 1.98 0.66 3 1 C2.16855469 1.67095703 2.16855469 1.67095703 1.3203125 2.35546875 C-4.14132545 6.74888571 -4.14132545 6.74888571 -7 13 C-8.32 12.34 -9.64 11.68 -11 11 C-9.54540569 9.35086118 -8.08620743 7.70578218 -6.625 6.0625 C-5.81289062 5.14597656 -5.00078125 4.22945313 -4.1640625 3.28515625 C-2 1 -2 1 0 0 Z " fill="#E6E6E6" transform="translate(82,114)"/>
<path d="M0 0 C0.66 0.33 1.32 0.66 2 1 C1.74337755 2.44010481 1.46909179 3.8770687 1.1875 5.3125 C1.03667969 6.11300781 0.88585937 6.91351563 0.73046875 7.73828125 C-0.07572236 10.23445587 -1.02052002 11.32422106 -3 13 C-3.4726477 4.80743982 -3.4726477 4.80743982 -1.5 1.4375 C-0.7575 0.7259375 -0.7575 0.7259375 0 0 Z " fill="#FBFBFB" transform="translate(135,110)"/>
<path d="M0 0 C0.33 0.99 0.66 1.98 1 3 C0.07421875 4.82421875 0.07421875 4.82421875 -1.3125 6.6875 C-1.76238281 7.31011719 -2.21226562 7.93273437 -2.67578125 8.57421875 C-3.11277344 9.04472656 -3.54976563 9.51523438 -4 10 C-4.66 10 -5.32 10 -6 10 C-6 11.32 -6 12.64 -6 14 C-6.99 13.67 -7.98 13.34 -9 13 C-7.50923566 9.7173068 -5.61379679 7.06922559 -3.375 4.25 C-2.74335938 3.45078125 -2.11171875 2.6515625 -1.4609375 1.828125 C-0.97882813 1.22484375 -0.49671875 0.6215625 0 0 Z " fill="#C1C1C1" transform="translate(292,88)"/>
<path d="M0 0 C3.01488424 0.89631694 4.71802222 1.67912874 6.8125 4.0625 C8.44065511 8.0900416 8.25222137 11.71223668 8 16 C7.67 16 7.34 16 7 16 C6.67 12.7 6.34 9.4 6 6 C2.34920174 4.38935371 -1.0507432 3.55105909 -5 3 C-5 2.67 -5 2.34 -5 2 C-3.35 2 -1.7 2 0 2 C0 1.34 0 0.68 0 0 Z " fill="#DADADA" transform="translate(301,53)"/>
<path d="M0 0 C0.56203125 0.32742187 1.1240625 0.65484375 1.703125 0.9921875 C4.26859964 2.11785494 5.96842277 2.2068111 8.75 2.125 C9.94882813 2.09792969 9.94882813 2.09792969 11.171875 2.0703125 C12.07679688 2.03550781 12.07679688 2.03550781 13 2 C13 2.66 13 3.32 13 4 C8.35601989 5.54799337 3.67482292 5.49594333 -1 4 C-0.67 2.68 -0.34 1.36 0 0 Z " fill="#F5F5F5" transform="translate(140,130)"/>
<path d="M0 0 C0.54140625 0.24621094 1.0828125 0.49242188 1.640625 0.74609375 C-0.28883528 2.11316871 -2.22647977 3.46454329 -4.171875 4.80859375 C-5.79029297 5.93974609 -5.79029297 5.93974609 -7.44140625 7.09375 C-8.88580078 7.91166016 -8.88580078 7.91166016 -10.359375 8.74609375 C-11.349375 8.41609375 -12.339375 8.08609375 -13.359375 7.74609375 C-11.62132159 6.37662753 -9.86846267 5.02593421 -8.109375 3.68359375 C-7.13484375 2.92949219 -6.1603125 2.17539063 -5.15625 1.3984375 C-2.359375 -0.25390625 -2.359375 -0.25390625 0 0 Z " fill="#D1D1D1" transform="translate(96.359375,105.25390625)"/>
<path d="M0 0 C1.61648437 0.04060547 1.61648437 0.04060547 3.265625 0.08203125 C4.08546875 0.11683594 4.9053125 0.15164062 5.75 0.1875 C5.75 0.5175 5.75 0.8475 5.75 1.1875 C5.13511719 1.22488281 4.52023438 1.26226562 3.88671875 1.30078125 C2.67435547 1.39939453 2.67435547 1.39939453 1.4375 1.5 C0.63699219 1.55800781 -0.16351563 1.61601563 -0.98828125 1.67578125 C-3.66112248 2.28051735 -4.43133212 3.20717275 -6.25 5.1875 C-9.4375 6.375 -9.4375 6.375 -12.25 7.1875 C-9.73903637 1.1193379 -6.39239195 -0.20844756 0 0 Z " fill="#C4C4C4" transform="translate(145.25,104.8125)"/>
<path d="M0 0 C0.96661363 3.12180401 0.98988909 5.52083795 0.5625 8.75 C0.40974609 9.94882812 0.40974609 9.94882812 0.25390625 11.171875 C0.12822266 12.07679687 0.12822266 12.07679687 0 13 C0.9590625 13.1546875 0.9590625 13.1546875 1.9375 13.3125 C2.618125 13.539375 3.29875 13.76625 4 14 C4.33 14.99 4.66 15.98 5 17 C2.69 16.34 0.38 15.68 -2 15 C-1.85930804 12.87465341 -1.71229079 10.74972471 -1.5625 8.625 C-1.48128906 7.44164062 -1.40007812 6.25828125 -1.31640625 5.0390625 C-1 2 -1 2 0 0 Z " fill="#C1C1C1" transform="translate(223,52)"/>
<path d="M0 0 C3.69896249 0.70343517 5.63271431 2.04003869 8.02734375 5.03515625 C9.89511646 8.80820714 9.36435656 12.9030129 9 17 C8.67 17 8.34 17 8 17 C7.92523438 16.35933594 7.85046875 15.71867188 7.7734375 15.05859375 C6.76603587 8.43147127 4.85770689 4.61329397 0 0 Z " fill="#CBCBCB" transform="translate(313,129)"/>
<path d="M0 0 C0.66 0.33 1.32 0.66 2 1 C-1.3 4.63 -4.6 8.26 -8 12 C-8.99 11.67 -9.98 11.34 -11 11 C-7.37 7.37 -3.74 3.74 0 0 Z " fill="#C4C4C4" transform="translate(72,122)"/>
<path d="M0 0 C3.08830814 3.08830814 3.66509894 7.02986407 4.90234375 11.15234375 C5.95253593 13.87686368 6.77390391 15.17980178 9 17 C7.35 16.67 5.7 16.34 4 16 C3.32815382 13.89748139 2.66269032 11.79292237 2 9.6875 C1.443125 7.92986328 1.443125 7.92986328 0.875 6.13671875 C0 3 0 3 0 0 Z " fill="#EDEDED" transform="translate(109,52)"/>
<path d="M0 0 C2.89932357 2.39509338 3.50168276 4.31245243 4 8 C1.525 9.485 1.525 9.485 -1 11 C-1 8 -1 8 0 5 C0 4.01 0 3.02 0 2 C0 1.34 0 0.68 0 0 Z " fill="#D4D4D4" transform="translate(63,90)"/>
<path d="M0 0 C0.33 0.99 0.66 1.98 1 3 C0.67 3.33 0.34 3.66 0 4 C-0.23678716 6.69235776 -0.42198025 9.36498156 -0.5625 12.0625 C-0.60568359 12.82111328 -0.64886719 13.57972656 -0.69335938 14.36132812 C-0.79973633 16.24065438 -0.90039934 18.12030244 -1 20 C-4.12250904 15.31623644 -3.14756457 10.52483393 -2.625 5.125 C-2 2 -2 2 0 0 Z " fill="#F9F9F9" transform="translate(168,16)"/>
<path d="M0 0 C2.97 0.495 2.97 0.495 6 1 C6.103125 1.5775 6.20625 2.155 6.3125 2.75 C7.09792798 5.32049158 8.30504197 6.93657284 10 9 C6.71245489 8.42110619 5.06327505 7.45171589 2.75 5.0625 C2.22921875 4.53785156 1.7084375 4.01320312 1.171875 3.47265625 C0 2 0 2 0 0 Z " fill="#E9E9E9" transform="translate(71,160)"/>
<path d="M0 0 C1.75 1.4375 1.75 1.4375 3 3 C2.67 3.99 2.34 4.98 2 6 C-0.16874252 5.49396008 -1.99967627 5.00016187 -4 4 C-4 3.01 -4 2.02 -4 1 C-2.1875 0.3125 -2.1875 0.3125 0 0 Z " fill="#E4E4E4" transform="translate(313,123)"/>
<path d="M0 0 C0.99 0.33 1.98 0.66 3 1 C-2.445 5.455 -2.445 5.455 -8 10 C-8.66 9.67 -9.32 9.34 -10 9 C-6.7 6.03 -3.4 3.06 0 0 Z " fill="#E3E3E3" transform="translate(308,99)"/>
<path d="M0 0 C1.81495662 0.44850658 3.62693134 0.90909571 5.4375 1.375 C6.44683594 1.63023438 7.45617187 1.88546875 8.49609375 2.1484375 C11 3 11 3 12 5 C9.03 4.505 9.03 4.505 6 4 C5.67 4.66 5.34 5.32 5 6 C3.2925002 4.71937515 1.62626404 3.38232443 0 2 C0 1.34 0 0.68 0 0 Z " fill="#B3B3B3" transform="translate(216,89)"/>
<path d="M0 0 C2.97 0 5.94 0 9 0 C9.66 1.65 10.32 3.3 11 5 C10.01 4.34 9.02 3.68 8 3 C5.71351152 2.75892674 5.71351152 2.75892674 3.3125 2.875 C2.50425781 2.89304687 1.69601562 2.91109375 0.86328125 2.9296875 C0.24839844 2.95289062 -0.36648438 2.97609375 -1 3 C-0.67 2.01 -0.34 1.02 0 0 Z " fill="#B7B7B7" transform="translate(327,84)"/>
<path d="M0 0 C2.97 1.98 2.97 1.98 6 4 C5.67 5.32 5.34 6.64 5 8 C4.01 7.01 3.02 6.02 2 5 C1.01 5.495 1.01 5.495 0 6 C-1.125 2.25 -1.125 2.25 0 0 Z " fill="#ECECEC" transform="translate(51,76)"/>
<path d="M0 0 C3.01326538 0.32284986 4.03461538 1.03365384 6.25 3.1875 C8.27011863 6.43411922 8.34907695 8.24742282 8 12 C7.67 12 7.34 12 7 12 C6.773125 11.0925 6.54625 10.185 6.3125 9.25 C4.81149298 5.5332207 3.16878017 4.33489065 0 2 C0 1.34 0 0.68 0 0 Z " fill="#E3E3E3" transform="translate(264,32)"/>
<path d="M0 0 C0.61875 0.34417969 1.2375 0.68835938 1.875 1.04296875 C0.95267578 1.29820313 0.95267578 1.29820313 0.01171875 1.55859375 C-6.09045766 3.32154988 -6.09045766 3.32154988 -10.125 8.04296875 C-10.785 8.04296875 -11.445 8.04296875 -12.125 8.04296875 C-10.72211956 4.65267436 -9.19613702 3.03017506 -6.125 1.04296875 C-5.465 0.60984375 -4.805 0.17671875 -4.125 -0.26953125 C-2.125 -0.95703125 -2.125 -0.95703125 0 0 Z " fill="#F3F3F3" transform="translate(263.125,30.95703125)"/>
<path d="M0 0 C1.09570312 0.00902344 2.19140625 0.01804687 3.3203125 0.02734375 C4.16335937 0.03894531 5.00640625 0.05054687 5.875 0.0625 C6.205 0.7225 6.535 1.3825 6.875 2.0625 C6.29492188 2.02769531 5.71484375 1.99289063 5.1171875 1.95703125 C-0.134134 1.77505476 -3.52011219 2.22872289 -8.125 5.0625 C-8.125 3.7425 -8.125 2.4225 -8.125 1.0625 C-5.36047967 -0.31976016 -3.0788637 -0.03275387 0 0 Z " fill="#BDBDBD" transform="translate(91.125,30.9375)"/>
<path d="M0 0 C0 0.33 0 0.66 0 1 C-1.5778125 1.37125 -1.5778125 1.37125 -3.1875 1.75 C-6.8133541 2.76700786 -9.19910772 4.45373429 -12 7 C-12 6.01 -12 5.02 -12 4 C-10.390625 2.578125 -10.390625 2.578125 -8.25 1.25 C-7.55390625 0.80140625 -6.8578125 0.3528125 -6.140625 -0.109375 C-3.61526236 -1.16007332 -2.52143975 -0.93134261 0 0 Z " fill="#F7F7F7" transform="translate(223,17)"/>
<path d="M0 0 C5.17930997 1.24303439 8.70166639 2.85487785 13 6 C11.296875 6.6796875 11.296875 6.6796875 9 7 C6.640625 5.8203125 6.640625 5.8203125 4.25 4.125 C3.45078125 3.57070312 2.6515625 3.01640625 1.828125 2.4453125 C1.22484375 1.96835938 0.6215625 1.49140625 0 1 C0 0.67 0 0.34 0 0 Z " fill="#B3B3B3" transform="translate(78,198)"/>
<path d="M0 0 C1.32 0.33 2.64 0.66 4 1 C4.33 2.32 4.66 3.64 5 5 C2.69 6.65 0.38 8.3 -2 10 C-1.67 9.4225 -1.34 8.845 -1 8.25 C0.27075898 5.80116138 0.27075898 5.80116138 0 2 C0 1.34 0 0.68 0 0 Z " fill="#CECECE" transform="translate(289,139)"/>
<path d="M0 0 C1.41687119 4.25061356 0.19320039 6.71851625 -1 11 C-1.66 11 -2.32 11 -3 11 C-3.36923077 3.49230769 -3.36923077 3.49230769 -1.5 1 C-1.005 0.67 -0.51 0.34 0 0 Z " fill="#FBFBFB" transform="translate(12,83)"/>
<path d="M0 0 C0.66 0 1.32 0 2 0 C1.54554036 1.41791408 1.08625056 2.83428046 0.625 4.25 C0.36976563 5.03890625 0.11453125 5.8278125 -0.1484375 6.640625 C-0.95173667 8.86627958 -1.89711662 10.90931672 -3 13 C-4.61363928 9.77272143 -3.08456242 7.31076949 -2 4 C-1.37530495 2.64649406 -0.7283669 1.30065517 0 0 Z " fill="#E9E9E9" transform="translate(263,60)"/>
<path d="M0 0 C0.99773437 0.02320313 1.99546875 0.04640625 3.0234375 0.0703125 C4.52777344 0.09738281 4.52777344 0.09738281 6.0625 0.125 C6.83335937 0.14820313 7.60421875 0.17140625 8.3984375 0.1953125 C8.7284375 1.5153125 9.0584375 2.8353125 9.3984375 4.1953125 C8.8828125 3.8653125 8.3671875 3.5353125 7.8359375 3.1953125 C4.60133494 1.86829607 1.86666773 2.06919504 -1.6015625 2.1953125 C-2.5915625 2.1953125 -3.5815625 2.1953125 -4.6015625 2.1953125 C-2.6015625 0.1953125 -2.6015625 0.1953125 0 0 Z " fill="#ACACAC" transform="translate(175.6015625,13.8046875)"/>
<path d="M0 0 C1.62723299 0.45034123 3.25173664 0.91055354 4.875 1.375 C5.77992187 1.63023437 6.68484375 1.88546875 7.6171875 2.1484375 C10 3 10 3 12 5 C3.42857143 4.14285714 3.42857143 4.14285714 0 2 C0 1.34 0 0.68 0 0 Z " fill="#CFCFCF" transform="translate(107,213)"/>
<path d="M0 0 C0.66 0 1.32 0 2 0 C1.52797514 4.24822374 -0.96655518 6.19989709 -4 9 C-3.4739075 5.21213403 -2.61896089 2.82847776 0 0 Z " fill="#D9D9D9" transform="translate(306,69)"/>
<path d="M0 0 C2.97851562 0.390625 2.97851562 0.390625 5.95703125 0.78125 C8.15471706 1.053233 8.15471706 1.053233 11 1 C11.33 1.99 11.66 2.98 12 4 C10.3733152 3.71788123 8.74867104 3.42397625 7.125 3.125 C5.76761719 2.88136719 5.76761719 2.88136719 4.3828125 2.6328125 C2 2 2 2 0 0 Z " fill="#ABABAB" transform="translate(117,192)"/>
<path d="M0 0 C0.99 0.33 1.98 0.66 3 1 C0.69 3.31 -1.62 5.62 -4 8 C-4.66 7.67 -5.32 7.34 -6 7 C-4.02 4.69 -2.04 2.38 0 0 Z " fill="#E6E6E6" transform="translate(293,176)"/>
<path d="M0 0 C0.33 0.99 0.66 1.98 1 3 C-3.82142857 8.22321429 -3.82142857 8.22321429 -8 9 C-7.04270084 7.87411986 -6.08412105 6.7493285 -5.125 5.625 C-4.59132813 4.99851563 -4.05765625 4.37203125 -3.5078125 3.7265625 C-2.38567993 2.44163349 -1.20628025 1.20628025 0 0 Z " fill="#D9D9D9" transform="translate(302,167)"/>
<path d="M0 0 C0.66 0.33 1.32 0.66 2 1 C-0.31 3.31 -2.62 5.62 -5 8 C-5.99 7.67 -6.98 7.34 -8 7 C-7.67 6.01 -7.34 5.02 -7 4 C-5.67203709 3.64587656 -4.33783393 3.31478446 -3 3 C-1.26973898 1.52109931 -1.26973898 1.52109931 0 0 Z " fill="#E0E0E0" transform="translate(60,100)"/>
<path d="M0 0 C0.33 0 0.66 0 1 0 C1.66 2.64 2.32 5.28 3 8 C5.97 8.495 5.97 8.495 9 9 C9 9.33 9 9.66 9 10 C6.03 10 3.06 10 0 10 C0 6.7 0 3.4 0 0 Z " fill="#DDDDDD" transform="translate(149,51)"/>
<path d="M0 0 C-2 2 -2 2 -5.0390625 2.1953125 C-6.22242188 2.17210937 -7.40578125 2.14890625 -8.625 2.125 C-9.81351563 2.10695312 -11.00203125 2.08890625 -12.2265625 2.0703125 C-13.14179688 2.04710937 -14.05703125 2.02390625 -15 2 C-12.03195838 0.02130559 -10.90215354 -0.34161439 -7.5 -0.6875 C-6.33984375 -0.81705078 -6.33984375 -0.81705078 -5.15625 -0.94921875 C-3 -1 -3 -1 0 0 Z " fill="#E7E7E7" transform="translate(215,223)"/>
<path d="M0 0 C2.24606427 1.77444972 2.95081002 2.58352485 3.29296875 5.48046875 C3.25816406 6.37378906 3.22335938 7.26710938 3.1875 8.1875 C3.16042969 9.08855469 3.13335937 9.98960938 3.10546875 10.91796875 C3.07066406 11.60503906 3.03585938 12.29210937 3 13 C2.67 13 2.34 13 2 13 C-0.28571429 4.57142857 -0.28571429 4.57142857 0 0 Z " fill="#C9C9C9" transform="translate(158,111)"/>
<path d="M0 0 C0.66 0.33 1.32 0.66 2 1 C-0.97 3.64 -3.94 6.28 -7 9 C-7.33 8.01 -7.66 7.02 -8 6 C-5.36 4.02 -2.72 2.04 0 0 Z " fill="#E4E4E4" transform="translate(325,85)"/>
<path d="M0 0 C0.66 0 1.32 0 2 0 C2.33 0.99 2.66 1.98 3 3 C-0.465 4.485 -0.465 4.485 -4 6 C-2.84826645 3.53199953 -1.95216435 1.95216435 0 0 Z " fill="#E1E1E1" transform="translate(222,190)"/>
<path d="M0 0 C0.99 0.33 1.98 0.66 3 1 C-0.465 3.97 -0.465 3.97 -4 7 C-3.04065919 3.16263678 -2.76390737 2.40339772 0 0 Z " fill="#E3E3E3" transform="translate(307,162)"/>
<path d="M0 0 C0.33 0 0.66 0 1 0 C1.125 5.75 1.125 5.75 0 8 C-0.99 8 -1.98 8 -3 8 C-1.125 2.25 -1.125 2.25 0 0 Z " fill="#C3C3C3" transform="translate(266,52)"/>
<path d="M0 0 C1.25541557 3.76624671 0.37061958 5.37188934 -1 9 C-1.66 8.67 -2.32 8.34 -3 8 C-2.45276317 4.62537285 -1.9451 2.91765 0 0 Z " fill="#FCFCFC" transform="translate(24,135)"/>
<path d="M0 0 C1 3 1 3 0.22265625 4.82421875 C-0.8515625 6.54947917 -1.92578125 8.27473958 -3 10 C-3.66 9.34 -4.32 8.68 -5 8 C-3.35 5.36 -1.7 2.72 0 0 Z " fill="#EDEDED" transform="translate(114,104)"/>
<path d="M0 0 C2 1 2 1 2 1 Z " fill="#FEFEFE" transform="translate(129,224)"/>
<path d="M0 0 C2 1 2 1 2 1 Z " fill="#FEFEFE" transform="translate(123,222)"/>
<path d="" fill="#FEFEFE" transform="translate(0,0)"/>
<path d="" fill="#FEFEFE" transform="translate(0,0)"/>
<path d="" fill="#FFFFFF" transform="translate(0,0)"/>
<path d="" fill="#FFFFFF" transform="translate(0,0)"/>
<path d="" fill="#FFFFFF" transform="translate(0,0)"/>
<path d="" fill="#FFFFFF" transform="translate(0,0)"/>
<path d="" fill="#FFFFFF" transform="translate(0,0)"/>
<path d="" fill="#FEFEFE" transform="translate(0,0)"/>
<path d="" fill="#FEFEFE" transform="translate(0,0)"/>
<path d="" fill="#FEFEFE" transform="translate(0,0)"/>
<path d="" fill="#FFFFFF" transform="translate(0,0)"/>
<path d="" fill="#FEFEFE" transform="translate(0,0)"/>
<path d="" fill="#FFFFFF" transform="translate(0,0)"/>
<path d="" fill="#FFFFFF" transform="translate(0,0)"/>
<path d="" fill="#FFFFFF" transform="translate(0,0)"/>
<path d="" fill="#FEFEFE" transform="translate(0,0)"/>
<path d="" fill="#FEFEFE" transform="translate(0,0)"/>
<path d="" fill="#FEFEFE" transform="translate(0,0)"/>
<path d="" fill="#FEFEFE" transform="translate(0,0)"/>
<path d="" fill="#FFFFFF" transform="translate(0,0)"/>
<path d="" fill="#FEFEFE" transform="translate(0,0)"/>
<path d="" fill="#FFFFFF" transform="translate(0,0)"/>
<path d="" fill="#FEFEFE" transform="translate(0,0)"/>
<path d="" fill="#FEFEFE" transform="translate(0,0)"/>
<path d="" fill="#FDFDFD" transform="translate(0,0)"/>
<path d="" fill="#FEFEFE" transform="translate(0,0)"/>
<path d="" fill="#FEFEFE" transform="translate(0,0)"/>
<path d="" fill="#FFFFFF" transform="translate(0,0)"/>
<path d="" fill="#FDFDFD" transform="translate(0,0)"/>
<path d="" fill="#FEFEFE" transform="translate(0,0)"/>
<path d="" fill="#FFFFFF" transform="translate(0,0)"/>
<path d="" fill="#FEFEFE" transform="translate(0,0)"/>
<path d="" fill="#FEFEFE" transform="translate(0,0)"/>
</svg>
